<mxfile host="app.diagrams.net" modified="2021-11-04T18:37:24.026Z" agent="5.0 (Windows NT 10.0; Win64; x64) AppleWebKit/537.36 (KHTML, like Gecko) Chrome/95.0.4638.69 Safari/537.36" etag="nXywJVyRQLR1Ryfq3fm1" version="15.6.8" type="github" pages="5">
  <diagram id="mIdWcuVjI4xpF6q1rHtD" name="Class UML">
    <mxGraphModel dx="5542" dy="1037" grid="1" gridSize="10" guides="1" tooltips="1" connect="1" arrows="1" fold="1" page="1" pageScale="1" pageWidth="850" pageHeight="1100" math="0" shadow="0">
      <root>
        <mxCell id="0" />
        <mxCell id="1" parent="0" />
        <mxCell id="ZxXYfscIAA8OzIRm0PE7-7" value="&lt;&lt;interface&gt;&gt;&#xa;monopoly.Square" style="swimlane;fontStyle=1;align=center;verticalAlign=top;childLayout=stackLayout;horizontal=1;startSize=40;horizontalStack=0;resizeParent=1;resizeParentMax=0;resizeLast=0;collapsible=1;marginBottom=0;" parent="1" vertex="1">
          <mxGeometry x="-450" y="471" width="200" height="282" as="geometry" />
        </mxCell>
        <mxCell id="ZxXYfscIAA8OzIRm0PE7-9" value="" style="line;strokeWidth=1;fillColor=none;align=left;verticalAlign=middle;spacingTop=-1;spacingLeft=3;spacingRight=3;rotatable=0;labelPosition=right;points=[];portConstraint=eastwest;" parent="ZxXYfscIAA8OzIRm0PE7-7" vertex="1">
          <mxGeometry y="40" width="200" height="8" as="geometry" />
        </mxCell>
        <mxCell id="ZxXYfscIAA8OzIRm0PE7-10" value="+ position(): int" style="text;strokeColor=none;fillColor=none;align=left;verticalAlign=top;spacingLeft=4;spacingRight=4;overflow=hidden;rotatable=0;points=[[0,0.5],[1,0.5]];portConstraint=eastwest;" parent="ZxXYfscIAA8OzIRm0PE7-7" vertex="1">
          <mxGeometry y="48" width="200" height="26" as="geometry" />
        </mxCell>
        <mxCell id="ZxXYfscIAA8OzIRm0PE7-15" value="+ name(): String" style="text;strokeColor=none;fillColor=none;align=left;verticalAlign=top;spacingLeft=4;spacingRight=4;overflow=hidden;rotatable=0;points=[[0,0.5],[1,0.5]];portConstraint=eastwest;" parent="ZxXYfscIAA8OzIRm0PE7-7" vertex="1">
          <mxGeometry y="74" width="200" height="26" as="geometry" />
        </mxCell>
        <mxCell id="ZxXYfscIAA8OzIRm0PE7-13" value="+ isOwnable(): boolean" style="text;strokeColor=none;fillColor=none;align=left;verticalAlign=top;spacingLeft=4;spacingRight=4;overflow=hidden;rotatable=0;points=[[0,0.5],[1,0.5]];portConstraint=eastwest;" parent="ZxXYfscIAA8OzIRm0PE7-7" vertex="1">
          <mxGeometry y="100" width="200" height="26" as="geometry" />
        </mxCell>
        <mxCell id="ZxXYfscIAA8OzIRm0PE7-14" value="+ isOwned(): boolean" style="text;strokeColor=none;fillColor=none;align=left;verticalAlign=top;spacingLeft=4;spacingRight=4;overflow=hidden;rotatable=0;points=[[0,0.5],[1,0.5]];portConstraint=eastwest;" parent="ZxXYfscIAA8OzIRm0PE7-7" vertex="1">
          <mxGeometry y="126" width="200" height="26" as="geometry" />
        </mxCell>
        <mxCell id="ZxXYfscIAA8OzIRm0PE7-16" value="+ cost(): int" style="text;strokeColor=none;fillColor=none;align=left;verticalAlign=top;spacingLeft=4;spacingRight=4;overflow=hidden;rotatable=0;points=[[0,0.5],[1,0.5]];portConstraint=eastwest;" parent="ZxXYfscIAA8OzIRm0PE7-7" vertex="1">
          <mxGeometry y="152" width="200" height="26" as="geometry" />
        </mxCell>
        <mxCell id="ZxXYfscIAA8OzIRm0PE7-17" value="+ purchase(player: monopoly.Player): void" style="text;strokeColor=none;fillColor=none;align=left;verticalAlign=top;spacingLeft=4;spacingRight=4;overflow=hidden;rotatable=0;points=[[0,0.5],[1,0.5]];portConstraint=eastwest;" parent="ZxXYfscIAA8OzIRm0PE7-7" vertex="1">
          <mxGeometry y="178" width="200" height="26" as="geometry" />
        </mxCell>
        <mxCell id="ZxXYfscIAA8OzIRm0PE7-18" value="+ rent(value: int): int" style="text;strokeColor=none;fillColor=none;align=left;verticalAlign=top;spacingLeft=4;spacingRight=4;overflow=hidden;rotatable=0;points=[[0,0.5],[1,0.5]];portConstraint=eastwest;" parent="ZxXYfscIAA8OzIRm0PE7-7" vertex="1">
          <mxGeometry y="204" width="200" height="26" as="geometry" />
        </mxCell>
        <mxCell id="ZxXYfscIAA8OzIRm0PE7-11" value="+ owner(): monopoly.Player" style="text;strokeColor=none;fillColor=none;align=left;verticalAlign=top;spacingLeft=4;spacingRight=4;overflow=hidden;rotatable=0;points=[[0,0.5],[1,0.5]];portConstraint=eastwest;" parent="ZxXYfscIAA8OzIRm0PE7-7" vertex="1">
          <mxGeometry y="230" width="200" height="26" as="geometry" />
        </mxCell>
        <mxCell id="ZxXYfscIAA8OzIRm0PE7-12" value="+ toString(): String" style="text;strokeColor=none;fillColor=none;align=left;verticalAlign=top;spacingLeft=4;spacingRight=4;overflow=hidden;rotatable=0;points=[[0,0.5],[1,0.5]];portConstraint=eastwest;" parent="ZxXYfscIAA8OzIRm0PE7-7" vertex="1">
          <mxGeometry y="256" width="200" height="26" as="geometry" />
        </mxCell>
        <mxCell id="ZxXYfscIAA8OzIRm0PE7-192" style="edgeStyle=orthogonalEdgeStyle;rounded=0;orthogonalLoop=1;jettySize=auto;html=1;exitX=1;exitY=0.5;exitDx=0;exitDy=0;" parent="ZxXYfscIAA8OzIRm0PE7-7" source="ZxXYfscIAA8OzIRm0PE7-14" target="ZxXYfscIAA8OzIRm0PE7-14" edge="1">
          <mxGeometry relative="1" as="geometry" />
        </mxCell>
        <mxCell id="ZxXYfscIAA8OzIRm0PE7-19" value="&lt;&lt;interface&gt;&gt;&#xa;monopoly.Dice" style="swimlane;fontStyle=1;align=center;verticalAlign=top;childLayout=stackLayout;horizontal=1;startSize=40;horizontalStack=0;resizeParent=1;resizeParentMax=0;resizeLast=0;collapsible=1;marginBottom=0;" parent="1" vertex="1">
          <mxGeometry x="-2480" y="820" width="200" height="152" as="geometry" />
        </mxCell>
        <mxCell id="ZxXYfscIAA8OzIRm0PE7-20" value="" style="line;strokeWidth=1;fillColor=none;align=left;verticalAlign=middle;spacingTop=-1;spacingLeft=3;spacingRight=3;rotatable=0;labelPosition=right;points=[];portConstraint=eastwest;" parent="ZxXYfscIAA8OzIRm0PE7-19" vertex="1">
          <mxGeometry y="40" width="200" height="8" as="geometry" />
        </mxCell>
        <mxCell id="ZxXYfscIAA8OzIRm0PE7-21" value="+ getNumDice(): int" style="text;strokeColor=none;fillColor=none;align=left;verticalAlign=top;spacingLeft=4;spacingRight=4;overflow=hidden;rotatable=0;points=[[0,0.5],[1,0.5]];portConstraint=eastwest;" parent="ZxXYfscIAA8OzIRm0PE7-19" vertex="1">
          <mxGeometry y="48" width="200" height="26" as="geometry" />
        </mxCell>
        <mxCell id="ZxXYfscIAA8OzIRm0PE7-22" value="+ getNumSides(): int" style="text;strokeColor=none;fillColor=none;align=left;verticalAlign=top;spacingLeft=4;spacingRight=4;overflow=hidden;rotatable=0;points=[[0,0.5],[1,0.5]];portConstraint=eastwest;" parent="ZxXYfscIAA8OzIRm0PE7-19" vertex="1">
          <mxGeometry y="74" width="200" height="26" as="geometry" />
        </mxCell>
        <mxCell id="ZxXYfscIAA8OzIRm0PE7-23" value="+ rollDice(): Roll" style="text;strokeColor=none;fillColor=none;align=left;verticalAlign=top;spacingLeft=4;spacingRight=4;overflow=hidden;rotatable=0;points=[[0,0.5],[1,0.5]];portConstraint=eastwest;" parent="ZxXYfscIAA8OzIRm0PE7-19" vertex="1">
          <mxGeometry y="100" width="200" height="26" as="geometry" />
        </mxCell>
        <mxCell id="ZxXYfscIAA8OzIRm0PE7-24" value="+ Roll: class" style="text;strokeColor=none;fillColor=none;align=left;verticalAlign=top;spacingLeft=4;spacingRight=4;overflow=hidden;rotatable=0;points=[[0,0.5],[1,0.5]];portConstraint=eastwest;" parent="ZxXYfscIAA8OzIRm0PE7-19" vertex="1">
          <mxGeometry y="126" width="200" height="26" as="geometry" />
        </mxCell>
        <mxCell id="ZxXYfscIAA8OzIRm0PE7-30" value="&lt;&lt;interface&gt;&gt;&#xa;monopoly.Player" style="swimlane;fontStyle=1;align=center;verticalAlign=top;childLayout=stackLayout;horizontal=1;startSize=40;horizontalStack=0;resizeParent=1;resizeParentMax=0;resizeLast=0;collapsible=1;marginBottom=0;" parent="1" vertex="1">
          <mxGeometry x="-3160" y="482" width="370" height="360" as="geometry" />
        </mxCell>
        <mxCell id="ZxXYfscIAA8OzIRm0PE7-31" value="" style="line;strokeWidth=1;fillColor=none;align=left;verticalAlign=middle;spacingTop=-1;spacingLeft=3;spacingRight=3;rotatable=0;labelPosition=right;points=[];portConstraint=eastwest;" parent="ZxXYfscIAA8OzIRm0PE7-30" vertex="1">
          <mxGeometry y="40" width="370" height="8" as="geometry" />
        </mxCell>
        <mxCell id="ZxXYfscIAA8OzIRm0PE7-32" value="+ move(numTiles: int): void" style="text;strokeColor=none;fillColor=none;align=left;verticalAlign=top;spacingLeft=4;spacingRight=4;overflow=hidden;rotatable=0;points=[[0,0.5],[1,0.5]];portConstraint=eastwest;" parent="ZxXYfscIAA8OzIRm0PE7-30" vertex="1">
          <mxGeometry y="48" width="370" height="26" as="geometry" />
        </mxCell>
        <mxCell id="ZxXYfscIAA8OzIRm0PE7-33" value="+ moveTo(position: int): void" style="text;strokeColor=none;fillColor=none;align=left;verticalAlign=top;spacingLeft=4;spacingRight=4;overflow=hidden;rotatable=0;points=[[0,0.5],[1,0.5]];portConstraint=eastwest;" parent="ZxXYfscIAA8OzIRm0PE7-30" vertex="1">
          <mxGeometry y="74" width="370" height="26" as="geometry" />
        </mxCell>
        <mxCell id="ZxXYfscIAA8OzIRm0PE7-34" value="+ getPosition(): int" style="text;strokeColor=none;fillColor=none;align=left;verticalAlign=top;spacingLeft=4;spacingRight=4;overflow=hidden;rotatable=0;points=[[0,0.5],[1,0.5]];portConstraint=eastwest;" parent="ZxXYfscIAA8OzIRm0PE7-30" vertex="1">
          <mxGeometry y="100" width="370" height="26" as="geometry" />
        </mxCell>
        <mxCell id="ZxXYfscIAA8OzIRm0PE7-35" value="+ properties(): Collection&lt;monopoly.Square&gt;" style="text;strokeColor=none;fillColor=none;align=left;verticalAlign=top;spacingLeft=4;spacingRight=4;overflow=hidden;rotatable=0;points=[[0,0.5],[1,0.5]];portConstraint=eastwest;" parent="ZxXYfscIAA8OzIRm0PE7-30" vertex="1">
          <mxGeometry y="126" width="370" height="26" as="geometry" />
        </mxCell>
        <mxCell id="ZxXYfscIAA8OzIRm0PE7-36" value="+ name(): String" style="text;strokeColor=none;fillColor=none;align=left;verticalAlign=top;spacingLeft=4;spacingRight=4;overflow=hidden;rotatable=0;points=[[0,0.5],[1,0.5]];portConstraint=eastwest;" parent="ZxXYfscIAA8OzIRm0PE7-30" vertex="1">
          <mxGeometry y="152" width="370" height="26" as="geometry" />
        </mxCell>
        <mxCell id="ZxXYfscIAA8OzIRm0PE7-37" value="+ getMoney(): int" style="text;strokeColor=none;fillColor=none;align=left;verticalAlign=top;spacingLeft=4;spacingRight=4;overflow=hidden;rotatable=0;points=[[0,0.5],[1,0.5]];portConstraint=eastwest;" parent="ZxXYfscIAA8OzIRm0PE7-30" vertex="1">
          <mxGeometry y="178" width="370" height="26" as="geometry" />
        </mxCell>
        <mxCell id="ZxXYfscIAA8OzIRm0PE7-38" value="+ exchangeMoney(money: int): void" style="text;strokeColor=none;fillColor=none;align=left;verticalAlign=top;spacingLeft=4;spacingRight=4;overflow=hidden;rotatable=0;points=[[0,0.5],[1,0.5]];portConstraint=eastwest;" parent="ZxXYfscIAA8OzIRm0PE7-30" vertex="1">
          <mxGeometry y="204" width="370" height="26" as="geometry" />
        </mxCell>
        <mxCell id="ZxXYfscIAA8OzIRm0PE7-39" value="+ addProperty(square: monopoly.Square): void" style="text;strokeColor=none;fillColor=none;align=left;verticalAlign=top;spacingLeft=4;spacingRight=4;overflow=hidden;rotatable=0;points=[[0,0.5],[1,0.5]];portConstraint=eastwest;" parent="ZxXYfscIAA8OzIRm0PE7-30" vertex="1">
          <mxGeometry y="230" width="370" height="26" as="geometry" />
        </mxCell>
        <mxCell id="KdBzGCH8AwDXqr2-iXCs-40" value="+ removeProperty(square: monopoly.Square): void" style="text;strokeColor=none;fillColor=none;align=left;verticalAlign=top;spacingLeft=4;spacingRight=4;overflow=hidden;rotatable=0;points=[[0,0.5],[1,0.5]];portConstraint=eastwest;" parent="ZxXYfscIAA8OzIRm0PE7-30" vertex="1">
          <mxGeometry y="256" width="370" height="26" as="geometry" />
        </mxCell>
        <mxCell id="KdBzGCH8AwDXqr2-iXCs-42" value="+ inputBool(state: monopoly.Monopoly.Gamestate): boolean" style="text;strokeColor=none;fillColor=none;align=left;verticalAlign=top;spacingLeft=4;spacingRight=4;overflow=hidden;rotatable=0;points=[[0,0.5],[1,0.5]];portConstraint=eastwest;" parent="ZxXYfscIAA8OzIRm0PE7-30" vertex="1">
          <mxGeometry y="282" width="370" height="26" as="geometry" />
        </mxCell>
        <mxCell id="KdBzGCH8AwDXqr2-iXCs-41" value="+ inputInt(state: monopoly.Monopoly.Gamestate): int" style="text;strokeColor=none;fillColor=none;align=left;verticalAlign=top;spacingLeft=4;spacingRight=4;overflow=hidden;rotatable=0;points=[[0,0.5],[1,0.5]];portConstraint=eastwest;" parent="ZxXYfscIAA8OzIRm0PE7-30" vertex="1">
          <mxGeometry y="308" width="370" height="26" as="geometry" />
        </mxCell>
        <mxCell id="ZxXYfscIAA8OzIRm0PE7-40" value="+ inputDecision(state: monopoly.Monopoly.Gamestate,choices: String[]): int" style="text;strokeColor=none;fillColor=none;align=left;verticalAlign=top;spacingLeft=4;spacingRight=4;overflow=hidden;rotatable=0;points=[[0,0.5],[1,0.5]];portConstraint=eastwest;" parent="ZxXYfscIAA8OzIRm0PE7-30" vertex="1">
          <mxGeometry y="334" width="370" height="26" as="geometry" />
        </mxCell>
        <mxCell id="ZxXYfscIAA8OzIRm0PE7-42" value="monopoly.RollDice" style="swimlane;fontStyle=1;align=center;verticalAlign=top;childLayout=stackLayout;horizontal=1;startSize=26;horizontalStack=0;resizeParent=1;resizeParentMax=0;resizeLast=0;collapsible=1;marginBottom=0;" parent="1" vertex="1">
          <mxGeometry x="-2480" y="1020" width="200" height="190" as="geometry" />
        </mxCell>
        <mxCell id="ZxXYfscIAA8OzIRm0PE7-43" value="- NUM_DICE: int" style="text;strokeColor=none;fillColor=none;align=left;verticalAlign=top;spacingLeft=4;spacingRight=4;overflow=hidden;rotatable=0;points=[[0,0.5],[1,0.5]];portConstraint=eastwest;" parent="ZxXYfscIAA8OzIRm0PE7-42" vertex="1">
          <mxGeometry y="26" width="200" height="26" as="geometry" />
        </mxCell>
        <mxCell id="ZxXYfscIAA8OzIRm0PE7-46" value="- NUM_SIDE: int" style="text;strokeColor=none;fillColor=none;align=left;verticalAlign=top;spacingLeft=4;spacingRight=4;overflow=hidden;rotatable=0;points=[[0,0.5],[1,0.5]];portConstraint=eastwest;" parent="ZxXYfscIAA8OzIRm0PE7-42" vertex="1">
          <mxGeometry y="52" width="200" height="26" as="geometry" />
        </mxCell>
        <mxCell id="ZxXYfscIAA8OzIRm0PE7-44" value="" style="line;strokeWidth=1;fillColor=none;align=left;verticalAlign=middle;spacingTop=-1;spacingLeft=3;spacingRight=3;rotatable=0;labelPosition=right;points=[];portConstraint=eastwest;" parent="ZxXYfscIAA8OzIRm0PE7-42" vertex="1">
          <mxGeometry y="78" width="200" height="8" as="geometry" />
        </mxCell>
        <mxCell id="ZxXYfscIAA8OzIRm0PE7-47" value="+ monopoly.RollDice()" style="text;strokeColor=none;fillColor=none;align=left;verticalAlign=top;spacingLeft=4;spacingRight=4;overflow=hidden;rotatable=0;points=[[0,0.5],[1,0.5]];portConstraint=eastwest;" parent="ZxXYfscIAA8OzIRm0PE7-42" vertex="1">
          <mxGeometry y="86" width="200" height="26" as="geometry" />
        </mxCell>
        <mxCell id="ZxXYfscIAA8OzIRm0PE7-45" value="+ getNumDice(): int" style="text;strokeColor=none;fillColor=none;align=left;verticalAlign=top;spacingLeft=4;spacingRight=4;overflow=hidden;rotatable=0;points=[[0,0.5],[1,0.5]];portConstraint=eastwest;" parent="ZxXYfscIAA8OzIRm0PE7-42" vertex="1">
          <mxGeometry y="112" width="200" height="26" as="geometry" />
        </mxCell>
        <mxCell id="ZxXYfscIAA8OzIRm0PE7-48" value="+ getNumSides(): int" style="text;strokeColor=none;fillColor=none;align=left;verticalAlign=top;spacingLeft=4;spacingRight=4;overflow=hidden;rotatable=0;points=[[0,0.5],[1,0.5]];portConstraint=eastwest;" parent="ZxXYfscIAA8OzIRm0PE7-42" vertex="1">
          <mxGeometry y="138" width="200" height="26" as="geometry" />
        </mxCell>
        <mxCell id="ZxXYfscIAA8OzIRm0PE7-49" value="+ rollDice(): Roll" style="text;strokeColor=none;fillColor=none;align=left;verticalAlign=top;spacingLeft=4;spacingRight=4;overflow=hidden;rotatable=0;points=[[0,0.5],[1,0.5]];portConstraint=eastwest;" parent="ZxXYfscIAA8OzIRm0PE7-42" vertex="1">
          <mxGeometry y="164" width="200" height="26" as="geometry" />
        </mxCell>
        <mxCell id="ZxXYfscIAA8OzIRm0PE7-51" value="monopoly.HumanPlayer" style="swimlane;fontStyle=1;align=center;verticalAlign=top;childLayout=stackLayout;horizontal=1;startSize=26;horizontalStack=0;resizeParent=1;resizeParentMax=0;resizeLast=0;collapsible=1;marginBottom=0;" parent="1" vertex="1">
          <mxGeometry x="-3160" y="912" width="370" height="424" as="geometry" />
        </mxCell>
        <mxCell id="ZxXYfscIAA8OzIRm0PE7-52" value="- properties: Collection&lt;monopoly.Square&gt;" style="text;strokeColor=none;fillColor=none;align=left;verticalAlign=top;spacingLeft=4;spacingRight=4;overflow=hidden;rotatable=0;points=[[0,0.5],[1,0.5]];portConstraint=eastwest;" parent="ZxXYfscIAA8OzIRm0PE7-51" vertex="1">
          <mxGeometry y="26" width="370" height="26" as="geometry" />
        </mxCell>
        <mxCell id="ZxXYfscIAA8OzIRm0PE7-59" value="- playerName: String" style="text;strokeColor=none;fillColor=none;align=left;verticalAlign=top;spacingLeft=4;spacingRight=4;overflow=hidden;rotatable=0;points=[[0,0.5],[1,0.5]];portConstraint=eastwest;" parent="ZxXYfscIAA8OzIRm0PE7-51" vertex="1">
          <mxGeometry y="52" width="370" height="26" as="geometry" />
        </mxCell>
        <mxCell id="ZxXYfscIAA8OzIRm0PE7-60" value="- money: int" style="text;strokeColor=none;fillColor=none;align=left;verticalAlign=top;spacingLeft=4;spacingRight=4;overflow=hidden;rotatable=0;points=[[0,0.5],[1,0.5]];portConstraint=eastwest;" parent="ZxXYfscIAA8OzIRm0PE7-51" vertex="1">
          <mxGeometry y="78" width="370" height="26" as="geometry" />
        </mxCell>
        <mxCell id="ZxXYfscIAA8OzIRm0PE7-53" value="- position: int" style="text;strokeColor=none;fillColor=none;align=left;verticalAlign=top;spacingLeft=4;spacingRight=4;overflow=hidden;rotatable=0;points=[[0,0.5],[1,0.5]];portConstraint=eastwest;" parent="ZxXYfscIAA8OzIRm0PE7-51" vertex="1">
          <mxGeometry y="104" width="370" height="26" as="geometry" />
        </mxCell>
        <mxCell id="ZxXYfscIAA8OzIRm0PE7-54" value="" style="line;strokeWidth=1;fillColor=none;align=left;verticalAlign=middle;spacingTop=-1;spacingLeft=3;spacingRight=3;rotatable=0;labelPosition=right;points=[];portConstraint=eastwest;" parent="ZxXYfscIAA8OzIRm0PE7-51" vertex="1">
          <mxGeometry y="130" width="370" height="8" as="geometry" />
        </mxCell>
        <mxCell id="ZxXYfscIAA8OzIRm0PE7-55" value="+ monopoly.HumanPlayer(playerName: String)" style="text;strokeColor=none;fillColor=none;align=left;verticalAlign=top;spacingLeft=4;spacingRight=4;overflow=hidden;rotatable=0;points=[[0,0.5],[1,0.5]];portConstraint=eastwest;" parent="ZxXYfscIAA8OzIRm0PE7-51" vertex="1">
          <mxGeometry y="138" width="370" height="26" as="geometry" />
        </mxCell>
        <mxCell id="ZxXYfscIAA8OzIRm0PE7-56" value="+ move(numTiles: int): void" style="text;strokeColor=none;fillColor=none;align=left;verticalAlign=top;spacingLeft=4;spacingRight=4;overflow=hidden;rotatable=0;points=[[0,0.5],[1,0.5]];portConstraint=eastwest;" parent="ZxXYfscIAA8OzIRm0PE7-51" vertex="1">
          <mxGeometry y="164" width="370" height="26" as="geometry" />
        </mxCell>
        <mxCell id="ZxXYfscIAA8OzIRm0PE7-57" value="+ moveTo: void" style="text;strokeColor=none;fillColor=none;align=left;verticalAlign=top;spacingLeft=4;spacingRight=4;overflow=hidden;rotatable=0;points=[[0,0.5],[1,0.5]];portConstraint=eastwest;" parent="ZxXYfscIAA8OzIRm0PE7-51" vertex="1">
          <mxGeometry y="190" width="370" height="26" as="geometry" />
        </mxCell>
        <mxCell id="ZxXYfscIAA8OzIRm0PE7-61" value="+ name(): String" style="text;strokeColor=none;fillColor=none;align=left;verticalAlign=top;spacingLeft=4;spacingRight=4;overflow=hidden;rotatable=0;points=[[0,0.5],[1,0.5]];portConstraint=eastwest;" parent="ZxXYfscIAA8OzIRm0PE7-51" vertex="1">
          <mxGeometry y="216" width="370" height="26" as="geometry" />
        </mxCell>
        <mxCell id="ZxXYfscIAA8OzIRm0PE7-58" value="+ getMoney(): int " style="text;strokeColor=none;fillColor=none;align=left;verticalAlign=top;spacingLeft=4;spacingRight=4;overflow=hidden;rotatable=0;points=[[0,0.5],[1,0.5]];portConstraint=eastwest;" parent="ZxXYfscIAA8OzIRm0PE7-51" vertex="1">
          <mxGeometry y="242" width="370" height="26" as="geometry" />
        </mxCell>
        <mxCell id="KdBzGCH8AwDXqr2-iXCs-43" value="+ exchangeMoney(money: int): void" style="text;strokeColor=none;fillColor=none;align=left;verticalAlign=top;spacingLeft=4;spacingRight=4;overflow=hidden;rotatable=0;points=[[0,0.5],[1,0.5]];portConstraint=eastwest;" parent="ZxXYfscIAA8OzIRm0PE7-51" vertex="1">
          <mxGeometry y="268" width="370" height="26" as="geometry" />
        </mxCell>
        <mxCell id="KdBzGCH8AwDXqr2-iXCs-44" value="+ addProperty(square: monopoly.Square): void" style="text;strokeColor=none;fillColor=none;align=left;verticalAlign=top;spacingLeft=4;spacingRight=4;overflow=hidden;rotatable=0;points=[[0,0.5],[1,0.5]];portConstraint=eastwest;" parent="ZxXYfscIAA8OzIRm0PE7-51" vertex="1">
          <mxGeometry y="294" width="370" height="26" as="geometry" />
        </mxCell>
        <mxCell id="KdBzGCH8AwDXqr2-iXCs-45" value="+ removeProperty(square: monopoly.Square): void" style="text;strokeColor=none;fillColor=none;align=left;verticalAlign=top;spacingLeft=4;spacingRight=4;overflow=hidden;rotatable=0;points=[[0,0.5],[1,0.5]];portConstraint=eastwest;" parent="ZxXYfscIAA8OzIRm0PE7-51" vertex="1">
          <mxGeometry y="320" width="370" height="26" as="geometry" />
        </mxCell>
        <mxCell id="KdBzGCH8AwDXqr2-iXCs-46" value="+ inputBool(state: monopoly.Monopoly.Gamestate): boolean" style="text;strokeColor=none;fillColor=none;align=left;verticalAlign=top;spacingLeft=4;spacingRight=4;overflow=hidden;rotatable=0;points=[[0,0.5],[1,0.5]];portConstraint=eastwest;" parent="ZxXYfscIAA8OzIRm0PE7-51" vertex="1">
          <mxGeometry y="346" width="370" height="26" as="geometry" />
        </mxCell>
        <mxCell id="KdBzGCH8AwDXqr2-iXCs-47" value="+ inputInt(state: monopoly.Monopoly.Gamestate): int" style="text;strokeColor=none;fillColor=none;align=left;verticalAlign=top;spacingLeft=4;spacingRight=4;overflow=hidden;rotatable=0;points=[[0,0.5],[1,0.5]];portConstraint=eastwest;" parent="ZxXYfscIAA8OzIRm0PE7-51" vertex="1">
          <mxGeometry y="372" width="370" height="26" as="geometry" />
        </mxCell>
        <mxCell id="KdBzGCH8AwDXqr2-iXCs-48" value="+ inputDecision(state: monopoly.Monopoly.Gamestate,choices: String[]): int" style="text;strokeColor=none;fillColor=none;align=left;verticalAlign=top;spacingLeft=4;spacingRight=4;overflow=hidden;rotatable=0;points=[[0,0.5],[1,0.5]];portConstraint=eastwest;" parent="ZxXYfscIAA8OzIRm0PE7-51" vertex="1">
          <mxGeometry y="398" width="370" height="26" as="geometry" />
        </mxCell>
        <mxCell id="ZxXYfscIAA8OzIRm0PE7-90" value="monopoly.Inactive" style="swimlane;fontStyle=1;align=center;verticalAlign=top;childLayout=stackLayout;horizontal=1;startSize=26;horizontalStack=0;resizeParent=1;resizeParentMax=0;resizeLast=0;collapsible=1;marginBottom=0;" parent="1" vertex="1">
          <mxGeometry x="-1140" y="871" width="210" height="320" as="geometry" />
        </mxCell>
        <mxCell id="ZxXYfscIAA8OzIRm0PE7-91" value="- position: int" style="text;strokeColor=none;fillColor=none;align=left;verticalAlign=top;spacingLeft=4;spacingRight=4;overflow=hidden;rotatable=0;points=[[0,0.5],[1,0.5]];portConstraint=eastwest;" parent="ZxXYfscIAA8OzIRm0PE7-90" vertex="1">
          <mxGeometry y="26" width="210" height="26" as="geometry" />
        </mxCell>
        <mxCell id="ZxXYfscIAA8OzIRm0PE7-92" value="- name: String" style="text;strokeColor=none;fillColor=none;align=left;verticalAlign=top;spacingLeft=4;spacingRight=4;overflow=hidden;rotatable=0;points=[[0,0.5],[1,0.5]];portConstraint=eastwest;" parent="ZxXYfscIAA8OzIRm0PE7-90" vertex="1">
          <mxGeometry y="52" width="210" height="26" as="geometry" />
        </mxCell>
        <mxCell id="ZxXYfscIAA8OzIRm0PE7-95" value="" style="line;strokeWidth=1;fillColor=none;align=left;verticalAlign=middle;spacingTop=-1;spacingLeft=3;spacingRight=3;rotatable=0;labelPosition=right;points=[];portConstraint=eastwest;" parent="ZxXYfscIAA8OzIRm0PE7-90" vertex="1">
          <mxGeometry y="78" width="210" height="8" as="geometry" />
        </mxCell>
        <mxCell id="ZxXYfscIAA8OzIRm0PE7-96" value="+ monopoly.Inactive(position: int, name: String)" style="text;strokeColor=none;fillColor=none;align=left;verticalAlign=top;spacingLeft=4;spacingRight=4;overflow=hidden;rotatable=0;points=[[0,0.5],[1,0.5]];portConstraint=eastwest;" parent="ZxXYfscIAA8OzIRm0PE7-90" vertex="1">
          <mxGeometry y="86" width="210" height="26" as="geometry" />
        </mxCell>
        <mxCell id="ZxXYfscIAA8OzIRm0PE7-97" value="+ position(): int" style="text;strokeColor=none;fillColor=none;align=left;verticalAlign=top;spacingLeft=4;spacingRight=4;overflow=hidden;rotatable=0;points=[[0,0.5],[1,0.5]];portConstraint=eastwest;" parent="ZxXYfscIAA8OzIRm0PE7-90" vertex="1">
          <mxGeometry y="112" width="210" height="26" as="geometry" />
        </mxCell>
        <mxCell id="ZxXYfscIAA8OzIRm0PE7-98" value="+ name(): String" style="text;strokeColor=none;fillColor=none;align=left;verticalAlign=top;spacingLeft=4;spacingRight=4;overflow=hidden;rotatable=0;points=[[0,0.5],[1,0.5]];portConstraint=eastwest;" parent="ZxXYfscIAA8OzIRm0PE7-90" vertex="1">
          <mxGeometry y="138" width="210" height="26" as="geometry" />
        </mxCell>
        <mxCell id="ZxXYfscIAA8OzIRm0PE7-99" value="+ isOwnable(): boolean" style="text;strokeColor=none;fillColor=none;align=left;verticalAlign=top;spacingLeft=4;spacingRight=4;overflow=hidden;rotatable=0;points=[[0,0.5],[1,0.5]];portConstraint=eastwest;" parent="ZxXYfscIAA8OzIRm0PE7-90" vertex="1">
          <mxGeometry y="164" width="210" height="26" as="geometry" />
        </mxCell>
        <mxCell id="ZxXYfscIAA8OzIRm0PE7-100" value="+ isOwned(): boolean " style="text;strokeColor=none;fillColor=none;align=left;verticalAlign=top;spacingLeft=4;spacingRight=4;overflow=hidden;rotatable=0;points=[[0,0.5],[1,0.5]];portConstraint=eastwest;" parent="ZxXYfscIAA8OzIRm0PE7-90" vertex="1">
          <mxGeometry y="190" width="210" height="26" as="geometry" />
        </mxCell>
        <mxCell id="ZxXYfscIAA8OzIRm0PE7-101" value="+ cost(): int" style="text;strokeColor=none;fillColor=none;align=left;verticalAlign=top;spacingLeft=4;spacingRight=4;overflow=hidden;rotatable=0;points=[[0,0.5],[1,0.5]];portConstraint=eastwest;" parent="ZxXYfscIAA8OzIRm0PE7-90" vertex="1">
          <mxGeometry y="216" width="210" height="26" as="geometry" />
        </mxCell>
        <mxCell id="ZxXYfscIAA8OzIRm0PE7-102" value="+ purchase(player: monopoly.Player): void" style="text;strokeColor=none;fillColor=none;align=left;verticalAlign=top;spacingLeft=4;spacingRight=4;overflow=hidden;rotatable=0;points=[[0,0.5],[1,0.5]];portConstraint=eastwest;" parent="ZxXYfscIAA8OzIRm0PE7-90" vertex="1">
          <mxGeometry y="242" width="210" height="26" as="geometry" />
        </mxCell>
        <mxCell id="ZxXYfscIAA8OzIRm0PE7-104" value="+ rent(value: int): int" style="text;strokeColor=none;fillColor=none;align=left;verticalAlign=top;spacingLeft=4;spacingRight=4;overflow=hidden;rotatable=0;points=[[0,0.5],[1,0.5]];portConstraint=eastwest;" parent="ZxXYfscIAA8OzIRm0PE7-90" vertex="1">
          <mxGeometry y="268" width="210" height="26" as="geometry" />
        </mxCell>
        <mxCell id="ZxXYfscIAA8OzIRm0PE7-103" value="+ owner(): monopoly.Player" style="text;strokeColor=none;fillColor=none;align=left;verticalAlign=top;spacingLeft=4;spacingRight=4;overflow=hidden;rotatable=0;points=[[0,0.5],[1,0.5]];portConstraint=eastwest;" parent="ZxXYfscIAA8OzIRm0PE7-90" vertex="1">
          <mxGeometry y="294" width="210" height="26" as="geometry" />
        </mxCell>
        <mxCell id="ZxXYfscIAA8OzIRm0PE7-105" value="monopoly.Utility" style="swimlane;fontStyle=1;align=center;verticalAlign=top;childLayout=stackLayout;horizontal=1;startSize=26;horizontalStack=0;resizeParent=1;resizeParentMax=0;resizeLast=0;collapsible=1;marginBottom=0;" parent="1" vertex="1">
          <mxGeometry x="-610" y="871" width="210" height="502" as="geometry" />
        </mxCell>
        <mxCell id="ZxXYfscIAA8OzIRm0PE7-133" value="- COST: int = 150" style="text;strokeColor=none;fillColor=none;align=left;verticalAlign=top;spacingLeft=4;spacingRight=4;overflow=hidden;rotatable=0;points=[[0,0.5],[1,0.5]];portConstraint=eastwest;" parent="ZxXYfscIAA8OzIRm0PE7-105" vertex="1">
          <mxGeometry y="26" width="210" height="26" as="geometry" />
        </mxCell>
        <mxCell id="ZxXYfscIAA8OzIRm0PE7-106" value="- position: int" style="text;strokeColor=none;fillColor=none;align=left;verticalAlign=top;spacingLeft=4;spacingRight=4;overflow=hidden;rotatable=0;points=[[0,0.5],[1,0.5]];portConstraint=eastwest;" parent="ZxXYfscIAA8OzIRm0PE7-105" vertex="1">
          <mxGeometry y="52" width="210" height="26" as="geometry" />
        </mxCell>
        <mxCell id="ZxXYfscIAA8OzIRm0PE7-135" value="- name: String" style="text;strokeColor=none;fillColor=none;align=left;verticalAlign=top;spacingLeft=4;spacingRight=4;overflow=hidden;rotatable=0;points=[[0,0.5],[1,0.5]];portConstraint=eastwest;" parent="ZxXYfscIAA8OzIRm0PE7-105" vertex="1">
          <mxGeometry y="78" width="210" height="26" as="geometry" />
        </mxCell>
        <mxCell id="ZxXYfscIAA8OzIRm0PE7-134" value="- other: monopoly.Utility" style="text;strokeColor=none;fillColor=none;align=left;verticalAlign=top;spacingLeft=4;spacingRight=4;overflow=hidden;rotatable=0;points=[[0,0.5],[1,0.5]];portConstraint=eastwest;" parent="ZxXYfscIAA8OzIRm0PE7-105" vertex="1">
          <mxGeometry y="104" width="210" height="26" as="geometry" />
        </mxCell>
        <mxCell id="ZxXYfscIAA8OzIRm0PE7-107" value="- numOwned: int" style="text;strokeColor=none;fillColor=none;align=left;verticalAlign=top;spacingLeft=4;spacingRight=4;overflow=hidden;rotatable=0;points=[[0,0.5],[1,0.5]];portConstraint=eastwest;" parent="ZxXYfscIAA8OzIRm0PE7-105" vertex="1">
          <mxGeometry y="130" width="210" height="26" as="geometry" />
        </mxCell>
        <mxCell id="ZxXYfscIAA8OzIRm0PE7-137" value="- owner: monopoly.Player" style="text;strokeColor=none;fillColor=none;align=left;verticalAlign=top;spacingLeft=4;spacingRight=4;overflow=hidden;rotatable=0;points=[[0,0.5],[1,0.5]];portConstraint=eastwest;" parent="ZxXYfscIAA8OzIRm0PE7-105" vertex="1">
          <mxGeometry y="156" width="210" height="26" as="geometry" />
        </mxCell>
        <mxCell id="ZxXYfscIAA8OzIRm0PE7-136" value="- owned: boolean" style="text;strokeColor=none;fillColor=none;align=left;verticalAlign=top;spacingLeft=4;spacingRight=4;overflow=hidden;rotatable=0;points=[[0,0.5],[1,0.5]];portConstraint=eastwest;" parent="ZxXYfscIAA8OzIRm0PE7-105" vertex="1">
          <mxGeometry y="182" width="210" height="26" as="geometry" />
        </mxCell>
        <mxCell id="ZxXYfscIAA8OzIRm0PE7-118" value="- dice: monopoly.RollDice" style="text;strokeColor=none;fillColor=none;align=left;verticalAlign=top;spacingLeft=4;spacingRight=4;overflow=hidden;rotatable=0;points=[[0,0.5],[1,0.5]];portConstraint=eastwest;" parent="ZxXYfscIAA8OzIRm0PE7-105" vertex="1">
          <mxGeometry y="208" width="210" height="26" as="geometry" />
        </mxCell>
        <mxCell id="ZxXYfscIAA8OzIRm0PE7-108" value="" style="line;strokeWidth=1;fillColor=none;align=left;verticalAlign=middle;spacingTop=-1;spacingLeft=3;spacingRight=3;rotatable=0;labelPosition=right;points=[];portConstraint=eastwest;" parent="ZxXYfscIAA8OzIRm0PE7-105" vertex="1">
          <mxGeometry y="234" width="210" height="8" as="geometry" />
        </mxCell>
        <mxCell id="ZxXYfscIAA8OzIRm0PE7-109" value="+ monopoly.Utility(position: int, name: String)" style="text;strokeColor=none;fillColor=none;align=left;verticalAlign=top;spacingLeft=4;spacingRight=4;overflow=hidden;rotatable=0;points=[[0,0.5],[1,0.5]];portConstraint=eastwest;" parent="ZxXYfscIAA8OzIRm0PE7-105" vertex="1">
          <mxGeometry y="242" width="210" height="26" as="geometry" />
        </mxCell>
        <mxCell id="ZxXYfscIAA8OzIRm0PE7-110" value="+ position(): int" style="text;strokeColor=none;fillColor=none;align=left;verticalAlign=top;spacingLeft=4;spacingRight=4;overflow=hidden;rotatable=0;points=[[0,0.5],[1,0.5]];portConstraint=eastwest;" parent="ZxXYfscIAA8OzIRm0PE7-105" vertex="1">
          <mxGeometry y="268" width="210" height="26" as="geometry" />
        </mxCell>
        <mxCell id="ZxXYfscIAA8OzIRm0PE7-111" value="+ name(): String" style="text;strokeColor=none;fillColor=none;align=left;verticalAlign=top;spacingLeft=4;spacingRight=4;overflow=hidden;rotatable=0;points=[[0,0.5],[1,0.5]];portConstraint=eastwest;" parent="ZxXYfscIAA8OzIRm0PE7-105" vertex="1">
          <mxGeometry y="294" width="210" height="26" as="geometry" />
        </mxCell>
        <mxCell id="ZxXYfscIAA8OzIRm0PE7-112" value="+ isOwnable(): boolean" style="text;strokeColor=none;fillColor=none;align=left;verticalAlign=top;spacingLeft=4;spacingRight=4;overflow=hidden;rotatable=0;points=[[0,0.5],[1,0.5]];portConstraint=eastwest;" parent="ZxXYfscIAA8OzIRm0PE7-105" vertex="1">
          <mxGeometry y="320" width="210" height="26" as="geometry" />
        </mxCell>
        <mxCell id="ZxXYfscIAA8OzIRm0PE7-113" value="+ isOwned(): boolean " style="text;strokeColor=none;fillColor=none;align=left;verticalAlign=top;spacingLeft=4;spacingRight=4;overflow=hidden;rotatable=0;points=[[0,0.5],[1,0.5]];portConstraint=eastwest;" parent="ZxXYfscIAA8OzIRm0PE7-105" vertex="1">
          <mxGeometry y="346" width="210" height="26" as="geometry" />
        </mxCell>
        <mxCell id="ZxXYfscIAA8OzIRm0PE7-114" value="+ cost(): int" style="text;strokeColor=none;fillColor=none;align=left;verticalAlign=top;spacingLeft=4;spacingRight=4;overflow=hidden;rotatable=0;points=[[0,0.5],[1,0.5]];portConstraint=eastwest;" parent="ZxXYfscIAA8OzIRm0PE7-105" vertex="1">
          <mxGeometry y="372" width="210" height="26" as="geometry" />
        </mxCell>
        <mxCell id="ZxXYfscIAA8OzIRm0PE7-115" value="+ purchase(player: monopoly.Player): void" style="text;strokeColor=none;fillColor=none;align=left;verticalAlign=top;spacingLeft=4;spacingRight=4;overflow=hidden;rotatable=0;points=[[0,0.5],[1,0.5]];portConstraint=eastwest;" parent="ZxXYfscIAA8OzIRm0PE7-105" vertex="1">
          <mxGeometry y="398" width="210" height="26" as="geometry" />
        </mxCell>
        <mxCell id="ZxXYfscIAA8OzIRm0PE7-116" value="+ rent(roll: int): int" style="text;strokeColor=none;fillColor=none;align=left;verticalAlign=top;spacingLeft=4;spacingRight=4;overflow=hidden;rotatable=0;points=[[0,0.5],[1,0.5]];portConstraint=eastwest;" parent="ZxXYfscIAA8OzIRm0PE7-105" vertex="1">
          <mxGeometry y="424" width="210" height="26" as="geometry" />
        </mxCell>
        <mxCell id="ZxXYfscIAA8OzIRm0PE7-117" value="+ owner(): monopoly.Player" style="text;strokeColor=none;fillColor=none;align=left;verticalAlign=top;spacingLeft=4;spacingRight=4;overflow=hidden;rotatable=0;points=[[0,0.5],[1,0.5]];portConstraint=eastwest;" parent="ZxXYfscIAA8OzIRm0PE7-105" vertex="1">
          <mxGeometry y="450" width="210" height="26" as="geometry" />
        </mxCell>
        <mxCell id="ZxXYfscIAA8OzIRm0PE7-138" value="+ setGroup(other: monopoly.Utility): void" style="text;strokeColor=none;fillColor=none;align=left;verticalAlign=top;spacingLeft=4;spacingRight=4;overflow=hidden;rotatable=0;points=[[0,0.5],[1,0.5]];portConstraint=eastwest;" parent="ZxXYfscIAA8OzIRm0PE7-105" vertex="1">
          <mxGeometry y="476" width="210" height="26" as="geometry" />
        </mxCell>
        <mxCell id="ZxXYfscIAA8OzIRm0PE7-139" value="monopoly.Taxes" style="swimlane;fontStyle=1;align=center;verticalAlign=top;childLayout=stackLayout;horizontal=1;startSize=26;horizontalStack=0;resizeParent=1;resizeParentMax=0;resizeLast=0;collapsible=1;marginBottom=0;" parent="1" vertex="1">
          <mxGeometry x="-20" y="871" width="210" height="372" as="geometry" />
        </mxCell>
        <mxCell id="ZxXYfscIAA8OzIRm0PE7-140" value="- position: int" style="text;strokeColor=none;fillColor=none;align=left;verticalAlign=top;spacingLeft=4;spacingRight=4;overflow=hidden;rotatable=0;points=[[0,0.5],[1,0.5]];portConstraint=eastwest;" parent="ZxXYfscIAA8OzIRm0PE7-139" vertex="1">
          <mxGeometry y="26" width="210" height="26" as="geometry" />
        </mxCell>
        <mxCell id="ZxXYfscIAA8OzIRm0PE7-152" value="- name: String" style="text;strokeColor=none;fillColor=none;align=left;verticalAlign=top;spacingLeft=4;spacingRight=4;overflow=hidden;rotatable=0;points=[[0,0.5],[1,0.5]];portConstraint=eastwest;" parent="ZxXYfscIAA8OzIRm0PE7-139" vertex="1">
          <mxGeometry y="52" width="210" height="26" as="geometry" />
        </mxCell>
        <mxCell id="ZxXYfscIAA8OzIRm0PE7-141" value="- tax: int" style="text;strokeColor=none;fillColor=none;align=left;verticalAlign=top;spacingLeft=4;spacingRight=4;overflow=hidden;rotatable=0;points=[[0,0.5],[1,0.5]];portConstraint=eastwest;" parent="ZxXYfscIAA8OzIRm0PE7-139" vertex="1">
          <mxGeometry y="78" width="210" height="26" as="geometry" />
        </mxCell>
        <mxCell id="ZxXYfscIAA8OzIRm0PE7-142" value="" style="line;strokeWidth=1;fillColor=none;align=left;verticalAlign=middle;spacingTop=-1;spacingLeft=3;spacingRight=3;rotatable=0;labelPosition=right;points=[];portConstraint=eastwest;" parent="ZxXYfscIAA8OzIRm0PE7-139" vertex="1">
          <mxGeometry y="104" width="210" height="8" as="geometry" />
        </mxCell>
        <mxCell id="ZxXYfscIAA8OzIRm0PE7-143" value="+ Tax(position: int, name: String)" style="text;strokeColor=none;fillColor=none;align=left;verticalAlign=top;spacingLeft=4;spacingRight=4;overflow=hidden;rotatable=0;points=[[0,0.5],[1,0.5]];portConstraint=eastwest;" parent="ZxXYfscIAA8OzIRm0PE7-139" vertex="1">
          <mxGeometry y="112" width="210" height="26" as="geometry" />
        </mxCell>
        <mxCell id="ZxXYfscIAA8OzIRm0PE7-144" value="+ position(): int" style="text;strokeColor=none;fillColor=none;align=left;verticalAlign=top;spacingLeft=4;spacingRight=4;overflow=hidden;rotatable=0;points=[[0,0.5],[1,0.5]];portConstraint=eastwest;" parent="ZxXYfscIAA8OzIRm0PE7-139" vertex="1">
          <mxGeometry y="138" width="210" height="26" as="geometry" />
        </mxCell>
        <mxCell id="ZxXYfscIAA8OzIRm0PE7-145" value="+ name(): String" style="text;strokeColor=none;fillColor=none;align=left;verticalAlign=top;spacingLeft=4;spacingRight=4;overflow=hidden;rotatable=0;points=[[0,0.5],[1,0.5]];portConstraint=eastwest;" parent="ZxXYfscIAA8OzIRm0PE7-139" vertex="1">
          <mxGeometry y="164" width="210" height="26" as="geometry" />
        </mxCell>
        <mxCell id="ZxXYfscIAA8OzIRm0PE7-146" value="+ isOwnable(): boolean" style="text;strokeColor=none;fillColor=none;align=left;verticalAlign=top;spacingLeft=4;spacingRight=4;overflow=hidden;rotatable=0;points=[[0,0.5],[1,0.5]];portConstraint=eastwest;" parent="ZxXYfscIAA8OzIRm0PE7-139" vertex="1">
          <mxGeometry y="190" width="210" height="26" as="geometry" />
        </mxCell>
        <mxCell id="ZxXYfscIAA8OzIRm0PE7-147" value="+ isOwned(): boolean " style="text;strokeColor=none;fillColor=none;align=left;verticalAlign=top;spacingLeft=4;spacingRight=4;overflow=hidden;rotatable=0;points=[[0,0.5],[1,0.5]];portConstraint=eastwest;" parent="ZxXYfscIAA8OzIRm0PE7-139" vertex="1">
          <mxGeometry y="216" width="210" height="26" as="geometry" />
        </mxCell>
        <mxCell id="ZxXYfscIAA8OzIRm0PE7-148" value="+ cost(): int" style="text;strokeColor=none;fillColor=none;align=left;verticalAlign=top;spacingLeft=4;spacingRight=4;overflow=hidden;rotatable=0;points=[[0,0.5],[1,0.5]];portConstraint=eastwest;" parent="ZxXYfscIAA8OzIRm0PE7-139" vertex="1">
          <mxGeometry y="242" width="210" height="26" as="geometry" />
        </mxCell>
        <mxCell id="ZxXYfscIAA8OzIRm0PE7-149" value="+ purchase(player: monopoly.Player): void" style="text;strokeColor=none;fillColor=none;align=left;verticalAlign=top;spacingLeft=4;spacingRight=4;overflow=hidden;rotatable=0;points=[[0,0.5],[1,0.5]];portConstraint=eastwest;" parent="ZxXYfscIAA8OzIRm0PE7-139" vertex="1">
          <mxGeometry y="268" width="210" height="26" as="geometry" />
        </mxCell>
        <mxCell id="ZxXYfscIAA8OzIRm0PE7-150" value="+ rent(value: int): int" style="text;strokeColor=none;fillColor=none;align=left;verticalAlign=top;spacingLeft=4;spacingRight=4;overflow=hidden;rotatable=0;points=[[0,0.5],[1,0.5]];portConstraint=eastwest;" parent="ZxXYfscIAA8OzIRm0PE7-139" vertex="1">
          <mxGeometry y="294" width="210" height="26" as="geometry" />
        </mxCell>
        <mxCell id="ZxXYfscIAA8OzIRm0PE7-151" value="+ owner(): monopoly.Player" style="text;strokeColor=none;fillColor=none;align=left;verticalAlign=top;spacingLeft=4;spacingRight=4;overflow=hidden;rotatable=0;points=[[0,0.5],[1,0.5]];portConstraint=eastwest;" parent="ZxXYfscIAA8OzIRm0PE7-139" vertex="1">
          <mxGeometry y="320" width="210" height="26" as="geometry" />
        </mxCell>
        <mxCell id="ZxXYfscIAA8OzIRm0PE7-153" value="+ getTax(): int" style="text;strokeColor=none;fillColor=none;align=left;verticalAlign=top;spacingLeft=4;spacingRight=4;overflow=hidden;rotatable=0;points=[[0,0.5],[1,0.5]];portConstraint=eastwest;" parent="ZxXYfscIAA8OzIRm0PE7-139" vertex="1">
          <mxGeometry y="346" width="210" height="26" as="geometry" />
        </mxCell>
        <mxCell id="ZxXYfscIAA8OzIRm0PE7-154" value="monopoly.Railroad" style="swimlane;fontStyle=1;align=center;verticalAlign=top;childLayout=stackLayout;horizontal=1;startSize=26;horizontalStack=0;resizeParent=1;resizeParentMax=0;resizeLast=0;collapsible=1;marginBottom=0;" parent="1" vertex="1">
          <mxGeometry x="-370" y="871" width="320" height="502" as="geometry" />
        </mxCell>
        <mxCell id="ZxXYfscIAA8OzIRm0PE7-155" value="- COST: int = 200" style="text;strokeColor=none;fillColor=none;align=left;verticalAlign=top;spacingLeft=4;spacingRight=4;overflow=hidden;rotatable=0;points=[[0,0.5],[1,0.5]];portConstraint=eastwest;" parent="ZxXYfscIAA8OzIRm0PE7-154" vertex="1">
          <mxGeometry y="26" width="320" height="26" as="geometry" />
        </mxCell>
        <mxCell id="ZxXYfscIAA8OzIRm0PE7-156" value="- position: int" style="text;strokeColor=none;fillColor=none;align=left;verticalAlign=top;spacingLeft=4;spacingRight=4;overflow=hidden;rotatable=0;points=[[0,0.5],[1,0.5]];portConstraint=eastwest;" parent="ZxXYfscIAA8OzIRm0PE7-154" vertex="1">
          <mxGeometry y="52" width="320" height="26" as="geometry" />
        </mxCell>
        <mxCell id="ZxXYfscIAA8OzIRm0PE7-157" value="- name: String" style="text;strokeColor=none;fillColor=none;align=left;verticalAlign=top;spacingLeft=4;spacingRight=4;overflow=hidden;rotatable=0;points=[[0,0.5],[1,0.5]];portConstraint=eastwest;" parent="ZxXYfscIAA8OzIRm0PE7-154" vertex="1">
          <mxGeometry y="78" width="320" height="26" as="geometry" />
        </mxCell>
        <mxCell id="ZxXYfscIAA8OzIRm0PE7-158" value="- others: monopoly.Railroad[]" style="text;strokeColor=none;fillColor=none;align=left;verticalAlign=top;spacingLeft=4;spacingRight=4;overflow=hidden;rotatable=0;points=[[0,0.5],[1,0.5]];portConstraint=eastwest;" parent="ZxXYfscIAA8OzIRm0PE7-154" vertex="1">
          <mxGeometry y="104" width="320" height="26" as="geometry" />
        </mxCell>
        <mxCell id="ZxXYfscIAA8OzIRm0PE7-159" value="- numOwned: int" style="text;strokeColor=none;fillColor=none;align=left;verticalAlign=top;spacingLeft=4;spacingRight=4;overflow=hidden;rotatable=0;points=[[0,0.5],[1,0.5]];portConstraint=eastwest;" parent="ZxXYfscIAA8OzIRm0PE7-154" vertex="1">
          <mxGeometry y="130" width="320" height="26" as="geometry" />
        </mxCell>
        <mxCell id="ZxXYfscIAA8OzIRm0PE7-160" value="- owner: monopoly.Player" style="text;strokeColor=none;fillColor=none;align=left;verticalAlign=top;spacingLeft=4;spacingRight=4;overflow=hidden;rotatable=0;points=[[0,0.5],[1,0.5]];portConstraint=eastwest;" parent="ZxXYfscIAA8OzIRm0PE7-154" vertex="1">
          <mxGeometry y="156" width="320" height="26" as="geometry" />
        </mxCell>
        <mxCell id="ZxXYfscIAA8OzIRm0PE7-161" value="- owned: boolean" style="text;strokeColor=none;fillColor=none;align=left;verticalAlign=top;spacingLeft=4;spacingRight=4;overflow=hidden;rotatable=0;points=[[0,0.5],[1,0.5]];portConstraint=eastwest;" parent="ZxXYfscIAA8OzIRm0PE7-154" vertex="1">
          <mxGeometry y="182" width="320" height="26" as="geometry" />
        </mxCell>
        <mxCell id="ZxXYfscIAA8OzIRm0PE7-163" value="" style="line;strokeWidth=1;fillColor=none;align=left;verticalAlign=middle;spacingTop=-1;spacingLeft=3;spacingRight=3;rotatable=0;labelPosition=right;points=[];portConstraint=eastwest;" parent="ZxXYfscIAA8OzIRm0PE7-154" vertex="1">
          <mxGeometry y="208" width="320" height="8" as="geometry" />
        </mxCell>
        <mxCell id="ZxXYfscIAA8OzIRm0PE7-164" value="+ monopoly.Railroad(position: int, name: String)" style="text;strokeColor=none;fillColor=none;align=left;verticalAlign=top;spacingLeft=4;spacingRight=4;overflow=hidden;rotatable=0;points=[[0,0.5],[1,0.5]];portConstraint=eastwest;" parent="ZxXYfscIAA8OzIRm0PE7-154" vertex="1">
          <mxGeometry y="216" width="320" height="26" as="geometry" />
        </mxCell>
        <mxCell id="ZxXYfscIAA8OzIRm0PE7-166" value="+ position(): int" style="text;strokeColor=none;fillColor=none;align=left;verticalAlign=top;spacingLeft=4;spacingRight=4;overflow=hidden;rotatable=0;points=[[0,0.5],[1,0.5]];portConstraint=eastwest;" parent="ZxXYfscIAA8OzIRm0PE7-154" vertex="1">
          <mxGeometry y="242" width="320" height="26" as="geometry" />
        </mxCell>
        <mxCell id="ZxXYfscIAA8OzIRm0PE7-167" value="+ name(): String" style="text;strokeColor=none;fillColor=none;align=left;verticalAlign=top;spacingLeft=4;spacingRight=4;overflow=hidden;rotatable=0;points=[[0,0.5],[1,0.5]];portConstraint=eastwest;" parent="ZxXYfscIAA8OzIRm0PE7-154" vertex="1">
          <mxGeometry y="268" width="320" height="26" as="geometry" />
        </mxCell>
        <mxCell id="ZxXYfscIAA8OzIRm0PE7-168" value="+ isOwnable(): boolean" style="text;strokeColor=none;fillColor=none;align=left;verticalAlign=top;spacingLeft=4;spacingRight=4;overflow=hidden;rotatable=0;points=[[0,0.5],[1,0.5]];portConstraint=eastwest;" parent="ZxXYfscIAA8OzIRm0PE7-154" vertex="1">
          <mxGeometry y="294" width="320" height="26" as="geometry" />
        </mxCell>
        <mxCell id="ZxXYfscIAA8OzIRm0PE7-169" value="+ isOwned(): boolean " style="text;strokeColor=none;fillColor=none;align=left;verticalAlign=top;spacingLeft=4;spacingRight=4;overflow=hidden;rotatable=0;points=[[0,0.5],[1,0.5]];portConstraint=eastwest;" parent="ZxXYfscIAA8OzIRm0PE7-154" vertex="1">
          <mxGeometry y="320" width="320" height="26" as="geometry" />
        </mxCell>
        <mxCell id="ZxXYfscIAA8OzIRm0PE7-170" value="+ cost(): int" style="text;strokeColor=none;fillColor=none;align=left;verticalAlign=top;spacingLeft=4;spacingRight=4;overflow=hidden;rotatable=0;points=[[0,0.5],[1,0.5]];portConstraint=eastwest;" parent="ZxXYfscIAA8OzIRm0PE7-154" vertex="1">
          <mxGeometry y="346" width="320" height="26" as="geometry" />
        </mxCell>
        <mxCell id="ZxXYfscIAA8OzIRm0PE7-171" value="+ purchase(player: monopoly.Player): void" style="text;strokeColor=none;fillColor=none;align=left;verticalAlign=top;spacingLeft=4;spacingRight=4;overflow=hidden;rotatable=0;points=[[0,0.5],[1,0.5]];portConstraint=eastwest;" parent="ZxXYfscIAA8OzIRm0PE7-154" vertex="1">
          <mxGeometry y="372" width="320" height="26" as="geometry" />
        </mxCell>
        <mxCell id="ZxXYfscIAA8OzIRm0PE7-172" value="+ rent(value: int): int" style="text;strokeColor=none;fillColor=none;align=left;verticalAlign=top;spacingLeft=4;spacingRight=4;overflow=hidden;rotatable=0;points=[[0,0.5],[1,0.5]];portConstraint=eastwest;" parent="ZxXYfscIAA8OzIRm0PE7-154" vertex="1">
          <mxGeometry y="398" width="320" height="26" as="geometry" />
        </mxCell>
        <mxCell id="ZxXYfscIAA8OzIRm0PE7-173" value="+ owner(): monopoly.Player" style="text;strokeColor=none;fillColor=none;align=left;verticalAlign=top;spacingLeft=4;spacingRight=4;overflow=hidden;rotatable=0;points=[[0,0.5],[1,0.5]];portConstraint=eastwest;" parent="ZxXYfscIAA8OzIRm0PE7-154" vertex="1">
          <mxGeometry y="424" width="320" height="26" as="geometry" />
        </mxCell>
        <mxCell id="ZxXYfscIAA8OzIRm0PE7-165" value="+ setGroup(a: monopoly.Railroad, b: monopoly.Railroad, c: monopoly.Railroad): void" style="text;strokeColor=none;fillColor=none;align=left;verticalAlign=top;spacingLeft=4;spacingRight=4;overflow=hidden;rotatable=0;points=[[0,0.5],[1,0.5]];portConstraint=eastwest;" parent="ZxXYfscIAA8OzIRm0PE7-154" vertex="1">
          <mxGeometry y="450" width="320" height="26" as="geometry" />
        </mxCell>
        <mxCell id="ZxXYfscIAA8OzIRm0PE7-175" value="+ updateOwners(): void" style="text;strokeColor=none;fillColor=none;align=left;verticalAlign=top;spacingLeft=4;spacingRight=4;overflow=hidden;rotatable=0;points=[[0,0.5],[1,0.5]];portConstraint=eastwest;" parent="ZxXYfscIAA8OzIRm0PE7-154" vertex="1">
          <mxGeometry y="476" width="320" height="26" as="geometry" />
        </mxCell>
        <mxCell id="ZxXYfscIAA8OzIRm0PE7-176" value="monopoly.Jail" style="swimlane;fontStyle=1;align=center;verticalAlign=top;childLayout=stackLayout;horizontal=1;startSize=26;horizontalStack=0;resizeParent=1;resizeParentMax=0;resizeLast=0;collapsible=1;marginBottom=0;" parent="1" vertex="1">
          <mxGeometry x="-900" y="871" width="260" height="372" as="geometry" />
        </mxCell>
        <mxCell id="ZxXYfscIAA8OzIRm0PE7-177" value="- position: int" style="text;strokeColor=none;fillColor=none;align=left;verticalAlign=top;spacingLeft=4;spacingRight=4;overflow=hidden;rotatable=0;points=[[0,0.5],[1,0.5]];portConstraint=eastwest;" parent="ZxXYfscIAA8OzIRm0PE7-176" vertex="1">
          <mxGeometry y="26" width="260" height="26" as="geometry" />
        </mxCell>
        <mxCell id="ZxXYfscIAA8OzIRm0PE7-189" value="- name: String" style="text;strokeColor=none;fillColor=none;align=left;verticalAlign=top;spacingLeft=4;spacingRight=4;overflow=hidden;rotatable=0;points=[[0,0.5],[1,0.5]];portConstraint=eastwest;" parent="ZxXYfscIAA8OzIRm0PE7-176" vertex="1">
          <mxGeometry y="52" width="260" height="26" as="geometry" />
        </mxCell>
        <mxCell id="ZxXYfscIAA8OzIRm0PE7-178" value="- type: JailType" style="text;strokeColor=none;fillColor=none;align=left;verticalAlign=top;spacingLeft=4;spacingRight=4;overflow=hidden;rotatable=0;points=[[0,0.5],[1,0.5]];portConstraint=eastwest;" parent="ZxXYfscIAA8OzIRm0PE7-176" vertex="1">
          <mxGeometry y="78" width="260" height="26" as="geometry" />
        </mxCell>
        <mxCell id="ZxXYfscIAA8OzIRm0PE7-179" value="" style="line;strokeWidth=1;fillColor=none;align=left;verticalAlign=middle;spacingTop=-1;spacingLeft=3;spacingRight=3;rotatable=0;labelPosition=right;points=[];portConstraint=eastwest;" parent="ZxXYfscIAA8OzIRm0PE7-176" vertex="1">
          <mxGeometry y="104" width="260" height="8" as="geometry" />
        </mxCell>
        <mxCell id="ZxXYfscIAA8OzIRm0PE7-180" value="+ monopoly.Jail(position: int, name: String, type JailType)" style="text;strokeColor=none;fillColor=none;align=left;verticalAlign=top;spacingLeft=4;spacingRight=4;overflow=hidden;rotatable=0;points=[[0,0.5],[1,0.5]];portConstraint=eastwest;" parent="ZxXYfscIAA8OzIRm0PE7-176" vertex="1">
          <mxGeometry y="112" width="260" height="26" as="geometry" />
        </mxCell>
        <mxCell id="ZxXYfscIAA8OzIRm0PE7-181" value="+ position(): int" style="text;strokeColor=none;fillColor=none;align=left;verticalAlign=top;spacingLeft=4;spacingRight=4;overflow=hidden;rotatable=0;points=[[0,0.5],[1,0.5]];portConstraint=eastwest;" parent="ZxXYfscIAA8OzIRm0PE7-176" vertex="1">
          <mxGeometry y="138" width="260" height="26" as="geometry" />
        </mxCell>
        <mxCell id="ZxXYfscIAA8OzIRm0PE7-182" value="+ name(): String" style="text;strokeColor=none;fillColor=none;align=left;verticalAlign=top;spacingLeft=4;spacingRight=4;overflow=hidden;rotatable=0;points=[[0,0.5],[1,0.5]];portConstraint=eastwest;" parent="ZxXYfscIAA8OzIRm0PE7-176" vertex="1">
          <mxGeometry y="164" width="260" height="26" as="geometry" />
        </mxCell>
        <mxCell id="ZxXYfscIAA8OzIRm0PE7-183" value="+ isOwnable(): boolean" style="text;strokeColor=none;fillColor=none;align=left;verticalAlign=top;spacingLeft=4;spacingRight=4;overflow=hidden;rotatable=0;points=[[0,0.5],[1,0.5]];portConstraint=eastwest;" parent="ZxXYfscIAA8OzIRm0PE7-176" vertex="1">
          <mxGeometry y="190" width="260" height="26" as="geometry" />
        </mxCell>
        <mxCell id="ZxXYfscIAA8OzIRm0PE7-184" value="+ isOwned(): boolean " style="text;strokeColor=none;fillColor=none;align=left;verticalAlign=top;spacingLeft=4;spacingRight=4;overflow=hidden;rotatable=0;points=[[0,0.5],[1,0.5]];portConstraint=eastwest;" parent="ZxXYfscIAA8OzIRm0PE7-176" vertex="1">
          <mxGeometry y="216" width="260" height="26" as="geometry" />
        </mxCell>
        <mxCell id="ZxXYfscIAA8OzIRm0PE7-185" value="+ cost(): int" style="text;strokeColor=none;fillColor=none;align=left;verticalAlign=top;spacingLeft=4;spacingRight=4;overflow=hidden;rotatable=0;points=[[0,0.5],[1,0.5]];portConstraint=eastwest;" parent="ZxXYfscIAA8OzIRm0PE7-176" vertex="1">
          <mxGeometry y="242" width="260" height="26" as="geometry" />
        </mxCell>
        <mxCell id="ZxXYfscIAA8OzIRm0PE7-186" value="+ purchase(player: monopoly.Player): void" style="text;strokeColor=none;fillColor=none;align=left;verticalAlign=top;spacingLeft=4;spacingRight=4;overflow=hidden;rotatable=0;points=[[0,0.5],[1,0.5]];portConstraint=eastwest;" parent="ZxXYfscIAA8OzIRm0PE7-176" vertex="1">
          <mxGeometry y="268" width="260" height="26" as="geometry" />
        </mxCell>
        <mxCell id="ZxXYfscIAA8OzIRm0PE7-187" value="+ rent(value: int): int" style="text;strokeColor=none;fillColor=none;align=left;verticalAlign=top;spacingLeft=4;spacingRight=4;overflow=hidden;rotatable=0;points=[[0,0.5],[1,0.5]];portConstraint=eastwest;" parent="ZxXYfscIAA8OzIRm0PE7-176" vertex="1">
          <mxGeometry y="294" width="260" height="26" as="geometry" />
        </mxCell>
        <mxCell id="ZxXYfscIAA8OzIRm0PE7-190" value="+ owner(): monopoly.Player" style="text;strokeColor=none;fillColor=none;align=left;verticalAlign=top;spacingLeft=4;spacingRight=4;overflow=hidden;rotatable=0;points=[[0,0.5],[1,0.5]];portConstraint=eastwest;" parent="ZxXYfscIAA8OzIRm0PE7-176" vertex="1">
          <mxGeometry y="320" width="260" height="26" as="geometry" />
        </mxCell>
        <mxCell id="ZxXYfscIAA8OzIRm0PE7-188" value="+ JailType: enum" style="text;strokeColor=none;fillColor=none;align=left;verticalAlign=top;spacingLeft=4;spacingRight=4;overflow=hidden;rotatable=0;points=[[0,0.5],[1,0.5]];portConstraint=eastwest;" parent="ZxXYfscIAA8OzIRm0PE7-176" vertex="1">
          <mxGeometry y="346" width="260" height="26" as="geometry" />
        </mxCell>
        <mxCell id="ZxXYfscIAA8OzIRm0PE7-197" value="" style="endArrow=none;dashed=1;html=1;rounded=0;exitX=0.5;exitY=0;exitDx=0;exitDy=0;" parent="1" source="ZxXYfscIAA8OzIRm0PE7-176" edge="1">
          <mxGeometry width="50" height="50" relative="1" as="geometry">
            <mxPoint x="-770" y="859.13" as="sourcePoint" />
            <mxPoint x="-350" y="811" as="targetPoint" />
          </mxGeometry>
        </mxCell>
        <mxCell id="ZxXYfscIAA8OzIRm0PE7-198" value="" style="endArrow=none;dashed=1;html=1;rounded=0;exitX=0.5;exitY=0;exitDx=0;exitDy=0;" parent="1" source="ZxXYfscIAA8OzIRm0PE7-105" edge="1">
          <mxGeometry width="50" height="50" relative="1" as="geometry">
            <mxPoint x="-500" y="861" as="sourcePoint" />
            <mxPoint x="-350" y="811" as="targetPoint" />
          </mxGeometry>
        </mxCell>
        <mxCell id="ZxXYfscIAA8OzIRm0PE7-199" value="" style="endArrow=none;dashed=1;html=1;rounded=0;exitX=0.5;exitY=0;exitDx=0;exitDy=0;" parent="1" source="ZxXYfscIAA8OzIRm0PE7-154" edge="1">
          <mxGeometry width="50" height="50" relative="1" as="geometry">
            <mxPoint x="-230" y="841" as="sourcePoint" />
            <mxPoint x="-350" y="811" as="targetPoint" />
          </mxGeometry>
        </mxCell>
        <mxCell id="ZxXYfscIAA8OzIRm0PE7-200" value="" style="endArrow=none;dashed=1;html=1;rounded=0;exitX=0.5;exitY=0;exitDx=0;exitDy=0;" parent="1" source="ZxXYfscIAA8OzIRm0PE7-139" edge="1">
          <mxGeometry width="50" height="50" relative="1" as="geometry">
            <mxPoint x="-30" y="851" as="sourcePoint" />
            <mxPoint x="-350" y="811" as="targetPoint" />
          </mxGeometry>
        </mxCell>
        <mxCell id="ZxXYfscIAA8OzIRm0PE7-201" value="" style="endArrow=none;dashed=1;html=1;rounded=0;exitX=0.5;exitY=0;exitDx=0;exitDy=0;" parent="1" source="ZxXYfscIAA8OzIRm0PE7-90" edge="1">
          <mxGeometry width="50" height="50" relative="1" as="geometry">
            <mxPoint x="-760" y="881" as="sourcePoint" />
            <mxPoint x="-350" y="811" as="targetPoint" />
          </mxGeometry>
        </mxCell>
        <mxCell id="ZxXYfscIAA8OzIRm0PE7-202" value="monopoly.Property" style="swimlane;fontStyle=1;align=center;verticalAlign=top;childLayout=stackLayout;horizontal=1;startSize=26;horizontalStack=0;resizeParent=1;resizeParentMax=0;resizeLast=0;collapsible=1;marginBottom=0;" parent="1" vertex="1">
          <mxGeometry x="220" y="871" width="340" height="870" as="geometry" />
        </mxCell>
        <mxCell id="ZxXYfscIAA8OzIRm0PE7-203" value="- rent: int" style="text;strokeColor=none;fillColor=none;align=left;verticalAlign=top;spacingLeft=4;spacingRight=4;overflow=hidden;rotatable=0;points=[[0,0.5],[1,0.5]];portConstraint=eastwest;" parent="ZxXYfscIAA8OzIRm0PE7-202" vertex="1">
          <mxGeometry y="26" width="340" height="26" as="geometry" />
        </mxCell>
        <mxCell id="ZxXYfscIAA8OzIRm0PE7-222" value="- oneHouse: int" style="text;strokeColor=none;fillColor=none;align=left;verticalAlign=top;spacingLeft=4;spacingRight=4;overflow=hidden;rotatable=0;points=[[0,0.5],[1,0.5]];portConstraint=eastwest;" parent="ZxXYfscIAA8OzIRm0PE7-202" vertex="1">
          <mxGeometry y="52" width="340" height="26" as="geometry" />
        </mxCell>
        <mxCell id="ZxXYfscIAA8OzIRm0PE7-227" value="- twoHouse: int" style="text;strokeColor=none;fillColor=none;align=left;verticalAlign=top;spacingLeft=4;spacingRight=4;overflow=hidden;rotatable=0;points=[[0,0.5],[1,0.5]];portConstraint=eastwest;" parent="ZxXYfscIAA8OzIRm0PE7-202" vertex="1">
          <mxGeometry y="78" width="340" height="26" as="geometry" />
        </mxCell>
        <mxCell id="ZxXYfscIAA8OzIRm0PE7-228" value="- threeHouse: int" style="text;strokeColor=none;fillColor=none;align=left;verticalAlign=top;spacingLeft=4;spacingRight=4;overflow=hidden;rotatable=0;points=[[0,0.5],[1,0.5]];portConstraint=eastwest;" parent="ZxXYfscIAA8OzIRm0PE7-202" vertex="1">
          <mxGeometry y="104" width="340" height="26" as="geometry" />
        </mxCell>
        <mxCell id="ZxXYfscIAA8OzIRm0PE7-229" value="- fourHouse: int" style="text;strokeColor=none;fillColor=none;align=left;verticalAlign=top;spacingLeft=4;spacingRight=4;overflow=hidden;rotatable=0;points=[[0,0.5],[1,0.5]];portConstraint=eastwest;" parent="ZxXYfscIAA8OzIRm0PE7-202" vertex="1">
          <mxGeometry y="130" width="340" height="26" as="geometry" />
        </mxCell>
        <mxCell id="ZxXYfscIAA8OzIRm0PE7-230" value="- hotel: int" style="text;strokeColor=none;fillColor=none;align=left;verticalAlign=top;spacingLeft=4;spacingRight=4;overflow=hidden;rotatable=0;points=[[0,0.5],[1,0.5]];portConstraint=eastwest;" parent="ZxXYfscIAA8OzIRm0PE7-202" vertex="1">
          <mxGeometry y="156" width="340" height="26" as="geometry" />
        </mxCell>
        <mxCell id="ZxXYfscIAA8OzIRm0PE7-204" value="- position: int" style="text;strokeColor=none;fillColor=none;align=left;verticalAlign=top;spacingLeft=4;spacingRight=4;overflow=hidden;rotatable=0;points=[[0,0.5],[1,0.5]];portConstraint=eastwest;" parent="ZxXYfscIAA8OzIRm0PE7-202" vertex="1">
          <mxGeometry y="182" width="340" height="26" as="geometry" />
        </mxCell>
        <mxCell id="ZxXYfscIAA8OzIRm0PE7-205" value="- name: String" style="text;strokeColor=none;fillColor=none;align=left;verticalAlign=top;spacingLeft=4;spacingRight=4;overflow=hidden;rotatable=0;points=[[0,0.5],[1,0.5]];portConstraint=eastwest;" parent="ZxXYfscIAA8OzIRm0PE7-202" vertex="1">
          <mxGeometry y="208" width="340" height="26" as="geometry" />
        </mxCell>
        <mxCell id="ZxXYfscIAA8OzIRm0PE7-224" value="- owner: monopoly.Player" style="text;strokeColor=none;fillColor=none;align=left;verticalAlign=top;spacingLeft=4;spacingRight=4;overflow=hidden;rotatable=0;points=[[0,0.5],[1,0.5]];portConstraint=eastwest;" parent="ZxXYfscIAA8OzIRm0PE7-202" vertex="1">
          <mxGeometry y="234" width="340" height="26" as="geometry" />
        </mxCell>
        <mxCell id="ZxXYfscIAA8OzIRm0PE7-226" value="- owned: boolean" style="text;strokeColor=none;fillColor=none;align=left;verticalAlign=top;spacingLeft=4;spacingRight=4;overflow=hidden;rotatable=0;points=[[0,0.5],[1,0.5]];portConstraint=eastwest;" parent="ZxXYfscIAA8OzIRm0PE7-202" vertex="1">
          <mxGeometry y="260" width="340" height="26" as="geometry" />
        </mxCell>
        <mxCell id="W2CjeTMU-L_zSGK_U1bE-1" value="- others: monopoly.Property[]" style="text;strokeColor=none;fillColor=none;align=left;verticalAlign=top;spacingLeft=4;spacingRight=4;overflow=hidden;rotatable=0;points=[[0,0.5],[1,0.5]];portConstraint=eastwest;" parent="ZxXYfscIAA8OzIRm0PE7-202" vertex="1">
          <mxGeometry y="286" width="340" height="26" as="geometry" />
        </mxCell>
        <mxCell id="ZxXYfscIAA8OzIRm0PE7-225" value="- propertyCost: int" style="text;strokeColor=none;fillColor=none;align=left;verticalAlign=top;spacingLeft=4;spacingRight=4;overflow=hidden;rotatable=0;points=[[0,0.5],[1,0.5]];portConstraint=eastwest;" parent="ZxXYfscIAA8OzIRm0PE7-202" vertex="1">
          <mxGeometry y="312" width="340" height="26" as="geometry" />
        </mxCell>
        <mxCell id="ZxXYfscIAA8OzIRm0PE7-223" value="- houseCost: int" style="text;strokeColor=none;fillColor=none;align=left;verticalAlign=top;spacingLeft=4;spacingRight=4;overflow=hidden;rotatable=0;points=[[0,0.5],[1,0.5]];portConstraint=eastwest;" parent="ZxXYfscIAA8OzIRm0PE7-202" vertex="1">
          <mxGeometry y="338" width="340" height="26" as="geometry" />
        </mxCell>
        <mxCell id="ZxXYfscIAA8OzIRm0PE7-208" value="- buildings: int" style="text;strokeColor=none;fillColor=none;align=left;verticalAlign=top;spacingLeft=4;spacingRight=4;overflow=hidden;rotatable=0;points=[[0,0.5],[1,0.5]];portConstraint=eastwest;" parent="ZxXYfscIAA8OzIRm0PE7-202" vertex="1">
          <mxGeometry y="364" width="340" height="26" as="geometry" />
        </mxCell>
        <mxCell id="ZxXYfscIAA8OzIRm0PE7-209" value="- monopoly: boolean" style="text;strokeColor=none;fillColor=none;align=left;verticalAlign=top;spacingLeft=4;spacingRight=4;overflow=hidden;rotatable=0;points=[[0,0.5],[1,0.5]];portConstraint=eastwest;" parent="ZxXYfscIAA8OzIRm0PE7-202" vertex="1">
          <mxGeometry y="390" width="340" height="26" as="geometry" />
        </mxCell>
        <mxCell id="ZxXYfscIAA8OzIRm0PE7-210" value="" style="line;strokeWidth=1;fillColor=none;align=left;verticalAlign=middle;spacingTop=-1;spacingLeft=3;spacingRight=3;rotatable=0;labelPosition=right;points=[];portConstraint=eastwest;" parent="ZxXYfscIAA8OzIRm0PE7-202" vertex="1">
          <mxGeometry y="416" width="340" height="8" as="geometry" />
        </mxCell>
        <mxCell id="ZxXYfscIAA8OzIRm0PE7-211" value="+ monopoly.Property(position: int, name: String, rent: int, &#xa;    oneHouse: int, twoHouse: int, threeHouse: int, &#xa;    fourHouse: int, hotel: int, propertyCost: int, houseCost: int)" style="text;strokeColor=none;fillColor=none;align=left;verticalAlign=top;spacingLeft=4;spacingRight=4;overflow=hidden;rotatable=0;points=[[0,0.5],[1,0.5]];portConstraint=eastwest;" parent="ZxXYfscIAA8OzIRm0PE7-202" vertex="1">
          <mxGeometry y="424" width="340" height="56" as="geometry" />
        </mxCell>
        <mxCell id="ZxXYfscIAA8OzIRm0PE7-212" value="+ position(): int" style="text;strokeColor=none;fillColor=none;align=left;verticalAlign=top;spacingLeft=4;spacingRight=4;overflow=hidden;rotatable=0;points=[[0,0.5],[1,0.5]];portConstraint=eastwest;" parent="ZxXYfscIAA8OzIRm0PE7-202" vertex="1">
          <mxGeometry y="480" width="340" height="26" as="geometry" />
        </mxCell>
        <mxCell id="ZxXYfscIAA8OzIRm0PE7-213" value="+ name(): String" style="text;strokeColor=none;fillColor=none;align=left;verticalAlign=top;spacingLeft=4;spacingRight=4;overflow=hidden;rotatable=0;points=[[0,0.5],[1,0.5]];portConstraint=eastwest;" parent="ZxXYfscIAA8OzIRm0PE7-202" vertex="1">
          <mxGeometry y="506" width="340" height="26" as="geometry" />
        </mxCell>
        <mxCell id="ZxXYfscIAA8OzIRm0PE7-214" value="+ isOwnable(): boolean" style="text;strokeColor=none;fillColor=none;align=left;verticalAlign=top;spacingLeft=4;spacingRight=4;overflow=hidden;rotatable=0;points=[[0,0.5],[1,0.5]];portConstraint=eastwest;" parent="ZxXYfscIAA8OzIRm0PE7-202" vertex="1">
          <mxGeometry y="532" width="340" height="26" as="geometry" />
        </mxCell>
        <mxCell id="ZxXYfscIAA8OzIRm0PE7-215" value="+ isOwned(): boolean " style="text;strokeColor=none;fillColor=none;align=left;verticalAlign=top;spacingLeft=4;spacingRight=4;overflow=hidden;rotatable=0;points=[[0,0.5],[1,0.5]];portConstraint=eastwest;" parent="ZxXYfscIAA8OzIRm0PE7-202" vertex="1">
          <mxGeometry y="558" width="340" height="26" as="geometry" />
        </mxCell>
        <mxCell id="ZxXYfscIAA8OzIRm0PE7-216" value="+ cost(): int" style="text;strokeColor=none;fillColor=none;align=left;verticalAlign=top;spacingLeft=4;spacingRight=4;overflow=hidden;rotatable=0;points=[[0,0.5],[1,0.5]];portConstraint=eastwest;" parent="ZxXYfscIAA8OzIRm0PE7-202" vertex="1">
          <mxGeometry y="584" width="340" height="26" as="geometry" />
        </mxCell>
        <mxCell id="ZxXYfscIAA8OzIRm0PE7-217" value="+ purchase(player: monopoly.Player): void" style="text;strokeColor=none;fillColor=none;align=left;verticalAlign=top;spacingLeft=4;spacingRight=4;overflow=hidden;rotatable=0;points=[[0,0.5],[1,0.5]];portConstraint=eastwest;" parent="ZxXYfscIAA8OzIRm0PE7-202" vertex="1">
          <mxGeometry y="610" width="340" height="26" as="geometry" />
        </mxCell>
        <mxCell id="ZxXYfscIAA8OzIRm0PE7-218" value="+ rent(value: int): int" style="text;strokeColor=none;fillColor=none;align=left;verticalAlign=top;spacingLeft=4;spacingRight=4;overflow=hidden;rotatable=0;points=[[0,0.5],[1,0.5]];portConstraint=eastwest;" parent="ZxXYfscIAA8OzIRm0PE7-202" vertex="1">
          <mxGeometry y="636" width="340" height="26" as="geometry" />
        </mxCell>
        <mxCell id="ZxXYfscIAA8OzIRm0PE7-219" value="+ owner(): monopoly.Player" style="text;strokeColor=none;fillColor=none;align=left;verticalAlign=top;spacingLeft=4;spacingRight=4;overflow=hidden;rotatable=0;points=[[0,0.5],[1,0.5]];portConstraint=eastwest;" parent="ZxXYfscIAA8OzIRm0PE7-202" vertex="1">
          <mxGeometry y="662" width="340" height="26" as="geometry" />
        </mxCell>
        <mxCell id="ZxXYfscIAA8OzIRm0PE7-220" value="+ isMonopoly(): boolean" style="text;strokeColor=none;fillColor=none;align=left;verticalAlign=top;spacingLeft=4;spacingRight=4;overflow=hidden;rotatable=0;points=[[0,0.5],[1,0.5]];portConstraint=eastwest;" parent="ZxXYfscIAA8OzIRm0PE7-202" vertex="1">
          <mxGeometry y="688" width="340" height="26" as="geometry" />
        </mxCell>
        <mxCell id="W2CjeTMU-L_zSGK_U1bE-2" value="+ setMonopoly(): boolean" style="text;strokeColor=none;fillColor=none;align=left;verticalAlign=top;spacingLeft=4;spacingRight=4;overflow=hidden;rotatable=0;points=[[0,0.5],[1,0.5]];portConstraint=eastwest;" parent="ZxXYfscIAA8OzIRm0PE7-202" vertex="1">
          <mxGeometry y="714" width="340" height="26" as="geometry" />
        </mxCell>
        <mxCell id="W2CjeTMU-L_zSGK_U1bE-3" value="+ breakMonopoly(): boolean" style="text;strokeColor=none;fillColor=none;align=left;verticalAlign=top;spacingLeft=4;spacingRight=4;overflow=hidden;rotatable=0;points=[[0,0.5],[1,0.5]];portConstraint=eastwest;" parent="ZxXYfscIAA8OzIRm0PE7-202" vertex="1">
          <mxGeometry y="740" width="340" height="26" as="geometry" />
        </mxCell>
        <mxCell id="W2CjeTMU-L_zSGK_U1bE-4" value="+ updateMonopoly(player: monopoly.Player): void" style="text;strokeColor=none;fillColor=none;align=left;verticalAlign=top;spacingLeft=4;spacingRight=4;overflow=hidden;rotatable=0;points=[[0,0.5],[1,0.5]];portConstraint=eastwest;" parent="ZxXYfscIAA8OzIRm0PE7-202" vertex="1">
          <mxGeometry y="766" width="340" height="26" as="geometry" />
        </mxCell>
        <mxCell id="ZxXYfscIAA8OzIRm0PE7-232" value="+ getHouseCost(): int" style="text;strokeColor=none;fillColor=none;align=left;verticalAlign=top;spacingLeft=4;spacingRight=4;overflow=hidden;rotatable=0;points=[[0,0.5],[1,0.5]];portConstraint=eastwest;" parent="ZxXYfscIAA8OzIRm0PE7-202" vertex="1">
          <mxGeometry y="792" width="340" height="26" as="geometry" />
        </mxCell>
        <mxCell id="ZxXYfscIAA8OzIRm0PE7-221" value="+ setGroup(propertyA: monopoly.Property): void" style="text;strokeColor=none;fillColor=none;align=left;verticalAlign=top;spacingLeft=4;spacingRight=4;overflow=hidden;rotatable=0;points=[[0,0.5],[1,0.5]];portConstraint=eastwest;" parent="ZxXYfscIAA8OzIRm0PE7-202" vertex="1">
          <mxGeometry y="818" width="340" height="26" as="geometry" />
        </mxCell>
        <mxCell id="W2CjeTMU-L_zSGK_U1bE-5" value="+ setGroup(propertyA: monopoly.Property, propertyB: monopoly.Property): void" style="text;strokeColor=none;fillColor=none;align=left;verticalAlign=top;spacingLeft=4;spacingRight=4;overflow=hidden;rotatable=0;points=[[0,0.5],[1,0.5]];portConstraint=eastwest;" parent="ZxXYfscIAA8OzIRm0PE7-202" vertex="1">
          <mxGeometry y="844" width="340" height="26" as="geometry" />
        </mxCell>
        <mxCell id="ZxXYfscIAA8OzIRm0PE7-231" value="" style="endArrow=none;dashed=1;html=1;rounded=0;exitX=0.5;exitY=0;exitDx=0;exitDy=0;" parent="1" source="ZxXYfscIAA8OzIRm0PE7-202" edge="1">
          <mxGeometry width="50" height="50" relative="1" as="geometry">
            <mxPoint x="125" y="861" as="sourcePoint" />
            <mxPoint x="-350" y="811" as="targetPoint" />
          </mxGeometry>
        </mxCell>
        <mxCell id="KdBzGCH8AwDXqr2-iXCs-7" value="Roll" style="swimlane;fontStyle=1;align=center;verticalAlign=top;childLayout=stackLayout;horizontal=1;startSize=26;horizontalStack=0;resizeParent=1;resizeParentMax=0;resizeLast=0;collapsible=1;marginBottom=0;" parent="1" vertex="1">
          <mxGeometry x="-2750" y="838" width="200" height="138" as="geometry" />
        </mxCell>
        <mxCell id="KdBzGCH8AwDXqr2-iXCs-8" value="+ dieValue1: int" style="text;strokeColor=none;fillColor=none;align=left;verticalAlign=top;spacingLeft=4;spacingRight=4;overflow=hidden;rotatable=0;points=[[0,0.5],[1,0.5]];portConstraint=eastwest;" parent="KdBzGCH8AwDXqr2-iXCs-7" vertex="1">
          <mxGeometry y="26" width="200" height="26" as="geometry" />
        </mxCell>
        <mxCell id="KdBzGCH8AwDXqr2-iXCs-9" value="+ dieValue2: int" style="text;strokeColor=none;fillColor=none;align=left;verticalAlign=top;spacingLeft=4;spacingRight=4;overflow=hidden;rotatable=0;points=[[0,0.5],[1,0.5]];portConstraint=eastwest;" parent="KdBzGCH8AwDXqr2-iXCs-7" vertex="1">
          <mxGeometry y="52" width="200" height="26" as="geometry" />
        </mxCell>
        <mxCell id="KdBzGCH8AwDXqr2-iXCs-15" value="+ value: int" style="text;strokeColor=none;fillColor=none;align=left;verticalAlign=top;spacingLeft=4;spacingRight=4;overflow=hidden;rotatable=0;points=[[0,0.5],[1,0.5]];portConstraint=eastwest;" parent="KdBzGCH8AwDXqr2-iXCs-7" vertex="1">
          <mxGeometry y="78" width="200" height="26" as="geometry" />
        </mxCell>
        <mxCell id="KdBzGCH8AwDXqr2-iXCs-16" value="+ isDouble: boolean" style="text;strokeColor=none;fillColor=none;align=left;verticalAlign=top;spacingLeft=4;spacingRight=4;overflow=hidden;rotatable=0;points=[[0,0.5],[1,0.5]];portConstraint=eastwest;" parent="KdBzGCH8AwDXqr2-iXCs-7" vertex="1">
          <mxGeometry y="104" width="200" height="26" as="geometry" />
        </mxCell>
        <mxCell id="KdBzGCH8AwDXqr2-iXCs-10" value="" style="line;strokeWidth=1;fillColor=none;align=left;verticalAlign=middle;spacingTop=-1;spacingLeft=3;spacingRight=3;rotatable=0;labelPosition=right;points=[];portConstraint=eastwest;" parent="KdBzGCH8AwDXqr2-iXCs-7" vertex="1">
          <mxGeometry y="130" width="200" height="8" as="geometry" />
        </mxCell>
        <mxCell id="KdBzGCH8AwDXqr2-iXCs-21" value="" style="endArrow=open;endFill=1;endSize=12;html=1;rounded=0;" parent="1" source="ZxXYfscIAA8OzIRm0PE7-42" target="KdBzGCH8AwDXqr2-iXCs-7" edge="1">
          <mxGeometry width="160" relative="1" as="geometry">
            <mxPoint x="-2300" y="1060" as="sourcePoint" />
            <mxPoint x="-2710" y="1010" as="targetPoint" />
            <Array as="points">
              <mxPoint x="-2650" y="1119" />
            </Array>
          </mxGeometry>
        </mxCell>
        <mxCell id="KdBzGCH8AwDXqr2-iXCs-22" value="uses" style="text;html=1;align=center;verticalAlign=middle;resizable=0;points=[];autosize=1;strokeColor=none;fillColor=none;" parent="1" vertex="1">
          <mxGeometry x="-2590" y="1098" width="40" height="20" as="geometry" />
        </mxCell>
        <mxCell id="KdBzGCH8AwDXqr2-iXCs-50" value="&lt;&lt;enumeration&gt;&gt;&#xa;JailType" style="swimlane;fontStyle=1;childLayout=stackLayout;horizontal=1;startSize=40;fillColor=none;horizontalStack=0;resizeParent=1;resizeParentMax=0;resizeLast=0;collapsible=1;marginBottom=0;" parent="1" vertex="1">
          <mxGeometry x="-840" y="1321" width="140" height="118" as="geometry" />
        </mxCell>
        <mxCell id="KdBzGCH8AwDXqr2-iXCs-51" value="JUST_VISITING" style="text;strokeColor=none;fillColor=none;align=left;verticalAlign=top;spacingLeft=4;spacingRight=4;overflow=hidden;rotatable=0;points=[[0,0.5],[1,0.5]];portConstraint=eastwest;" parent="KdBzGCH8AwDXqr2-iXCs-50" vertex="1">
          <mxGeometry y="40" width="140" height="26" as="geometry" />
        </mxCell>
        <mxCell id="KdBzGCH8AwDXqr2-iXCs-52" value="IN_JAIL" style="text;strokeColor=none;fillColor=none;align=left;verticalAlign=top;spacingLeft=4;spacingRight=4;overflow=hidden;rotatable=0;points=[[0,0.5],[1,0.5]];portConstraint=eastwest;" parent="KdBzGCH8AwDXqr2-iXCs-50" vertex="1">
          <mxGeometry y="66" width="140" height="26" as="geometry" />
        </mxCell>
        <mxCell id="KdBzGCH8AwDXqr2-iXCs-53" value="GOTO_JAIL" style="text;strokeColor=none;fillColor=none;align=left;verticalAlign=top;spacingLeft=4;spacingRight=4;overflow=hidden;rotatable=0;points=[[0,0.5],[1,0.5]];portConstraint=eastwest;" parent="KdBzGCH8AwDXqr2-iXCs-50" vertex="1">
          <mxGeometry y="92" width="140" height="26" as="geometry" />
        </mxCell>
        <mxCell id="W2CjeTMU-L_zSGK_U1bE-6" value="monopoly.GameBoard" style="swimlane;fontStyle=1;align=center;verticalAlign=top;childLayout=stackLayout;horizontal=1;startSize=26;horizontalStack=0;resizeParent=1;resizeParentMax=0;resizeLast=0;collapsible=1;marginBottom=0;" parent="1" vertex="1">
          <mxGeometry x="-1460" y="471" width="240" height="1282" as="geometry" />
        </mxCell>
        <mxCell id="W2CjeTMU-L_zSGK_U1bE-7" value="- NUM_TILES: int = 41;" style="text;strokeColor=none;fillColor=none;align=left;verticalAlign=top;spacingLeft=4;spacingRight=4;overflow=hidden;rotatable=0;points=[[0,0.5],[1,0.5]];portConstraint=eastwest;" parent="W2CjeTMU-L_zSGK_U1bE-6" vertex="1">
          <mxGeometry y="26" width="240" height="26" as="geometry" />
        </mxCell>
        <mxCell id="W2CjeTMU-L_zSGK_U1bE-8" value="- board: monopoly.Square[]" style="text;strokeColor=none;fillColor=none;align=left;verticalAlign=top;spacingLeft=4;spacingRight=4;overflow=hidden;rotatable=0;points=[[0,0.5],[1,0.5]];portConstraint=eastwest;" parent="W2CjeTMU-L_zSGK_U1bE-6" vertex="1">
          <mxGeometry y="52" width="240" height="26" as="geometry" />
        </mxCell>
        <mxCell id="W2CjeTMU-L_zSGK_U1bE-9" value="" style="line;strokeWidth=1;fillColor=none;align=left;verticalAlign=middle;spacingTop=-1;spacingLeft=3;spacingRight=3;rotatable=0;labelPosition=right;points=[];portConstraint=eastwest;" parent="W2CjeTMU-L_zSGK_U1bE-6" vertex="1">
          <mxGeometry y="78" width="240" height="8" as="geometry" />
        </mxCell>
        <mxCell id="W2CjeTMU-L_zSGK_U1bE-10" value="+ monopoly.GameBoard()" style="text;strokeColor=none;fillColor=none;align=left;verticalAlign=top;spacingLeft=4;spacingRight=4;overflow=hidden;rotatable=0;points=[[0,0.5],[1,0.5]];portConstraint=eastwest;" parent="W2CjeTMU-L_zSGK_U1bE-6" vertex="1">
          <mxGeometry y="86" width="240" height="26" as="geometry" />
        </mxCell>
        <mxCell id="W2CjeTMU-L_zSGK_U1bE-11" value="+ size(): int" style="text;strokeColor=none;fillColor=none;align=left;verticalAlign=top;spacingLeft=4;spacingRight=4;overflow=hidden;rotatable=0;points=[[0,0.5],[1,0.5]];portConstraint=eastwest;" parent="W2CjeTMU-L_zSGK_U1bE-6" vertex="1">
          <mxGeometry y="112" width="240" height="26" as="geometry" />
        </mxCell>
        <mxCell id="W2CjeTMU-L_zSGK_U1bE-12" value="+ getBoard(): monopoly.Square" style="text;strokeColor=none;fillColor=none;align=left;verticalAlign=top;spacingLeft=4;spacingRight=4;overflow=hidden;rotatable=0;points=[[0,0.5],[1,0.5]];portConstraint=eastwest;" parent="W2CjeTMU-L_zSGK_U1bE-6" vertex="1">
          <mxGeometry y="138" width="240" height="26" as="geometry" />
        </mxCell>
        <mxCell id="W2CjeTMU-L_zSGK_U1bE-13" value="+ square(position: int): monopoly.Square" style="text;strokeColor=none;fillColor=none;align=left;verticalAlign=top;spacingLeft=4;spacingRight=4;overflow=hidden;rotatable=0;points=[[0,0.5],[1,0.5]];portConstraint=eastwest;" parent="W2CjeTMU-L_zSGK_U1bE-6" vertex="1">
          <mxGeometry y="164" width="240" height="26" as="geometry" />
        </mxCell>
        <mxCell id="W2CjeTMU-L_zSGK_U1bE-14" value="+ property(name: String): monopoly.Property" style="text;strokeColor=none;fillColor=none;align=left;verticalAlign=top;spacingLeft=4;spacingRight=4;overflow=hidden;rotatable=0;points=[[0,0.5],[1,0.5]];portConstraint=eastwest;" parent="W2CjeTMU-L_zSGK_U1bE-6" vertex="1">
          <mxGeometry y="190" width="240" height="26" as="geometry" />
        </mxCell>
        <mxCell id="W2CjeTMU-L_zSGK_U1bE-15" value="+ makeSquare(position: int): monopoly.Square" style="text;strokeColor=none;fillColor=none;align=left;verticalAlign=top;spacingLeft=4;spacingRight=4;overflow=hidden;rotatable=0;points=[[0,0.5],[1,0.5]];portConstraint=eastwest;" parent="W2CjeTMU-L_zSGK_U1bE-6" vertex="1">
          <mxGeometry y="216" width="240" height="26" as="geometry" />
        </mxCell>
        <mxCell id="W2CjeTMU-L_zSGK_U1bE-16" value="+ groupProperties(): void" style="text;strokeColor=none;fillColor=none;align=left;verticalAlign=top;spacingLeft=4;spacingRight=4;overflow=hidden;rotatable=0;points=[[0,0.5],[1,0.5]];portConstraint=eastwest;" parent="W2CjeTMU-L_zSGK_U1bE-6" vertex="1">
          <mxGeometry y="242" width="240" height="26" as="geometry" />
        </mxCell>
        <mxCell id="W2CjeTMU-L_zSGK_U1bE-17" value="+ groupRailroads(): void" style="text;strokeColor=none;fillColor=none;align=left;verticalAlign=top;spacingLeft=4;spacingRight=4;overflow=hidden;rotatable=0;points=[[0,0.5],[1,0.5]];portConstraint=eastwest;" parent="W2CjeTMU-L_zSGK_U1bE-6" vertex="1">
          <mxGeometry y="268" width="240" height="26" as="geometry" />
        </mxCell>
        <mxCell id="W2CjeTMU-L_zSGK_U1bE-19" value="+ groupUtilities: monopoly.Player" style="text;strokeColor=none;fillColor=none;align=left;verticalAlign=top;spacingLeft=4;spacingRight=4;overflow=hidden;rotatable=0;points=[[0,0.5],[1,0.5]];portConstraint=eastwest;" parent="W2CjeTMU-L_zSGK_U1bE-6" vertex="1">
          <mxGeometry y="294" width="240" height="26" as="geometry" />
        </mxCell>
        <mxCell id="W2CjeTMU-L_zSGK_U1bE-20" value="+ go(position: int): monopoly.Square" style="text;strokeColor=none;fillColor=none;align=left;verticalAlign=top;spacingLeft=4;spacingRight=4;overflow=hidden;rotatable=0;points=[[0,0.5],[1,0.5]];portConstraint=eastwest;" parent="W2CjeTMU-L_zSGK_U1bE-6" vertex="1">
          <mxGeometry y="320" width="240" height="26" as="geometry" />
        </mxCell>
        <mxCell id="W2CjeTMU-L_zSGK_U1bE-21" value="+ community(position: int): monopoly.Square" style="text;strokeColor=none;fillColor=none;align=left;verticalAlign=top;spacingLeft=4;spacingRight=4;overflow=hidden;rotatable=0;points=[[0,0.5],[1,0.5]];portConstraint=eastwest;" parent="W2CjeTMU-L_zSGK_U1bE-6" vertex="1">
          <mxGeometry y="346" width="240" height="26" as="geometry" />
        </mxCell>
        <mxCell id="W2CjeTMU-L_zSGK_U1bE-23" value="+ chance(position: int): monopoly.Square" style="text;strokeColor=none;fillColor=none;align=left;verticalAlign=top;spacingLeft=4;spacingRight=4;overflow=hidden;rotatable=0;points=[[0,0.5],[1,0.5]];portConstraint=eastwest;" parent="W2CjeTMU-L_zSGK_U1bE-6" vertex="1">
          <mxGeometry y="372" width="240" height="26" as="geometry" />
        </mxCell>
        <mxCell id="W2CjeTMU-L_zSGK_U1bE-35" value="+ incomeTax(position: int): monopoly.Square" style="text;strokeColor=none;fillColor=none;align=left;verticalAlign=top;spacingLeft=4;spacingRight=4;overflow=hidden;rotatable=0;points=[[0,0.5],[1,0.5]];portConstraint=eastwest;" parent="W2CjeTMU-L_zSGK_U1bE-6" vertex="1">
          <mxGeometry y="398" width="240" height="26" as="geometry" />
        </mxCell>
        <mxCell id="W2CjeTMU-L_zSGK_U1bE-36" value="+ superTax(position: int): monopoly.Square" style="text;strokeColor=none;fillColor=none;align=left;verticalAlign=top;spacingLeft=4;spacingRight=4;overflow=hidden;rotatable=0;points=[[0,0.5],[1,0.5]];portConstraint=eastwest;" parent="W2CjeTMU-L_zSGK_U1bE-6" vertex="1">
          <mxGeometry y="424" width="240" height="26" as="geometry" />
        </mxCell>
        <mxCell id="W2CjeTMU-L_zSGK_U1bE-50" value="+ electricCompany(position: int): monopoly.Square" style="text;strokeColor=none;fillColor=none;align=left;verticalAlign=top;spacingLeft=4;spacingRight=4;overflow=hidden;rotatable=0;points=[[0,0.5],[1,0.5]];portConstraint=eastwest;" parent="W2CjeTMU-L_zSGK_U1bE-6" vertex="1">
          <mxGeometry y="450" width="240" height="26" as="geometry" />
        </mxCell>
        <mxCell id="W2CjeTMU-L_zSGK_U1bE-49" value="+ waterWorks(position: int): monopoly.Square" style="text;strokeColor=none;fillColor=none;align=left;verticalAlign=top;spacingLeft=4;spacingRight=4;overflow=hidden;rotatable=0;points=[[0,0.5],[1,0.5]];portConstraint=eastwest;" parent="W2CjeTMU-L_zSGK_U1bE-6" vertex="1">
          <mxGeometry y="476" width="240" height="26" as="geometry" />
        </mxCell>
        <mxCell id="W2CjeTMU-L_zSGK_U1bE-48" value="+ kingsCross(position: int): monopoly.Square" style="text;strokeColor=none;fillColor=none;align=left;verticalAlign=top;spacingLeft=4;spacingRight=4;overflow=hidden;rotatable=0;points=[[0,0.5],[1,0.5]];portConstraint=eastwest;" parent="W2CjeTMU-L_zSGK_U1bE-6" vertex="1">
          <mxGeometry y="502" width="240" height="26" as="geometry" />
        </mxCell>
        <mxCell id="W2CjeTMU-L_zSGK_U1bE-47" value="+ marylebone(position: int): monopoly.Square" style="text;strokeColor=none;fillColor=none;align=left;verticalAlign=top;spacingLeft=4;spacingRight=4;overflow=hidden;rotatable=0;points=[[0,0.5],[1,0.5]];portConstraint=eastwest;" parent="W2CjeTMU-L_zSGK_U1bE-6" vertex="1">
          <mxGeometry y="528" width="240" height="26" as="geometry" />
        </mxCell>
        <mxCell id="W2CjeTMU-L_zSGK_U1bE-46" value="+ fenchurch(position: int): monopoly.Square" style="text;strokeColor=none;fillColor=none;align=left;verticalAlign=top;spacingLeft=4;spacingRight=4;overflow=hidden;rotatable=0;points=[[0,0.5],[1,0.5]];portConstraint=eastwest;" parent="W2CjeTMU-L_zSGK_U1bE-6" vertex="1">
          <mxGeometry y="554" width="240" height="26" as="geometry" />
        </mxCell>
        <mxCell id="W2CjeTMU-L_zSGK_U1bE-45" value="+ liverpool(position: int): monopoly.Square" style="text;strokeColor=none;fillColor=none;align=left;verticalAlign=top;spacingLeft=4;spacingRight=4;overflow=hidden;rotatable=0;points=[[0,0.5],[1,0.5]];portConstraint=eastwest;" parent="W2CjeTMU-L_zSGK_U1bE-6" vertex="1">
          <mxGeometry y="580" width="240" height="26" as="geometry" />
        </mxCell>
        <mxCell id="W2CjeTMU-L_zSGK_U1bE-44" value="+ freeParking(position: int): monopoly.Square" style="text;strokeColor=none;fillColor=none;align=left;verticalAlign=top;spacingLeft=4;spacingRight=4;overflow=hidden;rotatable=0;points=[[0,0.5],[1,0.5]];portConstraint=eastwest;" parent="W2CjeTMU-L_zSGK_U1bE-6" vertex="1">
          <mxGeometry y="606" width="240" height="26" as="geometry" />
        </mxCell>
        <mxCell id="W2CjeTMU-L_zSGK_U1bE-43" value="+ goToJail(position: int): monopoly.Square" style="text;strokeColor=none;fillColor=none;align=left;verticalAlign=top;spacingLeft=4;spacingRight=4;overflow=hidden;rotatable=0;points=[[0,0.5],[1,0.5]];portConstraint=eastwest;" parent="W2CjeTMU-L_zSGK_U1bE-6" vertex="1">
          <mxGeometry y="632" width="240" height="26" as="geometry" />
        </mxCell>
        <mxCell id="W2CjeTMU-L_zSGK_U1bE-42" value="+ inJail(position: int): monopoly.Square" style="text;strokeColor=none;fillColor=none;align=left;verticalAlign=top;spacingLeft=4;spacingRight=4;overflow=hidden;rotatable=0;points=[[0,0.5],[1,0.5]];portConstraint=eastwest;" parent="W2CjeTMU-L_zSGK_U1bE-6" vertex="1">
          <mxGeometry y="658" width="240" height="26" as="geometry" />
        </mxCell>
        <mxCell id="W2CjeTMU-L_zSGK_U1bE-41" value="+ justVisiting(position: int): monopoly.Square" style="text;strokeColor=none;fillColor=none;align=left;verticalAlign=top;spacingLeft=4;spacingRight=4;overflow=hidden;rotatable=0;points=[[0,0.5],[1,0.5]];portConstraint=eastwest;" parent="W2CjeTMU-L_zSGK_U1bE-6" vertex="1">
          <mxGeometry y="684" width="240" height="26" as="geometry" />
        </mxCell>
        <mxCell id="W2CjeTMU-L_zSGK_U1bE-40" value="+ oldKent(position: int): monopoly.Square" style="text;strokeColor=none;fillColor=none;align=left;verticalAlign=top;spacingLeft=4;spacingRight=4;overflow=hidden;rotatable=0;points=[[0,0.5],[1,0.5]];portConstraint=eastwest;" parent="W2CjeTMU-L_zSGK_U1bE-6" vertex="1">
          <mxGeometry y="710" width="240" height="26" as="geometry" />
        </mxCell>
        <mxCell id="W2CjeTMU-L_zSGK_U1bE-39" value="+ whitechapel(position: int): monopoly.Square" style="text;strokeColor=none;fillColor=none;align=left;verticalAlign=top;spacingLeft=4;spacingRight=4;overflow=hidden;rotatable=0;points=[[0,0.5],[1,0.5]];portConstraint=eastwest;" parent="W2CjeTMU-L_zSGK_U1bE-6" vertex="1">
          <mxGeometry y="736" width="240" height="26" as="geometry" />
        </mxCell>
        <mxCell id="W2CjeTMU-L_zSGK_U1bE-38" value="+ theAngelIslington(position: int): monopoly.Square" style="text;strokeColor=none;fillColor=none;align=left;verticalAlign=top;spacingLeft=4;spacingRight=4;overflow=hidden;rotatable=0;points=[[0,0.5],[1,0.5]];portConstraint=eastwest;" parent="W2CjeTMU-L_zSGK_U1bE-6" vertex="1">
          <mxGeometry y="762" width="240" height="26" as="geometry" />
        </mxCell>
        <mxCell id="W2CjeTMU-L_zSGK_U1bE-37" value="+ euston(position: int): monopoly.Square" style="text;strokeColor=none;fillColor=none;align=left;verticalAlign=top;spacingLeft=4;spacingRight=4;overflow=hidden;rotatable=0;points=[[0,0.5],[1,0.5]];portConstraint=eastwest;" parent="W2CjeTMU-L_zSGK_U1bE-6" vertex="1">
          <mxGeometry y="788" width="240" height="26" as="geometry" />
        </mxCell>
        <mxCell id="W2CjeTMU-L_zSGK_U1bE-26" value="+ pentonville(position: int): monopoly.Square" style="text;strokeColor=none;fillColor=none;align=left;verticalAlign=top;spacingLeft=4;spacingRight=4;overflow=hidden;rotatable=0;points=[[0,0.5],[1,0.5]];portConstraint=eastwest;" parent="W2CjeTMU-L_zSGK_U1bE-6" vertex="1">
          <mxGeometry y="814" width="240" height="26" as="geometry" />
        </mxCell>
        <mxCell id="W2CjeTMU-L_zSGK_U1bE-25" value="+ pallMall(position: int): monopoly.Square" style="text;strokeColor=none;fillColor=none;align=left;verticalAlign=top;spacingLeft=4;spacingRight=4;overflow=hidden;rotatable=0;points=[[0,0.5],[1,0.5]];portConstraint=eastwest;" parent="W2CjeTMU-L_zSGK_U1bE-6" vertex="1">
          <mxGeometry y="840" width="240" height="26" as="geometry" />
        </mxCell>
        <mxCell id="W2CjeTMU-L_zSGK_U1bE-27" value="+ whitehall(position: int): monopoly.Square" style="text;strokeColor=none;fillColor=none;align=left;verticalAlign=top;spacingLeft=4;spacingRight=4;overflow=hidden;rotatable=0;points=[[0,0.5],[1,0.5]];portConstraint=eastwest;" parent="W2CjeTMU-L_zSGK_U1bE-6" vertex="1">
          <mxGeometry y="866" width="240" height="26" as="geometry" />
        </mxCell>
        <mxCell id="W2CjeTMU-L_zSGK_U1bE-34" value="+ northumrld(position: int): monopoly.Square" style="text;strokeColor=none;fillColor=none;align=left;verticalAlign=top;spacingLeft=4;spacingRight=4;overflow=hidden;rotatable=0;points=[[0,0.5],[1,0.5]];portConstraint=eastwest;" parent="W2CjeTMU-L_zSGK_U1bE-6" vertex="1">
          <mxGeometry y="892" width="240" height="26" as="geometry" />
        </mxCell>
        <mxCell id="W2CjeTMU-L_zSGK_U1bE-33" value="+ bow(position: int): monopoly.Square" style="text;strokeColor=none;fillColor=none;align=left;verticalAlign=top;spacingLeft=4;spacingRight=4;overflow=hidden;rotatable=0;points=[[0,0.5],[1,0.5]];portConstraint=eastwest;" parent="W2CjeTMU-L_zSGK_U1bE-6" vertex="1">
          <mxGeometry y="918" width="240" height="26" as="geometry" />
        </mxCell>
        <mxCell id="W2CjeTMU-L_zSGK_U1bE-32" value="+ marlborough(position: int): monopoly.Square" style="text;strokeColor=none;fillColor=none;align=left;verticalAlign=top;spacingLeft=4;spacingRight=4;overflow=hidden;rotatable=0;points=[[0,0.5],[1,0.5]];portConstraint=eastwest;" parent="W2CjeTMU-L_zSGK_U1bE-6" vertex="1">
          <mxGeometry y="944" width="240" height="26" as="geometry" />
        </mxCell>
        <mxCell id="W2CjeTMU-L_zSGK_U1bE-31" value="+ vine(position: int): monopoly.Square" style="text;strokeColor=none;fillColor=none;align=left;verticalAlign=top;spacingLeft=4;spacingRight=4;overflow=hidden;rotatable=0;points=[[0,0.5],[1,0.5]];portConstraint=eastwest;" parent="W2CjeTMU-L_zSGK_U1bE-6" vertex="1">
          <mxGeometry y="970" width="240" height="26" as="geometry" />
        </mxCell>
        <mxCell id="W2CjeTMU-L_zSGK_U1bE-30" value="+ strand(position: int): monopoly.Square" style="text;strokeColor=none;fillColor=none;align=left;verticalAlign=top;spacingLeft=4;spacingRight=4;overflow=hidden;rotatable=0;points=[[0,0.5],[1,0.5]];portConstraint=eastwest;" parent="W2CjeTMU-L_zSGK_U1bE-6" vertex="1">
          <mxGeometry y="996" width="240" height="26" as="geometry" />
        </mxCell>
        <mxCell id="W2CjeTMU-L_zSGK_U1bE-29" value="+ fleet(position: int): monopoly.Square" style="text;strokeColor=none;fillColor=none;align=left;verticalAlign=top;spacingLeft=4;spacingRight=4;overflow=hidden;rotatable=0;points=[[0,0.5],[1,0.5]];portConstraint=eastwest;" parent="W2CjeTMU-L_zSGK_U1bE-6" vertex="1">
          <mxGeometry y="1022" width="240" height="26" as="geometry" />
        </mxCell>
        <mxCell id="W2CjeTMU-L_zSGK_U1bE-28" value="+ trafalgar(position: int): monopoly.Square" style="text;strokeColor=none;fillColor=none;align=left;verticalAlign=top;spacingLeft=4;spacingRight=4;overflow=hidden;rotatable=0;points=[[0,0.5],[1,0.5]];portConstraint=eastwest;" parent="W2CjeTMU-L_zSGK_U1bE-6" vertex="1">
          <mxGeometry y="1048" width="240" height="26" as="geometry" />
        </mxCell>
        <mxCell id="W2CjeTMU-L_zSGK_U1bE-24" value="+ leicester(position: int): monopoly.Square" style="text;strokeColor=none;fillColor=none;align=left;verticalAlign=top;spacingLeft=4;spacingRight=4;overflow=hidden;rotatable=0;points=[[0,0.5],[1,0.5]];portConstraint=eastwest;" parent="W2CjeTMU-L_zSGK_U1bE-6" vertex="1">
          <mxGeometry y="1074" width="240" height="26" as="geometry" />
        </mxCell>
        <mxCell id="W2CjeTMU-L_zSGK_U1bE-22" value="+ conventry(position: int): monopoly.Square" style="text;strokeColor=none;fillColor=none;align=left;verticalAlign=top;spacingLeft=4;spacingRight=4;overflow=hidden;rotatable=0;points=[[0,0.5],[1,0.5]];portConstraint=eastwest;" parent="W2CjeTMU-L_zSGK_U1bE-6" vertex="1">
          <mxGeometry y="1100" width="240" height="26" as="geometry" />
        </mxCell>
        <mxCell id="W2CjeTMU-L_zSGK_U1bE-53" value="+ piccadilly(position: int): monopoly.Square" style="text;strokeColor=none;fillColor=none;align=left;verticalAlign=top;spacingLeft=4;spacingRight=4;overflow=hidden;rotatable=0;points=[[0,0.5],[1,0.5]];portConstraint=eastwest;" parent="W2CjeTMU-L_zSGK_U1bE-6" vertex="1">
          <mxGeometry y="1126" width="240" height="26" as="geometry" />
        </mxCell>
        <mxCell id="W2CjeTMU-L_zSGK_U1bE-52" value="+ regent(position: int): monopoly.Square" style="text;strokeColor=none;fillColor=none;align=left;verticalAlign=top;spacingLeft=4;spacingRight=4;overflow=hidden;rotatable=0;points=[[0,0.5],[1,0.5]];portConstraint=eastwest;" parent="W2CjeTMU-L_zSGK_U1bE-6" vertex="1">
          <mxGeometry y="1152" width="240" height="26" as="geometry" />
        </mxCell>
        <mxCell id="W2CjeTMU-L_zSGK_U1bE-18" value="+ oxford(position: int): monopoly.Square" style="text;strokeColor=none;fillColor=none;align=left;verticalAlign=top;spacingLeft=4;spacingRight=4;overflow=hidden;rotatable=0;points=[[0,0.5],[1,0.5]];portConstraint=eastwest;" parent="W2CjeTMU-L_zSGK_U1bE-6" vertex="1">
          <mxGeometry y="1178" width="240" height="26" as="geometry" />
        </mxCell>
        <mxCell id="W2CjeTMU-L_zSGK_U1bE-54" value="+ bond(position: int): monopoly.Square" style="text;strokeColor=none;fillColor=none;align=left;verticalAlign=top;spacingLeft=4;spacingRight=4;overflow=hidden;rotatable=0;points=[[0,0.5],[1,0.5]];portConstraint=eastwest;" parent="W2CjeTMU-L_zSGK_U1bE-6" vertex="1">
          <mxGeometry y="1204" width="240" height="26" as="geometry" />
        </mxCell>
        <mxCell id="W2CjeTMU-L_zSGK_U1bE-55" value="+ park(position: int): monopoly.Square" style="text;strokeColor=none;fillColor=none;align=left;verticalAlign=top;spacingLeft=4;spacingRight=4;overflow=hidden;rotatable=0;points=[[0,0.5],[1,0.5]];portConstraint=eastwest;" parent="W2CjeTMU-L_zSGK_U1bE-6" vertex="1">
          <mxGeometry y="1230" width="240" height="26" as="geometry" />
        </mxCell>
        <mxCell id="W2CjeTMU-L_zSGK_U1bE-51" value="+ mayfair(position: int): monopoly.Square" style="text;strokeColor=none;fillColor=none;align=left;verticalAlign=top;spacingLeft=4;spacingRight=4;overflow=hidden;rotatable=0;points=[[0,0.5],[1,0.5]];portConstraint=eastwest;" parent="W2CjeTMU-L_zSGK_U1bE-6" vertex="1">
          <mxGeometry y="1256" width="240" height="26" as="geometry" />
        </mxCell>
        <mxCell id="W2CjeTMU-L_zSGK_U1bE-58" value="monopoly.Input" style="swimlane;fontStyle=1;align=center;verticalAlign=top;childLayout=stackLayout;horizontal=1;startSize=26;horizontalStack=0;resizeParent=1;resizeParentMax=0;resizeLast=0;collapsible=1;marginBottom=0;" parent="1" vertex="1">
          <mxGeometry x="-1730" y="1004" width="210" height="216" as="geometry" />
        </mxCell>
        <mxCell id="W2CjeTMU-L_zSGK_U1bE-59" value="- scanner: Scanner" style="text;strokeColor=none;fillColor=none;align=left;verticalAlign=top;spacingLeft=4;spacingRight=4;overflow=hidden;rotatable=0;points=[[0,0.5],[1,0.5]];portConstraint=eastwest;" parent="W2CjeTMU-L_zSGK_U1bE-58" vertex="1">
          <mxGeometry y="26" width="210" height="26" as="geometry" />
        </mxCell>
        <mxCell id="W2CjeTMU-L_zSGK_U1bE-60" value="- name: String" style="text;strokeColor=none;fillColor=none;align=left;verticalAlign=top;spacingLeft=4;spacingRight=4;overflow=hidden;rotatable=0;points=[[0,0.5],[1,0.5]];portConstraint=eastwest;" parent="W2CjeTMU-L_zSGK_U1bE-58" vertex="1">
          <mxGeometry y="52" width="210" height="26" as="geometry" />
        </mxCell>
        <mxCell id="W2CjeTMU-L_zSGK_U1bE-61" value="" style="line;strokeWidth=1;fillColor=none;align=left;verticalAlign=middle;spacingTop=-1;spacingLeft=3;spacingRight=3;rotatable=0;labelPosition=right;points=[];portConstraint=eastwest;" parent="W2CjeTMU-L_zSGK_U1bE-58" vertex="1">
          <mxGeometry y="78" width="210" height="8" as="geometry" />
        </mxCell>
        <mxCell id="W2CjeTMU-L_zSGK_U1bE-63" value="+ monopoly.Input()" style="text;strokeColor=none;fillColor=none;align=left;verticalAlign=top;spacingLeft=4;spacingRight=4;overflow=hidden;rotatable=0;points=[[0,0.5],[1,0.5]];portConstraint=eastwest;" parent="W2CjeTMU-L_zSGK_U1bE-58" vertex="1">
          <mxGeometry y="86" width="210" height="26" as="geometry" />
        </mxCell>
        <mxCell id="W2CjeTMU-L_zSGK_U1bE-64" value="+ inputString(): String" style="text;strokeColor=none;fillColor=none;align=left;verticalAlign=top;spacingLeft=4;spacingRight=4;overflow=hidden;rotatable=0;points=[[0,0.5],[1,0.5]];portConstraint=eastwest;" parent="W2CjeTMU-L_zSGK_U1bE-58" vertex="1">
          <mxGeometry y="112" width="210" height="26" as="geometry" />
        </mxCell>
        <mxCell id="W2CjeTMU-L_zSGK_U1bE-65" value="+ inputBool(): boolean" style="text;strokeColor=none;fillColor=none;align=left;verticalAlign=top;spacingLeft=4;spacingRight=4;overflow=hidden;rotatable=0;points=[[0,0.5],[1,0.5]];portConstraint=eastwest;" parent="W2CjeTMU-L_zSGK_U1bE-58" vertex="1">
          <mxGeometry y="138" width="210" height="26" as="geometry" />
        </mxCell>
        <mxCell id="W2CjeTMU-L_zSGK_U1bE-66" value="+ inputDecision(choices: String[]): int " style="text;strokeColor=none;fillColor=none;align=left;verticalAlign=top;spacingLeft=4;spacingRight=4;overflow=hidden;rotatable=0;points=[[0,0.5],[1,0.5]];portConstraint=eastwest;" parent="W2CjeTMU-L_zSGK_U1bE-58" vertex="1">
          <mxGeometry y="164" width="210" height="26" as="geometry" />
        </mxCell>
        <mxCell id="W2CjeTMU-L_zSGK_U1bE-67" value="+ inputInt(): int" style="text;strokeColor=none;fillColor=none;align=left;verticalAlign=top;spacingLeft=4;spacingRight=4;overflow=hidden;rotatable=0;points=[[0,0.5],[1,0.5]];portConstraint=eastwest;" parent="W2CjeTMU-L_zSGK_U1bE-58" vertex="1">
          <mxGeometry y="190" width="210" height="26" as="geometry" />
        </mxCell>
        <mxCell id="CLeRwn4w3gAS7lKz8R1s-1" value="monopoly.Monopoly" style="swimlane;fontStyle=1;align=center;verticalAlign=top;childLayout=stackLayout;horizontal=1;startSize=26;horizontalStack=0;resizeParent=1;resizeParentMax=0;resizeLast=0;collapsible=1;marginBottom=0;" parent="1" vertex="1">
          <mxGeometry x="-2160" y="900" width="320" height="424" as="geometry" />
        </mxCell>
        <mxCell id="CLeRwn4w3gAS7lKz8R1s-2" value="- rollDice: monopoly.RollDice" style="text;strokeColor=none;fillColor=none;align=left;verticalAlign=top;spacingLeft=4;spacingRight=4;overflow=hidden;rotatable=0;points=[[0,0.5],[1,0.5]];portConstraint=eastwest;" parent="CLeRwn4w3gAS7lKz8R1s-1" vertex="1">
          <mxGeometry y="26" width="320" height="26" as="geometry" />
        </mxCell>
        <mxCell id="CLeRwn4w3gAS7lKz8R1s-17" value="- gameState: GameState" style="text;strokeColor=none;fillColor=none;align=left;verticalAlign=top;spacingLeft=4;spacingRight=4;overflow=hidden;rotatable=0;points=[[0,0.5],[1,0.5]];portConstraint=eastwest;" parent="CLeRwn4w3gAS7lKz8R1s-1" vertex="1">
          <mxGeometry y="52" width="320" height="26" as="geometry" />
        </mxCell>
        <mxCell id="CLeRwn4w3gAS7lKz8R1s-3" value="- isBankrupt: boolean" style="text;strokeColor=none;fillColor=none;align=left;verticalAlign=top;spacingLeft=4;spacingRight=4;overflow=hidden;rotatable=0;points=[[0,0.5],[1,0.5]];portConstraint=eastwest;" parent="CLeRwn4w3gAS7lKz8R1s-1" vertex="1">
          <mxGeometry y="78" width="320" height="26" as="geometry" />
        </mxCell>
        <mxCell id="CLeRwn4w3gAS7lKz8R1s-4" value="" style="line;strokeWidth=1;fillColor=none;align=left;verticalAlign=middle;spacingTop=-1;spacingLeft=3;spacingRight=3;rotatable=0;labelPosition=right;points=[];portConstraint=eastwest;" parent="CLeRwn4w3gAS7lKz8R1s-1" vertex="1">
          <mxGeometry y="104" width="320" height="8" as="geometry" />
        </mxCell>
        <mxCell id="CLeRwn4w3gAS7lKz8R1s-5" value="+ monopoly.Monopoly()" style="text;strokeColor=none;fillColor=none;align=left;verticalAlign=top;spacingLeft=4;spacingRight=4;overflow=hidden;rotatable=0;points=[[0,0.5],[1,0.5]];portConstraint=eastwest;" parent="CLeRwn4w3gAS7lKz8R1s-1" vertex="1">
          <mxGeometry y="112" width="320" height="26" as="geometry" />
        </mxCell>
        <mxCell id="CLeRwn4w3gAS7lKz8R1s-6" value="+ DecisionState: enum" style="text;strokeColor=none;fillColor=none;align=left;verticalAlign=top;spacingLeft=4;spacingRight=4;overflow=hidden;rotatable=0;points=[[0,0.5],[1,0.5]];portConstraint=eastwest;" parent="CLeRwn4w3gAS7lKz8R1s-1" vertex="1">
          <mxGeometry y="138" width="320" height="26" as="geometry" />
        </mxCell>
        <mxCell id="CLeRwn4w3gAS7lKz8R1s-7" value="+ GameState: class" style="text;strokeColor=none;fillColor=none;align=left;verticalAlign=top;spacingLeft=4;spacingRight=4;overflow=hidden;rotatable=0;points=[[0,0.5],[1,0.5]];portConstraint=eastwest;" parent="CLeRwn4w3gAS7lKz8R1s-1" vertex="1">
          <mxGeometry y="164" width="320" height="26" as="geometry" />
        </mxCell>
        <mxCell id="CLeRwn4w3gAS7lKz8R1s-8" value="+ play(): void" style="text;strokeColor=none;fillColor=none;align=left;verticalAlign=top;spacingLeft=4;spacingRight=4;overflow=hidden;rotatable=0;points=[[0,0.5],[1,0.5]];portConstraint=eastwest;" parent="CLeRwn4w3gAS7lKz8R1s-1" vertex="1">
          <mxGeometry y="190" width="320" height="26" as="geometry" />
        </mxCell>
        <mxCell id="CLeRwn4w3gAS7lKz8R1s-9" value="+ initializePlayers(input: monopoly.Input): void" style="text;strokeColor=none;fillColor=none;align=left;verticalAlign=top;spacingLeft=4;spacingRight=4;overflow=hidden;rotatable=0;points=[[0,0.5],[1,0.5]];portConstraint=eastwest;" parent="CLeRwn4w3gAS7lKz8R1s-1" vertex="1">
          <mxGeometry y="216" width="320" height="26" as="geometry" />
        </mxCell>
        <mxCell id="CLeRwn4w3gAS7lKz8R1s-18" value="+ turn(): void" style="text;strokeColor=none;fillColor=none;align=left;verticalAlign=top;spacingLeft=4;spacingRight=4;overflow=hidden;rotatable=0;points=[[0,0.5],[1,0.5]];portConstraint=eastwest;" parent="CLeRwn4w3gAS7lKz8R1s-1" vertex="1">
          <mxGeometry y="242" width="320" height="26" as="geometry" />
        </mxCell>
        <mxCell id="CLeRwn4w3gAS7lKz8R1s-19" value="+ printState(): void" style="text;strokeColor=none;fillColor=none;align=left;verticalAlign=top;spacingLeft=4;spacingRight=4;overflow=hidden;rotatable=0;points=[[0,0.5],[1,0.5]];portConstraint=eastwest;" parent="CLeRwn4w3gAS7lKz8R1s-1" vertex="1">
          <mxGeometry y="268" width="320" height="26" as="geometry" />
        </mxCell>
        <mxCell id="CLeRwn4w3gAS7lKz8R1s-22" value="+ handleSquare(player: monopoly.Player, square: monopoly.Square, roll: int)" style="text;strokeColor=none;fillColor=none;align=left;verticalAlign=top;spacingLeft=4;spacingRight=4;overflow=hidden;rotatable=0;points=[[0,0.5],[1,0.5]];portConstraint=eastwest;" parent="CLeRwn4w3gAS7lKz8R1s-1" vertex="1">
          <mxGeometry y="294" width="320" height="26" as="geometry" />
        </mxCell>
        <mxCell id="CLeRwn4w3gAS7lKz8R1s-21" value="+ unowned(player: monopoly.Player, square: monopoly.Square): void" style="text;strokeColor=none;fillColor=none;align=left;verticalAlign=top;spacingLeft=4;spacingRight=4;overflow=hidden;rotatable=0;points=[[0,0.5],[1,0.5]];portConstraint=eastwest;" parent="CLeRwn4w3gAS7lKz8R1s-1" vertex="1">
          <mxGeometry y="320" width="320" height="26" as="geometry" />
        </mxCell>
        <mxCell id="CLeRwn4w3gAS7lKz8R1s-24" value="+ buyProperty(player: monopoly.Player, square: monopoly.Square): void" style="text;strokeColor=none;fillColor=none;align=left;verticalAlign=top;spacingLeft=4;spacingRight=4;overflow=hidden;rotatable=0;points=[[0,0.5],[1,0.5]];portConstraint=eastwest;" parent="CLeRwn4w3gAS7lKz8R1s-1" vertex="1">
          <mxGeometry y="346" width="320" height="26" as="geometry" />
        </mxCell>
        <mxCell id="CLeRwn4w3gAS7lKz8R1s-23" value="+ owned(player: monopoly.Player, square: monopoly.Square, roll: int): void" style="text;strokeColor=none;fillColor=none;align=left;verticalAlign=top;spacingLeft=4;spacingRight=4;overflow=hidden;rotatable=0;points=[[0,0.5],[1,0.5]];portConstraint=eastwest;" parent="CLeRwn4w3gAS7lKz8R1s-1" vertex="1">
          <mxGeometry y="372" width="320" height="26" as="geometry" />
        </mxCell>
        <mxCell id="CLeRwn4w3gAS7lKz8R1s-20" value="+ main(args: String[]): void" style="text;strokeColor=none;fillColor=none;align=left;verticalAlign=top;spacingLeft=4;spacingRight=4;overflow=hidden;rotatable=0;points=[[0,0.5],[1,0.5]];portConstraint=eastwest;fontStyle=4" parent="CLeRwn4w3gAS7lKz8R1s-1" vertex="1">
          <mxGeometry y="398" width="320" height="26" as="geometry" />
        </mxCell>
        <mxCell id="CLeRwn4w3gAS7lKz8R1s-10" value="&lt;&lt;enumeration&gt;&gt;&#xa;DecisionState" style="swimlane;fontStyle=1;childLayout=stackLayout;horizontal=1;startSize=40;fillColor=none;horizontalStack=0;resizeParent=1;resizeParentMax=0;resizeLast=0;collapsible=1;marginBottom=0;" parent="1" vertex="1">
          <mxGeometry x="-2070" y="1406" width="140" height="196" as="geometry" />
        </mxCell>
        <mxCell id="CLeRwn4w3gAS7lKz8R1s-11" value="NONE" style="text;strokeColor=none;fillColor=none;align=left;verticalAlign=top;spacingLeft=4;spacingRight=4;overflow=hidden;rotatable=0;points=[[0,0.5],[1,0.5]];portConstraint=eastwest;" parent="CLeRwn4w3gAS7lKz8R1s-10" vertex="1">
          <mxGeometry y="40" width="140" height="26" as="geometry" />
        </mxCell>
        <mxCell id="CLeRwn4w3gAS7lKz8R1s-12" value="BUY_PROPERTY" style="text;strokeColor=none;fillColor=none;align=left;verticalAlign=top;spacingLeft=4;spacingRight=4;overflow=hidden;rotatable=0;points=[[0,0.5],[1,0.5]];portConstraint=eastwest;" parent="CLeRwn4w3gAS7lKz8R1s-10" vertex="1">
          <mxGeometry y="66" width="140" height="26" as="geometry" />
        </mxCell>
        <mxCell id="CLeRwn4w3gAS7lKz8R1s-16" value="SELL_PROPERTY" style="text;strokeColor=none;fillColor=none;align=left;verticalAlign=top;spacingLeft=4;spacingRight=4;overflow=hidden;rotatable=0;points=[[0,0.5],[1,0.5]];portConstraint=eastwest;" parent="CLeRwn4w3gAS7lKz8R1s-10" vertex="1">
          <mxGeometry y="92" width="140" height="26" as="geometry" />
        </mxCell>
        <mxCell id="CLeRwn4w3gAS7lKz8R1s-14" value="BUY_HOUSE" style="text;strokeColor=none;fillColor=none;align=left;verticalAlign=top;spacingLeft=4;spacingRight=4;overflow=hidden;rotatable=0;points=[[0,0.5],[1,0.5]];portConstraint=eastwest;" parent="CLeRwn4w3gAS7lKz8R1s-10" vertex="1">
          <mxGeometry y="118" width="140" height="26" as="geometry" />
        </mxCell>
        <mxCell id="CLeRwn4w3gAS7lKz8R1s-15" value="SELL_HOUSE" style="text;strokeColor=none;fillColor=none;align=left;verticalAlign=top;spacingLeft=4;spacingRight=4;overflow=hidden;rotatable=0;points=[[0,0.5],[1,0.5]];portConstraint=eastwest;" parent="CLeRwn4w3gAS7lKz8R1s-10" vertex="1">
          <mxGeometry y="144" width="140" height="26" as="geometry" />
        </mxCell>
        <mxCell id="CLeRwn4w3gAS7lKz8R1s-13" value="TURN_ACTION" style="text;strokeColor=none;fillColor=none;align=left;verticalAlign=top;spacingLeft=4;spacingRight=4;overflow=hidden;rotatable=0;points=[[0,0.5],[1,0.5]];portConstraint=eastwest;" parent="CLeRwn4w3gAS7lKz8R1s-10" vertex="1">
          <mxGeometry y="170" width="140" height="26" as="geometry" />
        </mxCell>
        <mxCell id="CLeRwn4w3gAS7lKz8R1s-32" value="GameState" style="swimlane;fontStyle=1;align=center;verticalAlign=top;childLayout=stackLayout;horizontal=1;startSize=26;horizontalStack=0;resizeParent=1;resizeParentMax=0;resizeLast=0;collapsible=1;marginBottom=0;" parent="1" vertex="1">
          <mxGeometry x="-2100" y="593" width="200" height="138" as="geometry" />
        </mxCell>
        <mxCell id="CLeRwn4w3gAS7lKz8R1s-33" value="+ decisionState: DecisionState" style="text;strokeColor=none;fillColor=none;align=left;verticalAlign=top;spacingLeft=4;spacingRight=4;overflow=hidden;rotatable=0;points=[[0,0.5],[1,0.5]];portConstraint=eastwest;" parent="CLeRwn4w3gAS7lKz8R1s-32" vertex="1">
          <mxGeometry y="26" width="200" height="26" as="geometry" />
        </mxCell>
        <mxCell id="CLeRwn4w3gAS7lKz8R1s-34" value="+ players: Queue&lt;monopoly.Player&gt;" style="text;strokeColor=none;fillColor=none;align=left;verticalAlign=top;spacingLeft=4;spacingRight=4;overflow=hidden;rotatable=0;points=[[0,0.5],[1,0.5]];portConstraint=eastwest;" parent="CLeRwn4w3gAS7lKz8R1s-32" vertex="1">
          <mxGeometry y="52" width="200" height="26" as="geometry" />
        </mxCell>
        <mxCell id="CLeRwn4w3gAS7lKz8R1s-35" value="+ monopoly.GameBoard: gameBoard" style="text;strokeColor=none;fillColor=none;align=left;verticalAlign=top;spacingLeft=4;spacingRight=4;overflow=hidden;rotatable=0;points=[[0,0.5],[1,0.5]];portConstraint=eastwest;" parent="CLeRwn4w3gAS7lKz8R1s-32" vertex="1">
          <mxGeometry y="78" width="200" height="26" as="geometry" />
        </mxCell>
        <mxCell id="CLeRwn4w3gAS7lKz8R1s-36" value="+ currentPlayer: monopoly.Player" style="text;strokeColor=none;fillColor=none;align=left;verticalAlign=top;spacingLeft=4;spacingRight=4;overflow=hidden;rotatable=0;points=[[0,0.5],[1,0.5]];portConstraint=eastwest;" parent="CLeRwn4w3gAS7lKz8R1s-32" vertex="1">
          <mxGeometry y="104" width="200" height="26" as="geometry" />
        </mxCell>
        <mxCell id="CLeRwn4w3gAS7lKz8R1s-37" value="" style="line;strokeWidth=1;fillColor=none;align=left;verticalAlign=middle;spacingTop=-1;spacingLeft=3;spacingRight=3;rotatable=0;labelPosition=right;points=[];portConstraint=eastwest;" parent="CLeRwn4w3gAS7lKz8R1s-32" vertex="1">
          <mxGeometry y="130" width="200" height="8" as="geometry" />
        </mxCell>
        <mxCell id="CLeRwn4w3gAS7lKz8R1s-39" value="" style="endArrow=diamondThin;endFill=0;endSize=24;html=1;rounded=0;" parent="1" source="W2CjeTMU-L_zSGK_U1bE-58" target="CLeRwn4w3gAS7lKz8R1s-1" edge="1">
          <mxGeometry width="160" relative="1" as="geometry">
            <mxPoint x="-2110" y="1167.5" as="sourcePoint" />
            <mxPoint x="-1950" y="1167.5" as="targetPoint" />
          </mxGeometry>
        </mxCell>
        <mxCell id="CLeRwn4w3gAS7lKz8R1s-42" value="" style="endArrow=diamondThin;endFill=0;endSize=24;html=1;rounded=0;" parent="1" source="ZxXYfscIAA8OzIRm0PE7-42" target="CLeRwn4w3gAS7lKz8R1s-1" edge="1">
          <mxGeometry width="160" relative="1" as="geometry">
            <mxPoint x="-2215" y="1438" as="sourcePoint" />
            <mxPoint x="-2325" y="1438" as="targetPoint" />
          </mxGeometry>
        </mxCell>
        <mxCell id="CLeRwn4w3gAS7lKz8R1s-44" value="" style="endArrow=diamondThin;endFill=1;endSize=24;html=1;rounded=0;" parent="1" source="CLeRwn4w3gAS7lKz8R1s-32" target="CLeRwn4w3gAS7lKz8R1s-1" edge="1">
          <mxGeometry width="160" relative="1" as="geometry">
            <mxPoint x="-1920" y="980" as="sourcePoint" />
            <mxPoint x="-1910" y="760" as="targetPoint" />
          </mxGeometry>
        </mxCell>
        <mxCell id="-XF_M11TQW0pG_IRMJUP-1" value="&lt;b&gt;SYSC 3110 - Milestone 2&lt;/b&gt;&lt;br&gt;&lt;b&gt;Group 17&lt;/b&gt;&lt;br&gt;&lt;b&gt;Members:&lt;/b&gt;&lt;br&gt;Trong Nguyen 100848232 &lt;br&gt;Francisco De Grano 101147447 &lt;br&gt;Ibrahim Almalki 101142978 &lt;br&gt;Elisha Catherasoo&amp;nbsp;101148507&lt;br&gt;&lt;b&gt;Date: Nov&lt;/b&gt;. 8, 2021" style="text;html=1;strokeColor=none;fillColor=none;align=left;verticalAlign=middle;whiteSpace=wrap;rounded=0;" parent="1" vertex="1">
          <mxGeometry x="-3075" y="1585" width="200" height="130" as="geometry" />
        </mxCell>
        <mxCell id="pjxB05dCKxAqyayNs0aO-1" value="" style="endArrow=block;dashed=1;endFill=0;endSize=12;html=1;rounded=0;" parent="1" source="ZxXYfscIAA8OzIRm0PE7-51" target="ZxXYfscIAA8OzIRm0PE7-30" edge="1">
          <mxGeometry width="160" relative="1" as="geometry">
            <mxPoint x="-2950" y="880" as="sourcePoint" />
            <mxPoint x="-2790" y="880" as="targetPoint" />
          </mxGeometry>
        </mxCell>
        <mxCell id="pjxB05dCKxAqyayNs0aO-2" value="" style="endArrow=block;dashed=1;endFill=0;endSize=12;html=1;rounded=0;" parent="1" target="ZxXYfscIAA8OzIRm0PE7-7" edge="1">
          <mxGeometry width="160" relative="1" as="geometry">
            <mxPoint x="-350" y="820" as="sourcePoint" />
            <mxPoint x="-490" y="810" as="targetPoint" />
          </mxGeometry>
        </mxCell>
        <mxCell id="pjxB05dCKxAqyayNs0aO-3" value="" style="endArrow=block;dashed=1;endFill=0;endSize=12;html=1;rounded=0;" parent="1" source="ZxXYfscIAA8OzIRm0PE7-42" target="ZxXYfscIAA8OzIRm0PE7-19" edge="1">
          <mxGeometry width="160" relative="1" as="geometry">
            <mxPoint x="-2190" y="1060" as="sourcePoint" />
            <mxPoint x="-2030" y="1060" as="targetPoint" />
          </mxGeometry>
        </mxCell>
        <mxCell id="pjxB05dCKxAqyayNs0aO-6" value="" style="endArrow=diamondThin;endFill=0;endSize=24;html=1;rounded=0;" parent="1" source="ZxXYfscIAA8OzIRm0PE7-7" target="W2CjeTMU-L_zSGK_U1bE-11" edge="1">
          <mxGeometry width="160" relative="1" as="geometry">
            <mxPoint x="-1030" y="620" as="sourcePoint" />
            <mxPoint x="-870" y="620" as="targetPoint" />
          </mxGeometry>
        </mxCell>
        <mxCell id="pjxB05dCKxAqyayNs0aO-7" value="" style="endArrow=diamondThin;endFill=0;endSize=24;html=1;rounded=0;" parent="1" source="ZxXYfscIAA8OzIRm0PE7-30" target="CLeRwn4w3gAS7lKz8R1s-32" edge="1">
          <mxGeometry width="160" relative="1" as="geometry">
            <mxPoint x="-2090" y="780" as="sourcePoint" />
            <mxPoint x="-1930" y="780" as="targetPoint" />
          </mxGeometry>
        </mxCell>
        <mxCell id="pjxB05dCKxAqyayNs0aO-8" value="" style="endArrow=diamondThin;endFill=0;endSize=24;html=1;rounded=0;" parent="1" source="W2CjeTMU-L_zSGK_U1bE-14" target="CLeRwn4w3gAS7lKz8R1s-32" edge="1">
          <mxGeometry width="160" relative="1" as="geometry">
            <mxPoint x="-1840" y="870" as="sourcePoint" />
            <mxPoint x="-1680" y="870" as="targetPoint" />
          </mxGeometry>
        </mxCell>
        <mxCell id="pjxB05dCKxAqyayNs0aO-9" value="" style="endArrow=none;html=1;rounded=0;" parent="1" source="CLeRwn4w3gAS7lKz8R1s-10" target="CLeRwn4w3gAS7lKz8R1s-1" edge="1">
          <mxGeometry width="50" height="50" relative="1" as="geometry">
            <mxPoint x="-1730" y="1180" as="sourcePoint" />
            <mxPoint x="-1680" y="1130" as="targetPoint" />
          </mxGeometry>
        </mxCell>
        <mxCell id="pjxB05dCKxAqyayNs0aO-10" value="" style="endArrow=none;html=1;rounded=0;" parent="1" source="KdBzGCH8AwDXqr2-iXCs-50" target="ZxXYfscIAA8OzIRm0PE7-176" edge="1">
          <mxGeometry width="50" height="50" relative="1" as="geometry">
            <mxPoint x="-1730" y="1180" as="sourcePoint" />
            <mxPoint x="-1680" y="1130" as="targetPoint" />
          </mxGeometry>
        </mxCell>
      </root>
    </mxGraphModel>
  </diagram>
  <diagram id="XffUtPEgKrmMesb69u2i" name="SequenceUML_1">
    <mxGraphModel dx="1785" dy="864" grid="1" gridSize="10" guides="1" tooltips="1" connect="1" arrows="1" fold="1" page="1" pageScale="1" pageWidth="850" pageHeight="1100" math="0" shadow="0">
      <root>
        <mxCell id="Co7wrHhqenKIrd31r7MH-0" />
        <mxCell id="Co7wrHhqenKIrd31r7MH-1" parent="Co7wrHhqenKIrd31r7MH-0" />
        <mxCell id="QghIc6pakRzRXUX8S_Vs-1" value="initializePlayers(input)" style="html=1;verticalAlign=bottom;endArrow=block;rounded=0;exitX=1;exitY=0.061;exitDx=0;exitDy=0;exitPerimeter=0;" parent="Co7wrHhqenKIrd31r7MH-1" edge="1">
          <mxGeometry x="-0.4013" width="80" relative="1" as="geometry">
            <mxPoint x="142.5" y="390.1199999999999" as="sourcePoint" />
            <mxPoint x="150" y="430" as="targetPoint" />
            <Array as="points">
              <mxPoint x="240" y="390" />
              <mxPoint x="240" y="430" />
            </Array>
            <mxPoint as="offset" />
          </mxGeometry>
        </mxCell>
        <mxCell id="bRydtuuLLRbxvX6fBRmT-0" value="&lt;b&gt;SYSC 3110 - Milestone 1&lt;/b&gt;&lt;br&gt;&lt;b&gt;Group 17&lt;/b&gt;&lt;br&gt;&lt;b&gt;Members:&lt;/b&gt;&lt;br&gt;Trong Nguyen 100848232 &lt;br&gt;&lt;span style=&quot;background-color: rgb(255 , 255 , 0)&quot;&gt;Francisco De Grano 101147447&lt;/span&gt; &lt;br&gt;Ibrahim Almalki 101142978 &lt;br&gt;Elisha Catherasoo 101148507&lt;br&gt;&lt;b&gt;Date: &lt;/b&gt;Oct. 25, 2021" style="text;html=1;strokeColor=none;fillColor=none;align=left;verticalAlign=middle;whiteSpace=wrap;rounded=0;" parent="Co7wrHhqenKIrd31r7MH-1" vertex="1">
          <mxGeometry x="20" y="950" width="200" height="130" as="geometry" />
        </mxCell>
        <mxCell id="sZtza83UBK4-0B3xUsRt-0" value="&lt;b&gt;Milestone 1&lt;br&gt;monopoly.Monopoly Project&lt;br&gt;Sequence UML Diagram&lt;br&gt;Creating Players&lt;br&gt;&lt;/b&gt;" style="text;html=1;align=center;verticalAlign=middle;resizable=0;points=[];autosize=1;strokeColor=none;fillColor=none;" parent="Co7wrHhqenKIrd31r7MH-1" vertex="1">
          <mxGeometry x="350" y="40" width="150" height="60" as="geometry" />
        </mxCell>
        <mxCell id="4AD2YYoUYtAZCLUV78N--0" value="&lt;b&gt;&lt;u&gt;:monopoly.Monopoly&lt;/u&gt;&lt;/b&gt;" style="html=1;align=center;" parent="Co7wrHhqenKIrd31r7MH-1" vertex="1">
          <mxGeometry x="80" y="140" width="110" height="50" as="geometry" />
        </mxCell>
        <mxCell id="4AD2YYoUYtAZCLUV78N--1" value="" style="endArrow=none;dashed=1;html=1;rounded=0;" parent="Co7wrHhqenKIrd31r7MH-1" source="4AD2YYoUYtAZCLUV78N--3" target="4AD2YYoUYtAZCLUV78N--0" edge="1">
          <mxGeometry width="50" height="50" relative="1" as="geometry">
            <mxPoint x="135" y="230" as="sourcePoint" />
            <mxPoint x="135" y="190" as="targetPoint" />
          </mxGeometry>
        </mxCell>
        <mxCell id="4AD2YYoUYtAZCLUV78N--2" value="" style="endArrow=none;dashed=1;html=1;rounded=0;" parent="Co7wrHhqenKIrd31r7MH-1" target="4AD2YYoUYtAZCLUV78N--3" edge="1">
          <mxGeometry width="50" height="50" relative="1" as="geometry">
            <mxPoint x="134.90000000000032" y="850" as="sourcePoint" />
            <mxPoint x="134.9" y="760" as="targetPoint" />
          </mxGeometry>
        </mxCell>
        <mxCell id="4AD2YYoUYtAZCLUV78N--3" value="" style="rounded=0;whiteSpace=wrap;html=1;align=left;" parent="Co7wrHhqenKIrd31r7MH-1" vertex="1">
          <mxGeometry x="125" y="230" width="20" height="670" as="geometry" />
        </mxCell>
        <mxCell id="4AD2YYoUYtAZCLUV78N--4" value="&amp;lt;&amp;lt;create&amp;gt;&amp;gt;" style="html=1;verticalAlign=bottom;startArrow=oval;startFill=1;endArrow=block;startSize=8;rounded=0;" parent="Co7wrHhqenKIrd31r7MH-1" edge="1">
          <mxGeometry width="60" relative="1" as="geometry">
            <mxPoint x="50" y="240" as="sourcePoint" />
            <mxPoint x="125" y="240" as="targetPoint" />
          </mxGeometry>
        </mxCell>
        <mxCell id="4AD2YYoUYtAZCLUV78N--5" value="&lt;b&gt;&lt;u&gt;:monopoly.Dice&lt;/u&gt;&lt;/b&gt;" style="html=1;align=center;" parent="Co7wrHhqenKIrd31r7MH-1" vertex="1">
          <mxGeometry x="240" y="140" width="110" height="50" as="geometry" />
        </mxCell>
        <mxCell id="4AD2YYoUYtAZCLUV78N--6" value="" style="endArrow=none;dashed=1;html=1;rounded=0;" parent="Co7wrHhqenKIrd31r7MH-1" source="4AD2YYoUYtAZCLUV78N--7" target="4AD2YYoUYtAZCLUV78N--5" edge="1">
          <mxGeometry width="50" height="50" relative="1" as="geometry">
            <mxPoint x="295" y="230" as="sourcePoint" />
            <mxPoint x="295" y="190" as="targetPoint" />
          </mxGeometry>
        </mxCell>
        <mxCell id="4AD2YYoUYtAZCLUV78N--10" value="&lt;b&gt;&lt;u&gt;:Gameboard&lt;/u&gt;&lt;/b&gt;" style="html=1;align=center;" parent="Co7wrHhqenKIrd31r7MH-1" vertex="1">
          <mxGeometry x="240" y="140" width="110" height="50" as="geometry" />
        </mxCell>
        <mxCell id="4AD2YYoUYtAZCLUV78N--11" value="" style="endArrow=none;dashed=1;html=1;rounded=0;startArrow=none;" parent="Co7wrHhqenKIrd31r7MH-1" source="4AD2YYoUYtAZCLUV78N--7" target="4AD2YYoUYtAZCLUV78N--10" edge="1">
          <mxGeometry width="50" height="50" relative="1" as="geometry">
            <mxPoint x="295" y="850" as="sourcePoint" />
            <mxPoint x="295" y="190" as="targetPoint" />
          </mxGeometry>
        </mxCell>
        <mxCell id="4AD2YYoUYtAZCLUV78N--13" value="&lt;b&gt;&lt;u&gt;:monopoly.HumanPlayer&lt;/u&gt;&lt;/b&gt;" style="html=1;align=center;" parent="Co7wrHhqenKIrd31r7MH-1" vertex="1">
          <mxGeometry x="570" y="140" width="110" height="50" as="geometry" />
        </mxCell>
        <mxCell id="4AD2YYoUYtAZCLUV78N--19" value="" style="endArrow=none;dashed=1;html=1;rounded=0;startArrow=none;entryX=0.5;entryY=1;entryDx=0;entryDy=0;" parent="Co7wrHhqenKIrd31r7MH-1" source="QghIc6pakRzRXUX8S_Vs-25" target="4AD2YYoUYtAZCLUV78N--13" edge="1">
          <mxGeometry width="50" height="50" relative="1" as="geometry">
            <mxPoint x="625" y="870" as="sourcePoint" />
            <mxPoint x="625" y="380" as="targetPoint" />
          </mxGeometry>
        </mxCell>
        <mxCell id="4AD2YYoUYtAZCLUV78N--20" value="&lt;b&gt;&lt;u&gt;:monopoly.Player&lt;/u&gt;&lt;/b&gt;" style="html=1;align=center;" parent="Co7wrHhqenKIrd31r7MH-1" vertex="1">
          <mxGeometry x="710" y="140" width="110" height="50" as="geometry" />
        </mxCell>
        <mxCell id="4AD2YYoUYtAZCLUV78N--22" value="" style="endArrow=none;dashed=1;html=1;rounded=0;startArrow=none;" parent="Co7wrHhqenKIrd31r7MH-1" source="4AD2YYoUYtAZCLUV78N--35" edge="1">
          <mxGeometry width="50" height="50" relative="1" as="geometry">
            <mxPoint x="765" y="920" as="sourcePoint" />
            <mxPoint x="765" y="190" as="targetPoint" />
          </mxGeometry>
        </mxCell>
        <mxCell id="4AD2YYoUYtAZCLUV78N--27" value="" style="endArrow=none;dashed=1;html=1;rounded=0;startArrow=none;" parent="Co7wrHhqenKIrd31r7MH-1" source="QghIc6pakRzRXUX8S_Vs-5" target="4AD2YYoUYtAZCLUV78N--28" edge="1">
          <mxGeometry width="50" height="50" relative="1" as="geometry">
            <mxPoint x="455" y="870" as="sourcePoint" />
            <mxPoint x="455" y="500" as="targetPoint" />
          </mxGeometry>
        </mxCell>
        <mxCell id="4AD2YYoUYtAZCLUV78N--28" value="" style="rounded=0;whiteSpace=wrap;html=1;align=left;" parent="Co7wrHhqenKIrd31r7MH-1" vertex="1">
          <mxGeometry x="445" y="310" width="20" height="70" as="geometry" />
        </mxCell>
        <mxCell id="4AD2YYoUYtAZCLUV78N--29" value="&lt;b&gt;&lt;u&gt;:monopoly.Input&lt;/u&gt;&lt;/b&gt;" style="html=1;align=center;" parent="Co7wrHhqenKIrd31r7MH-1" vertex="1">
          <mxGeometry x="400" y="140" width="110" height="50" as="geometry" />
        </mxCell>
        <mxCell id="4AD2YYoUYtAZCLUV78N--30" value="" style="endArrow=none;dashed=1;html=1;rounded=0;" parent="Co7wrHhqenKIrd31r7MH-1" source="4AD2YYoUYtAZCLUV78N--28" target="4AD2YYoUYtAZCLUV78N--29" edge="1">
          <mxGeometry width="50" height="50" relative="1" as="geometry">
            <mxPoint x="455.0000000000002" y="250" as="sourcePoint" />
            <mxPoint x="455" y="190" as="targetPoint" />
          </mxGeometry>
        </mxCell>
        <mxCell id="4AD2YYoUYtAZCLUV78N--39" value="Actor" style="shape=umlActor;verticalLabelPosition=bottom;verticalAlign=top;html=1;outlineConnect=0;" parent="Co7wrHhqenKIrd31r7MH-1" vertex="1">
          <mxGeometry x="10" y="210" width="30" height="60" as="geometry" />
        </mxCell>
        <mxCell id="4AD2YYoUYtAZCLUV78N--40" value="newInput()" style="html=1;verticalAlign=bottom;endArrow=block;rounded=0;exitX=1;exitY=0.061;exitDx=0;exitDy=0;exitPerimeter=0;" parent="Co7wrHhqenKIrd31r7MH-1" edge="1">
          <mxGeometry x="0.7377" width="80" relative="1" as="geometry">
            <mxPoint x="145" y="320.11999999999995" as="sourcePoint" />
            <mxPoint x="450" y="320" as="targetPoint" />
            <mxPoint as="offset" />
          </mxGeometry>
        </mxCell>
        <mxCell id="QghIc6pakRzRXUX8S_Vs-2" value="square" style="html=1;verticalAlign=bottom;endArrow=open;dashed=1;endSize=8;rounded=0;exitX=-0.018;exitY=0.849;exitDx=0;exitDy=0;exitPerimeter=0;" parent="Co7wrHhqenKIrd31r7MH-1" edge="1">
          <mxGeometry relative="1" as="geometry">
            <mxPoint x="614.9999999999999" y="250.47000000000003" as="sourcePoint" />
            <mxPoint x="470.36" y="250" as="targetPoint" />
          </mxGeometry>
        </mxCell>
        <mxCell id="QghIc6pakRzRXUX8S_Vs-3" value="" style="rounded=0;whiteSpace=wrap;html=1;align=left;" parent="Co7wrHhqenKIrd31r7MH-1" vertex="1">
          <mxGeometry x="130" y="380" width="20" height="500" as="geometry" />
        </mxCell>
        <mxCell id="QghIc6pakRzRXUX8S_Vs-0" value="" style="html=1;verticalAlign=bottom;endArrow=open;dashed=1;endSize=8;rounded=0;exitX=0;exitY=0.75;exitDx=0;exitDy=0;entryX=1.05;entryY=0.2;entryDx=0;entryDy=0;entryPerimeter=0;" parent="Co7wrHhqenKIrd31r7MH-1" source="4AD2YYoUYtAZCLUV78N--28" target="4AD2YYoUYtAZCLUV78N--3" edge="1">
          <mxGeometry relative="1" as="geometry">
            <mxPoint x="429.6399999999999" y="364.97" as="sourcePoint" />
            <mxPoint x="285" y="364.5" as="targetPoint" />
          </mxGeometry>
        </mxCell>
        <mxCell id="QghIc6pakRzRXUX8S_Vs-5" value="" style="rounded=0;whiteSpace=wrap;html=1;align=left;" parent="Co7wrHhqenKIrd31r7MH-1" vertex="1">
          <mxGeometry x="445" y="460" width="20" height="70" as="geometry" />
        </mxCell>
        <mxCell id="QghIc6pakRzRXUX8S_Vs-6" value="" style="endArrow=none;dashed=1;html=1;rounded=0;startArrow=none;" parent="Co7wrHhqenKIrd31r7MH-1" source="QghIc6pakRzRXUX8S_Vs-10" target="QghIc6pakRzRXUX8S_Vs-5" edge="1">
          <mxGeometry width="50" height="50" relative="1" as="geometry">
            <mxPoint x="455" y="870" as="sourcePoint" />
            <mxPoint x="455" y="380" as="targetPoint" />
          </mxGeometry>
        </mxCell>
        <mxCell id="QghIc6pakRzRXUX8S_Vs-4" value="inputInt()" style="html=1;verticalAlign=bottom;endArrow=block;rounded=0;" parent="Co7wrHhqenKIrd31r7MH-1" edge="1">
          <mxGeometry x="0.7333" width="80" relative="1" as="geometry">
            <mxPoint x="150" y="470" as="sourcePoint" />
            <mxPoint x="450" y="470" as="targetPoint" />
            <mxPoint as="offset" />
          </mxGeometry>
        </mxCell>
        <mxCell id="QghIc6pakRzRXUX8S_Vs-7" value="" style="rounded=0;whiteSpace=wrap;html=1;align=left;" parent="Co7wrHhqenKIrd31r7MH-1" vertex="1">
          <mxGeometry x="450" y="475" width="20" height="40" as="geometry" />
        </mxCell>
        <mxCell id="QghIc6pakRzRXUX8S_Vs-8" value="inputString()" style="html=1;verticalAlign=bottom;endArrow=block;rounded=0;exitX=1;exitY=0.061;exitDx=0;exitDy=0;exitPerimeter=0;entryX=1;entryY=0.75;entryDx=0;entryDy=0;" parent="Co7wrHhqenKIrd31r7MH-1" target="QghIc6pakRzRXUX8S_Vs-7" edge="1">
          <mxGeometry x="0.2744" y="-10" width="80" relative="1" as="geometry">
            <mxPoint x="470" y="480.1199999999999" as="sourcePoint" />
            <mxPoint x="474.5" y="519.9200000000001" as="targetPoint" />
            <Array as="points">
              <mxPoint x="567.5" y="480" />
              <mxPoint x="568" y="505" />
            </Array>
            <mxPoint as="offset" />
          </mxGeometry>
        </mxCell>
        <mxCell id="QghIc6pakRzRXUX8S_Vs-9" value="" style="html=1;verticalAlign=bottom;endArrow=open;dashed=1;endSize=8;rounded=0;exitX=0;exitY=0.75;exitDx=0;exitDy=0;entryX=1;entryY=0.234;entryDx=0;entryDy=0;entryPerimeter=0;" parent="Co7wrHhqenKIrd31r7MH-1" edge="1">
          <mxGeometry relative="1" as="geometry">
            <mxPoint x="445" y="520.73" as="sourcePoint" />
            <mxPoint x="145" y="519.27" as="targetPoint" />
          </mxGeometry>
        </mxCell>
        <mxCell id="QghIc6pakRzRXUX8S_Vs-10" value="" style="rounded=0;whiteSpace=wrap;html=1;align=left;" parent="Co7wrHhqenKIrd31r7MH-1" vertex="1">
          <mxGeometry x="445" y="560" width="20" height="70" as="geometry" />
        </mxCell>
        <mxCell id="QghIc6pakRzRXUX8S_Vs-11" value="" style="endArrow=none;dashed=1;html=1;rounded=0;startArrow=none;" parent="Co7wrHhqenKIrd31r7MH-1" source="QghIc6pakRzRXUX8S_Vs-16" target="QghIc6pakRzRXUX8S_Vs-10" edge="1">
          <mxGeometry width="50" height="50" relative="1" as="geometry">
            <mxPoint x="455" y="870" as="sourcePoint" />
            <mxPoint x="455" y="530" as="targetPoint" />
          </mxGeometry>
        </mxCell>
        <mxCell id="QghIc6pakRzRXUX8S_Vs-12" value="inputInt()" style="html=1;verticalAlign=bottom;endArrow=block;rounded=0;" parent="Co7wrHhqenKIrd31r7MH-1" edge="1">
          <mxGeometry x="0.7333" width="80" relative="1" as="geometry">
            <mxPoint x="150" y="569.5" as="sourcePoint" />
            <mxPoint x="450" y="569.5" as="targetPoint" />
            <mxPoint as="offset" />
          </mxGeometry>
        </mxCell>
        <mxCell id="QghIc6pakRzRXUX8S_Vs-13" value="" style="html=1;verticalAlign=bottom;endArrow=open;dashed=1;endSize=8;rounded=0;exitX=0;exitY=0.75;exitDx=0;exitDy=0;entryX=1;entryY=0.234;entryDx=0;entryDy=0;entryPerimeter=0;" parent="Co7wrHhqenKIrd31r7MH-1" edge="1">
          <mxGeometry relative="1" as="geometry">
            <mxPoint x="445" y="621.46" as="sourcePoint" />
            <mxPoint x="145" y="620" as="targetPoint" />
          </mxGeometry>
        </mxCell>
        <mxCell id="QghIc6pakRzRXUX8S_Vs-14" value="" style="rounded=0;whiteSpace=wrap;html=1;align=left;" parent="Co7wrHhqenKIrd31r7MH-1" vertex="1">
          <mxGeometry x="450" y="575" width="20" height="40" as="geometry" />
        </mxCell>
        <mxCell id="QghIc6pakRzRXUX8S_Vs-15" value="inputString()" style="html=1;verticalAlign=bottom;endArrow=block;rounded=0;exitX=1;exitY=0.061;exitDx=0;exitDy=0;exitPerimeter=0;entryX=1;entryY=0.75;entryDx=0;entryDy=0;" parent="Co7wrHhqenKIrd31r7MH-1" edge="1">
          <mxGeometry x="0.2744" y="-10" width="80" relative="1" as="geometry">
            <mxPoint x="470" y="582.6199999999999" as="sourcePoint" />
            <mxPoint x="470" y="607.5" as="targetPoint" />
            <Array as="points">
              <mxPoint x="567.5" y="582.5" />
              <mxPoint x="568" y="607.5" />
            </Array>
            <mxPoint as="offset" />
          </mxGeometry>
        </mxCell>
        <mxCell id="QghIc6pakRzRXUX8S_Vs-17" value="" style="endArrow=none;dashed=1;html=1;rounded=0;startArrow=none;" parent="Co7wrHhqenKIrd31r7MH-1" source="QghIc6pakRzRXUX8S_Vs-21" target="QghIc6pakRzRXUX8S_Vs-16" edge="1">
          <mxGeometry width="50" height="50" relative="1" as="geometry">
            <mxPoint x="455" y="870" as="sourcePoint" />
            <mxPoint x="455" y="630" as="targetPoint" />
          </mxGeometry>
        </mxCell>
        <mxCell id="QghIc6pakRzRXUX8S_Vs-19" value="inputString()" style="html=1;verticalAlign=bottom;endArrow=block;rounded=0;entryX=0;entryY=0.25;entryDx=0;entryDy=0;" parent="Co7wrHhqenKIrd31r7MH-1" target="QghIc6pakRzRXUX8S_Vs-16" edge="1">
          <mxGeometry x="0.7333" width="80" relative="1" as="geometry">
            <mxPoint x="150" y="670" as="sourcePoint" />
            <mxPoint x="450" y="670" as="targetPoint" />
            <mxPoint as="offset" />
          </mxGeometry>
        </mxCell>
        <mxCell id="QghIc6pakRzRXUX8S_Vs-20" value="" style="html=1;verticalAlign=bottom;endArrow=open;dashed=1;endSize=8;rounded=0;exitX=0;exitY=0.75;exitDx=0;exitDy=0;entryX=1;entryY=0.234;entryDx=0;entryDy=0;entryPerimeter=0;" parent="Co7wrHhqenKIrd31r7MH-1" source="QghIc6pakRzRXUX8S_Vs-16" edge="1">
          <mxGeometry relative="1" as="geometry">
            <mxPoint x="450" y="691.46" as="sourcePoint" />
            <mxPoint x="150" y="690" as="targetPoint" />
          </mxGeometry>
        </mxCell>
        <mxCell id="QghIc6pakRzRXUX8S_Vs-16" value="" style="rounded=0;whiteSpace=wrap;html=1;align=left;" parent="Co7wrHhqenKIrd31r7MH-1" vertex="1">
          <mxGeometry x="445" y="660" width="20" height="40" as="geometry" />
        </mxCell>
        <mxCell id="QghIc6pakRzRXUX8S_Vs-21" value="" style="rounded=0;whiteSpace=wrap;html=1;align=left;" parent="Co7wrHhqenKIrd31r7MH-1" vertex="1">
          <mxGeometry x="445" y="740" width="20" height="40" as="geometry" />
        </mxCell>
        <mxCell id="QghIc6pakRzRXUX8S_Vs-22" value="" style="endArrow=none;dashed=1;html=1;rounded=0;" parent="Co7wrHhqenKIrd31r7MH-1" target="QghIc6pakRzRXUX8S_Vs-21" edge="1">
          <mxGeometry width="50" height="50" relative="1" as="geometry">
            <mxPoint x="455" y="920" as="sourcePoint" />
            <mxPoint x="455" y="700" as="targetPoint" />
          </mxGeometry>
        </mxCell>
        <mxCell id="4AD2YYoUYtAZCLUV78N--8" value="new monopoly.GameBoard()" style="html=1;verticalAlign=bottom;endArrow=block;rounded=0;entryX=0;entryY=0.25;entryDx=0;entryDy=0;" parent="Co7wrHhqenKIrd31r7MH-1" target="4AD2YYoUYtAZCLUV78N--7" edge="1">
          <mxGeometry width="80" relative="1" as="geometry">
            <mxPoint x="150" y="273" as="sourcePoint" />
            <mxPoint x="290" y="271" as="targetPoint" />
          </mxGeometry>
        </mxCell>
        <mxCell id="4AD2YYoUYtAZCLUV78N--7" value="" style="rounded=0;whiteSpace=wrap;html=1;align=left;" parent="Co7wrHhqenKIrd31r7MH-1" vertex="1">
          <mxGeometry x="285" y="260" width="20" height="50" as="geometry" />
        </mxCell>
        <mxCell id="QghIc6pakRzRXUX8S_Vs-23" value="" style="endArrow=none;dashed=1;html=1;rounded=0;" parent="Co7wrHhqenKIrd31r7MH-1" target="4AD2YYoUYtAZCLUV78N--7" edge="1">
          <mxGeometry width="50" height="50" relative="1" as="geometry">
            <mxPoint x="295" y="920" as="sourcePoint" />
            <mxPoint x="295" y="190" as="targetPoint" />
          </mxGeometry>
        </mxCell>
        <mxCell id="QghIc6pakRzRXUX8S_Vs-24" value="" style="html=1;verticalAlign=bottom;endArrow=open;dashed=1;endSize=8;rounded=0;exitX=0;exitY=0.75;exitDx=0;exitDy=0;" parent="Co7wrHhqenKIrd31r7MH-1" edge="1">
          <mxGeometry relative="1" as="geometry">
            <mxPoint x="285" y="300" as="sourcePoint" />
            <mxPoint x="140" y="300" as="targetPoint" />
          </mxGeometry>
        </mxCell>
        <mxCell id="QghIc6pakRzRXUX8S_Vs-25" value="" style="rounded=0;whiteSpace=wrap;html=1;align=left;" parent="Co7wrHhqenKIrd31r7MH-1" vertex="1">
          <mxGeometry x="615" y="725" width="20" height="70" as="geometry" />
        </mxCell>
        <mxCell id="QghIc6pakRzRXUX8S_Vs-26" value="" style="endArrow=none;dashed=1;html=1;rounded=0;startArrow=none;" parent="Co7wrHhqenKIrd31r7MH-1" source="QghIc6pakRzRXUX8S_Vs-33" target="QghIc6pakRzRXUX8S_Vs-25" edge="1">
          <mxGeometry width="50" height="50" relative="1" as="geometry">
            <mxPoint x="625" y="920" as="sourcePoint" />
            <mxPoint x="625" y="380" as="targetPoint" />
          </mxGeometry>
        </mxCell>
        <mxCell id="QghIc6pakRzRXUX8S_Vs-27" value="&amp;lt;&amp;lt;create&amp;gt;&amp;gt;" style="html=1;verticalAlign=bottom;endArrow=block;rounded=0;entryX=-0.1;entryY=0.1;entryDx=0;entryDy=0;entryPerimeter=0;" parent="Co7wrHhqenKIrd31r7MH-1" target="QghIc6pakRzRXUX8S_Vs-25" edge="1">
          <mxGeometry x="0.7333" width="80" relative="1" as="geometry">
            <mxPoint x="150" y="730" as="sourcePoint" />
            <mxPoint x="445" y="730" as="targetPoint" />
            <mxPoint as="offset" />
          </mxGeometry>
        </mxCell>
        <mxCell id="QghIc6pakRzRXUX8S_Vs-28" value="&amp;lt;&amp;lt;create&amp;gt;&amp;gt;" style="html=1;verticalAlign=bottom;endArrow=block;rounded=0;entryX=1;entryY=0.25;entryDx=0;entryDy=0;exitX=-0.1;exitY=0.357;exitDx=0;exitDy=0;exitPerimeter=0;" parent="Co7wrHhqenKIrd31r7MH-1" source="QghIc6pakRzRXUX8S_Vs-25" target="QghIc6pakRzRXUX8S_Vs-21" edge="1">
          <mxGeometry x="0.2568" y="20" width="80" relative="1" as="geometry">
            <mxPoint x="580" y="750" as="sourcePoint" />
            <mxPoint x="615" y="810" as="targetPoint" />
            <mxPoint as="offset" />
          </mxGeometry>
        </mxCell>
        <mxCell id="QghIc6pakRzRXUX8S_Vs-29" value="" style="html=1;verticalAlign=bottom;endArrow=open;dashed=1;endSize=8;rounded=0;exitX=1;exitY=0.75;exitDx=0;exitDy=0;entryX=0.1;entryY=0.657;entryDx=0;entryDy=0;entryPerimeter=0;" parent="Co7wrHhqenKIrd31r7MH-1" source="QghIc6pakRzRXUX8S_Vs-21" target="QghIc6pakRzRXUX8S_Vs-25" edge="1">
          <mxGeometry relative="1" as="geometry">
            <mxPoint x="490" y="830" as="sourcePoint" />
            <mxPoint x="590" y="830" as="targetPoint" />
          </mxGeometry>
        </mxCell>
        <mxCell id="QghIc6pakRzRXUX8S_Vs-30" value="" style="html=1;verticalAlign=bottom;endArrow=open;dashed=1;endSize=8;rounded=0;exitX=0;exitY=0.75;exitDx=0;exitDy=0;entryX=1;entryY=0.82;entryDx=0;entryDy=0;entryPerimeter=0;" parent="Co7wrHhqenKIrd31r7MH-1" target="QghIc6pakRzRXUX8S_Vs-3" edge="1">
          <mxGeometry relative="1" as="geometry">
            <mxPoint x="615" y="790" as="sourcePoint" />
            <mxPoint x="320" y="790" as="targetPoint" />
          </mxGeometry>
        </mxCell>
        <mxCell id="4AD2YYoUYtAZCLUV78N--35" value="" style="rounded=0;whiteSpace=wrap;html=1;align=left;" parent="Co7wrHhqenKIrd31r7MH-1" vertex="1">
          <mxGeometry x="755" y="810" width="20" height="60" as="geometry" />
        </mxCell>
        <mxCell id="QghIc6pakRzRXUX8S_Vs-31" value="" style="endArrow=none;dashed=1;html=1;rounded=0;" parent="Co7wrHhqenKIrd31r7MH-1" target="4AD2YYoUYtAZCLUV78N--35" edge="1">
          <mxGeometry width="50" height="50" relative="1" as="geometry">
            <mxPoint x="765" y="920" as="sourcePoint" />
            <mxPoint x="765" y="190" as="targetPoint" />
          </mxGeometry>
        </mxCell>
        <mxCell id="QghIc6pakRzRXUX8S_Vs-32" value="printName" style="html=1;verticalAlign=bottom;endArrow=block;rounded=0;entryX=0;entryY=0;entryDx=0;entryDy=0;exitX=1.1;exitY=0.862;exitDx=0;exitDy=0;exitPerimeter=0;" parent="Co7wrHhqenKIrd31r7MH-1" source="QghIc6pakRzRXUX8S_Vs-3" target="4AD2YYoUYtAZCLUV78N--35" edge="1">
          <mxGeometry x="0.7333" width="80" relative="1" as="geometry">
            <mxPoint x="150" y="820" as="sourcePoint" />
            <mxPoint x="613" y="822" as="targetPoint" />
            <mxPoint as="offset" />
          </mxGeometry>
        </mxCell>
        <mxCell id="QghIc6pakRzRXUX8S_Vs-33" value="" style="rounded=0;whiteSpace=wrap;html=1;align=left;" parent="Co7wrHhqenKIrd31r7MH-1" vertex="1">
          <mxGeometry x="615" y="820" width="20" height="40" as="geometry" />
        </mxCell>
        <mxCell id="QghIc6pakRzRXUX8S_Vs-34" value="" style="endArrow=none;dashed=1;html=1;rounded=0;" parent="Co7wrHhqenKIrd31r7MH-1" target="QghIc6pakRzRXUX8S_Vs-33" edge="1">
          <mxGeometry width="50" height="50" relative="1" as="geometry">
            <mxPoint x="625" y="920" as="sourcePoint" />
            <mxPoint x="625" y="795" as="targetPoint" />
          </mxGeometry>
        </mxCell>
        <mxCell id="QghIc6pakRzRXUX8S_Vs-35" value="" style="html=1;verticalAlign=bottom;endArrow=open;dashed=1;endSize=8;rounded=0;exitX=0;exitY=0.75;exitDx=0;exitDy=0;" parent="Co7wrHhqenKIrd31r7MH-1" edge="1">
          <mxGeometry relative="1" as="geometry">
            <mxPoint x="755" y="830" as="sourcePoint" />
            <mxPoint x="640" y="830" as="targetPoint" />
          </mxGeometry>
        </mxCell>
        <mxCell id="QghIc6pakRzRXUX8S_Vs-36" value="name()" style="edgeLabel;html=1;align=center;verticalAlign=middle;resizable=0;points=[];" parent="QghIc6pakRzRXUX8S_Vs-35" vertex="1" connectable="0">
          <mxGeometry x="0.0783" y="2" relative="1" as="geometry">
            <mxPoint as="offset" />
          </mxGeometry>
        </mxCell>
        <mxCell id="QghIc6pakRzRXUX8S_Vs-37" value="" style="html=1;verticalAlign=bottom;endArrow=open;dashed=1;endSize=8;rounded=0;exitX=1;exitY=0.75;exitDx=0;exitDy=0;" parent="Co7wrHhqenKIrd31r7MH-1" edge="1">
          <mxGeometry relative="1" as="geometry">
            <mxPoint x="635" y="850" as="sourcePoint" />
            <mxPoint x="760" y="851" as="targetPoint" />
          </mxGeometry>
        </mxCell>
        <mxCell id="QghIc6pakRzRXUX8S_Vs-38" value="" style="html=1;verticalAlign=bottom;endArrow=open;dashed=1;endSize=8;rounded=0;exitX=0.1;exitY=0.9;exitDx=0;exitDy=0;entryX=1.1;entryY=0.966;entryDx=0;entryDy=0;entryPerimeter=0;exitPerimeter=0;" parent="Co7wrHhqenKIrd31r7MH-1" source="4AD2YYoUYtAZCLUV78N--35" target="QghIc6pakRzRXUX8S_Vs-3" edge="1">
          <mxGeometry relative="1" as="geometry">
            <mxPoint x="615" y="870" as="sourcePoint" />
            <mxPoint x="150" y="870" as="targetPoint" />
          </mxGeometry>
        </mxCell>
      </root>
    </mxGraphModel>
  </diagram>
  <diagram id="-txxfOTkQ1kRTPlxqBoD" name="SequenceUML_2">
    <mxGraphModel dx="2142" dy="1037" grid="1" gridSize="10" guides="1" tooltips="1" connect="1" arrows="1" fold="1" page="1" pageScale="1" pageWidth="850" pageHeight="1100" math="0" shadow="0">
      <root>
        <mxCell id="-WylLxvhES9tMEfpEf2A-0" />
        <mxCell id="-WylLxvhES9tMEfpEf2A-1" parent="-WylLxvhES9tMEfpEf2A-0" />
        <mxCell id="22KVkk6X5t-UDyiWolYV-0" value="&lt;b&gt;SYSC 3110 - Milestone 1&lt;/b&gt;&lt;br&gt;&lt;b&gt;Group 17&lt;/b&gt;&lt;br&gt;&lt;b&gt;Members:&lt;/b&gt;&lt;br&gt;Trong Nguyen 100848232 &lt;br&gt;Francisco De Grano 101147447 &lt;br&gt;&lt;span style=&quot;background-color: rgb(255 , 255 , 255)&quot;&gt;Ibrahim Almalki 101142978 &lt;br&gt;&lt;/span&gt;&lt;span style=&quot;background-color: rgb(255 , 255 , 153)&quot;&gt;Elisha Catherasoo 101148507&lt;br&gt;&lt;/span&gt;&lt;b&gt;Date: &lt;/b&gt;Oct. 25, 2021" style="text;html=1;strokeColor=none;fillColor=none;align=left;verticalAlign=middle;whiteSpace=wrap;rounded=0;" parent="-WylLxvhES9tMEfpEf2A-1" vertex="1">
          <mxGeometry x="20" y="950" width="200" height="130" as="geometry" />
        </mxCell>
        <mxCell id="k-0YQi6KQiDv_b2kLDK9-0" value="&lt;b&gt;Milestone 1&lt;br&gt;monopoly.Monopoly Project&lt;br&gt;Sequence UML Diagram&lt;br&gt;Buy monopoly.Property&lt;br&gt;&lt;/b&gt;" style="text;html=1;align=center;verticalAlign=middle;resizable=0;points=[];autosize=1;strokeColor=none;fillColor=none;" parent="-WylLxvhES9tMEfpEf2A-1" vertex="1">
          <mxGeometry x="360" y="40" width="150" height="60" as="geometry" />
        </mxCell>
        <mxCell id="k-0YQi6KQiDv_b2kLDK9-1" value="&lt;b&gt;&lt;u&gt;:monopoly.Monopoly&lt;/u&gt;&lt;/b&gt;" style="html=1;align=center;" parent="-WylLxvhES9tMEfpEf2A-1" vertex="1">
          <mxGeometry x="230" y="120" width="110" height="50" as="geometry" />
        </mxCell>
        <mxCell id="k-0YQi6KQiDv_b2kLDK9-2" value=":monopoly.Square" style="html=1;align=center;fontStyle=5" parent="-WylLxvhES9tMEfpEf2A-1" vertex="1">
          <mxGeometry x="380" y="120" width="110" height="50" as="geometry" />
        </mxCell>
        <mxCell id="k-0YQi6KQiDv_b2kLDK9-3" value="" style="edgeStyle=orthogonalEdgeStyle;rounded=0;orthogonalLoop=1;jettySize=auto;html=1;strokeColor=none;dashed=1;" parent="-WylLxvhES9tMEfpEf2A-1" source="k-0YQi6KQiDv_b2kLDK9-4" target="k-0YQi6KQiDv_b2kLDK9-7" edge="1">
          <mxGeometry relative="1" as="geometry" />
        </mxCell>
        <mxCell id="k-0YQi6KQiDv_b2kLDK9-4" value="&lt;u&gt;&lt;b&gt;:monopoly.Player&lt;/b&gt;&lt;/u&gt;" style="html=1;align=center;" parent="-WylLxvhES9tMEfpEf2A-1" vertex="1">
          <mxGeometry x="530" y="120" width="110" height="50" as="geometry" />
        </mxCell>
        <mxCell id="k-0YQi6KQiDv_b2kLDK9-5" value="" style="rounded=0;whiteSpace=wrap;html=1;align=left;" parent="-WylLxvhES9tMEfpEf2A-1" vertex="1">
          <mxGeometry x="275" y="230" width="20" height="450" as="geometry" />
        </mxCell>
        <mxCell id="k-0YQi6KQiDv_b2kLDK9-6" value="buyProperty(monopoly.Player, monopoly.Square)" style="html=1;verticalAlign=bottom;startArrow=oval;startFill=1;endArrow=block;startSize=8;rounded=0;" parent="-WylLxvhES9tMEfpEf2A-1" edge="1">
          <mxGeometry width="60" relative="1" as="geometry">
            <mxPoint x="50" y="145" as="sourcePoint" />
            <mxPoint x="215" y="144.5" as="targetPoint" />
          </mxGeometry>
        </mxCell>
        <mxCell id="k-0YQi6KQiDv_b2kLDK9-7" value="" style="rounded=0;whiteSpace=wrap;html=1;align=left;" parent="-WylLxvhES9tMEfpEf2A-1" vertex="1">
          <mxGeometry x="575" y="300" width="20" height="60" as="geometry" />
        </mxCell>
        <mxCell id="k-0YQi6KQiDv_b2kLDK9-8" value="addProperty(monopoly.Square)" style="html=1;verticalAlign=bottom;endArrow=block;rounded=0;entryX=0;entryY=0.25;entryDx=0;entryDy=0;exitX=1.05;exitY=0.2;exitDx=0;exitDy=0;exitPerimeter=0;" parent="-WylLxvhES9tMEfpEf2A-1" source="k-0YQi6KQiDv_b2kLDK9-5" target="k-0YQi6KQiDv_b2kLDK9-7" edge="1">
          <mxGeometry width="80" relative="1" as="geometry">
            <mxPoint x="300" y="305" as="sourcePoint" />
            <mxPoint x="428" y="250" as="targetPoint" />
          </mxGeometry>
        </mxCell>
        <mxCell id="k-0YQi6KQiDv_b2kLDK9-9" value="&lt;div align=&quot;center&quot;&gt;&lt;br&gt;&lt;/div&gt;" style="html=1;verticalAlign=bottom;endArrow=open;dashed=1;endSize=8;rounded=0;align=left;exitX=0;exitY=0.75;exitDx=0;exitDy=0;entryX=1.1;entryY=0.269;entryDx=0;entryDy=0;entryPerimeter=0;" parent="-WylLxvhES9tMEfpEf2A-1" source="k-0YQi6KQiDv_b2kLDK9-7" target="k-0YQi6KQiDv_b2kLDK9-5" edge="1">
          <mxGeometry x="0.0001" relative="1" as="geometry">
            <mxPoint x="900" y="320" as="sourcePoint" />
            <mxPoint x="300" y="335" as="targetPoint" />
            <Array as="points" />
            <mxPoint as="offset" />
          </mxGeometry>
        </mxCell>
        <mxCell id="k-0YQi6KQiDv_b2kLDK9-10" value="" style="endArrow=none;dashed=1;html=1;dashPattern=1 3;strokeWidth=2;rounded=0;entryX=0.5;entryY=1;entryDx=0;entryDy=0;" parent="-WylLxvhES9tMEfpEf2A-1" target="k-0YQi6KQiDv_b2kLDK9-4" edge="1">
          <mxGeometry width="50" height="50" relative="1" as="geometry">
            <mxPoint x="585" y="300" as="sourcePoint" />
            <mxPoint x="670" y="200" as="targetPoint" />
          </mxGeometry>
        </mxCell>
        <mxCell id="k-0YQi6KQiDv_b2kLDK9-11" value="" style="endArrow=none;dashed=1;html=1;dashPattern=1 3;strokeWidth=2;rounded=0;exitX=0.5;exitY=0;exitDx=0;exitDy=0;entryX=0.5;entryY=1;entryDx=0;entryDy=0;" parent="-WylLxvhES9tMEfpEf2A-1" source="k-0YQi6KQiDv_b2kLDK9-5" target="k-0YQi6KQiDv_b2kLDK9-1" edge="1">
          <mxGeometry width="50" height="50" relative="1" as="geometry">
            <mxPoint x="284.5" y="230" as="sourcePoint" />
            <mxPoint x="284.5" y="170" as="targetPoint" />
          </mxGeometry>
        </mxCell>
        <mxCell id="k-0YQi6KQiDv_b2kLDK9-12" value="" style="endArrow=none;dashed=1;html=1;dashPattern=1 3;strokeWidth=2;rounded=0;exitX=0.5;exitY=0;exitDx=0;exitDy=0;entryX=0.5;entryY=1;entryDx=0;entryDy=0;" parent="-WylLxvhES9tMEfpEf2A-1" source="k-0YQi6KQiDv_b2kLDK9-16" target="k-0YQi6KQiDv_b2kLDK9-2" edge="1">
          <mxGeometry width="50" height="50" relative="1" as="geometry">
            <mxPoint x="435" y="360" as="sourcePoint" />
            <mxPoint x="434.5" y="170" as="targetPoint" />
          </mxGeometry>
        </mxCell>
        <mxCell id="k-0YQi6KQiDv_b2kLDK9-13" value="purchase(monopoly.Player)" style="html=1;verticalAlign=bottom;endArrow=block;rounded=0;entryX=0;entryY=0.25;entryDx=0;entryDy=0;exitX=1.05;exitY=0.367;exitDx=0;exitDy=0;exitPerimeter=0;" parent="-WylLxvhES9tMEfpEf2A-1" source="k-0YQi6KQiDv_b2kLDK9-5" target="k-0YQi6KQiDv_b2kLDK9-15" edge="1">
          <mxGeometry width="80" relative="1" as="geometry">
            <mxPoint x="300" y="388" as="sourcePoint" />
            <mxPoint x="425" y="377.5" as="targetPoint" />
          </mxGeometry>
        </mxCell>
        <mxCell id="k-0YQi6KQiDv_b2kLDK9-14" value="&lt;div align=&quot;center&quot;&gt;&lt;br&gt;&lt;/div&gt;" style="html=1;verticalAlign=bottom;endArrow=open;dashed=1;endSize=8;rounded=0;align=left;exitX=0;exitY=0.75;exitDx=0;exitDy=0;" parent="-WylLxvhES9tMEfpEf2A-1" source="k-0YQi6KQiDv_b2kLDK9-15" edge="1">
          <mxGeometry x="0.0001" relative="1" as="geometry">
            <mxPoint x="425" y="412.5" as="sourcePoint" />
            <mxPoint x="300" y="425" as="targetPoint" />
            <Array as="points" />
            <mxPoint as="offset" />
          </mxGeometry>
        </mxCell>
        <mxCell id="k-0YQi6KQiDv_b2kLDK9-15" value="" style="rounded=0;whiteSpace=wrap;html=1;align=left;" parent="-WylLxvhES9tMEfpEf2A-1" vertex="1">
          <mxGeometry x="425" y="380" width="20" height="60" as="geometry" />
        </mxCell>
        <mxCell id="k-0YQi6KQiDv_b2kLDK9-16" value="" style="rounded=0;whiteSpace=wrap;html=1;align=left;" parent="-WylLxvhES9tMEfpEf2A-1" vertex="1">
          <mxGeometry x="425" y="230" width="20" height="60" as="geometry" />
        </mxCell>
        <mxCell id="k-0YQi6KQiDv_b2kLDK9-17" value="" style="endArrow=none;dashed=1;html=1;dashPattern=1 3;strokeWidth=2;rounded=0;exitX=0.5;exitY=0;exitDx=0;exitDy=0;entryX=0.5;entryY=1;entryDx=0;entryDy=0;" parent="-WylLxvhES9tMEfpEf2A-1" source="k-0YQi6KQiDv_b2kLDK9-15" target="k-0YQi6KQiDv_b2kLDK9-16" edge="1">
          <mxGeometry width="50" height="50" relative="1" as="geometry">
            <mxPoint x="445" y="240" as="sourcePoint" />
            <mxPoint x="445" y="180" as="targetPoint" />
          </mxGeometry>
        </mxCell>
        <mxCell id="k-0YQi6KQiDv_b2kLDK9-18" value="" style="endArrow=none;dashed=1;html=1;dashPattern=1 3;strokeWidth=2;rounded=0;entryX=0.5;entryY=1;entryDx=0;entryDy=0;" parent="-WylLxvhES9tMEfpEf2A-1" target="k-0YQi6KQiDv_b2kLDK9-15" edge="1">
          <mxGeometry width="50" height="50" relative="1" as="geometry">
            <mxPoint x="435" y="720" as="sourcePoint" />
            <mxPoint x="455" y="190" as="targetPoint" />
          </mxGeometry>
        </mxCell>
        <mxCell id="k-0YQi6KQiDv_b2kLDK9-19" value="" style="endArrow=none;dashed=1;html=1;dashPattern=1 3;strokeWidth=2;rounded=0;entryX=0.5;entryY=1;entryDx=0;entryDy=0;" parent="-WylLxvhES9tMEfpEf2A-1" target="k-0YQi6KQiDv_b2kLDK9-5" edge="1">
          <mxGeometry width="50" height="50" relative="1" as="geometry">
            <mxPoint x="285" y="720" as="sourcePoint" />
            <mxPoint x="445" y="450" as="targetPoint" />
          </mxGeometry>
        </mxCell>
        <mxCell id="k-0YQi6KQiDv_b2kLDK9-20" value="isOwnable()" style="html=1;verticalAlign=bottom;endArrow=block;rounded=0;entryX=0;entryY=0.25;entryDx=0;entryDy=0;exitX=1;exitY=0.04;exitDx=0;exitDy=0;exitPerimeter=0;" parent="-WylLxvhES9tMEfpEf2A-1" source="k-0YQi6KQiDv_b2kLDK9-5" target="k-0YQi6KQiDv_b2kLDK9-16" edge="1">
          <mxGeometry width="80" relative="1" as="geometry">
            <mxPoint x="310" y="270" as="sourcePoint" />
            <mxPoint x="435" y="405" as="targetPoint" />
          </mxGeometry>
        </mxCell>
        <mxCell id="k-0YQi6KQiDv_b2kLDK9-21" value="&lt;div align=&quot;center&quot;&gt;booolean&lt;/div&gt;" style="html=1;verticalAlign=bottom;endArrow=open;dashed=1;endSize=8;rounded=0;exitX=0;exitY=0.75;exitDx=0;exitDy=0;entryX=1.15;entryY=0.104;entryDx=0;entryDy=0;entryPerimeter=0;align=center;" parent="-WylLxvhES9tMEfpEf2A-1" source="k-0YQi6KQiDv_b2kLDK9-16" target="k-0YQi6KQiDv_b2kLDK9-5" edge="1">
          <mxGeometry x="-0.037" relative="1" as="geometry">
            <mxPoint x="465" y="277.52" as="sourcePoint" />
            <mxPoint x="330" y="278" as="targetPoint" />
            <mxPoint as="offset" />
          </mxGeometry>
        </mxCell>
        <mxCell id="k-0YQi6KQiDv_b2kLDK9-22" value="" style="endArrow=none;dashed=1;html=1;dashPattern=1 3;strokeWidth=2;rounded=0;entryX=0.5;entryY=1;entryDx=0;entryDy=0;" parent="-WylLxvhES9tMEfpEf2A-1" target="k-0YQi6KQiDv_b2kLDK9-7" edge="1">
          <mxGeometry width="50" height="50" relative="1" as="geometry">
            <mxPoint x="585" y="720" as="sourcePoint" />
            <mxPoint x="584.5" y="380" as="targetPoint" />
          </mxGeometry>
        </mxCell>
      </root>
    </mxGraphModel>
  </diagram>
  <diagram id="OrBpavm2CPyqXRYcLLhL" name="SequenceUML_3">
    <mxGraphModel dx="2142" dy="1037" grid="1" gridSize="10" guides="1" tooltips="1" connect="1" arrows="1" fold="1" page="1" pageScale="1" pageWidth="850" pageHeight="1100" math="0" shadow="0">
      <root>
        <mxCell id="KKXnHeYwspyIdZ1s28OH-0" />
        <mxCell id="KKXnHeYwspyIdZ1s28OH-1" parent="KKXnHeYwspyIdZ1s28OH-0" />
        <mxCell id="RVXRHabWM0mwxIrZKJIo-0" value="&lt;b&gt;SYSC 3110 - Milestone 1&lt;/b&gt;&lt;br&gt;&lt;b&gt;Group 17&lt;/b&gt;&lt;br&gt;&lt;b&gt;Members:&lt;/b&gt;&lt;br&gt;Trong Nguyen 100848232 &lt;br&gt;Francisco De Grano 101147447 &lt;br&gt;&lt;span style=&quot;background-color: rgb(255 , 255 , 153)&quot;&gt;Ibrahim Almalki 101142978 &lt;br&gt;&lt;/span&gt;Elisha Catherasoo 101148507&lt;br&gt;&lt;b&gt;Date: &lt;/b&gt;Oct. 25, 2021" style="text;html=1;strokeColor=none;fillColor=none;align=left;verticalAlign=middle;whiteSpace=wrap;rounded=0;" parent="KKXnHeYwspyIdZ1s28OH-1" vertex="1">
          <mxGeometry x="20" y="950" width="200" height="130" as="geometry" />
        </mxCell>
        <mxCell id="iFL6kvPqIk-uT9WlqfhW-0" value="&lt;b style=&quot;color: rgb(0 , 0 , 0) ; font-family: &amp;#34;helvetica&amp;#34; ; font-size: 12px ; font-style: normal ; letter-spacing: normal ; text-indent: 0px ; text-transform: none ; word-spacing: 0px ; background-color: rgb(248 , 249 , 250)&quot;&gt;Milestone 1&lt;br&gt;monopoly.Monopoly Project&lt;br&gt;Sequence UML Diagram&lt;br&gt;&lt;div&gt;&lt;b&gt;monopoly.Player Position&lt;/b&gt;&lt;/div&gt;&lt;/b&gt;" style="text;whiteSpace=wrap;html=1;align=center;" parent="KKXnHeYwspyIdZ1s28OH-1" vertex="1">
          <mxGeometry x="345" y="30" width="160" height="70" as="geometry" />
        </mxCell>
        <mxCell id="jTgPPwV_8Qs9MSZLGLhv-2" value="&lt;b&gt;&lt;u&gt;:monopoly.Monopoly&lt;/u&gt;&lt;/b&gt;" style="html=1;align=center;" parent="KKXnHeYwspyIdZ1s28OH-1" vertex="1">
          <mxGeometry x="136" y="140" width="110" height="50" as="geometry" />
        </mxCell>
        <mxCell id="jTgPPwV_8Qs9MSZLGLhv-3" value="" style="endArrow=none;dashed=1;html=1;rounded=0;" parent="KKXnHeYwspyIdZ1s28OH-1" source="jTgPPwV_8Qs9MSZLGLhv-5" target="jTgPPwV_8Qs9MSZLGLhv-2" edge="1">
          <mxGeometry width="50" height="50" relative="1" as="geometry">
            <mxPoint x="187" y="230" as="sourcePoint" />
            <mxPoint x="187" y="190" as="targetPoint" />
          </mxGeometry>
        </mxCell>
        <mxCell id="jTgPPwV_8Qs9MSZLGLhv-4" value="" style="endArrow=none;dashed=1;html=1;rounded=0;" parent="KKXnHeYwspyIdZ1s28OH-1" edge="1">
          <mxGeometry width="50" height="50" relative="1" as="geometry">
            <mxPoint x="190.9000000000001" y="850" as="sourcePoint" />
            <mxPoint x="190.9176470588236" y="790" as="targetPoint" />
          </mxGeometry>
        </mxCell>
        <mxCell id="jTgPPwV_8Qs9MSZLGLhv-5" value="" style="rounded=0;whiteSpace=wrap;html=1;align=left;" parent="KKXnHeYwspyIdZ1s28OH-1" vertex="1">
          <mxGeometry x="180" y="230" width="20" height="550" as="geometry" />
        </mxCell>
        <mxCell id="jTgPPwV_8Qs9MSZLGLhv-6" value="printState()" style="html=1;verticalAlign=bottom;startArrow=oval;startFill=1;endArrow=block;startSize=8;rounded=0;" parent="KKXnHeYwspyIdZ1s28OH-1" edge="1">
          <mxGeometry width="60" relative="1" as="geometry">
            <mxPoint x="72" y="240" as="sourcePoint" />
            <mxPoint x="177" y="240" as="targetPoint" />
          </mxGeometry>
        </mxCell>
        <mxCell id="jTgPPwV_8Qs9MSZLGLhv-14" value="" style="rounded=0;whiteSpace=wrap;html=1;align=left;" parent="KKXnHeYwspyIdZ1s28OH-1" vertex="1">
          <mxGeometry x="567" y="347" width="20" height="90" as="geometry" />
        </mxCell>
        <mxCell id="jTgPPwV_8Qs9MSZLGLhv-15" value="&lt;b&gt;&lt;u&gt;:monopoly.GameBoard&lt;/u&gt;&lt;/b&gt;" style="html=1;align=center;" parent="KKXnHeYwspyIdZ1s28OH-1" vertex="1">
          <mxGeometry x="522" y="140" width="110" height="50" as="geometry" />
        </mxCell>
        <mxCell id="jTgPPwV_8Qs9MSZLGLhv-16" value="" style="endArrow=none;dashed=1;html=1;rounded=0;" parent="KKXnHeYwspyIdZ1s28OH-1" source="jTgPPwV_8Qs9MSZLGLhv-14" target="jTgPPwV_8Qs9MSZLGLhv-15" edge="1">
          <mxGeometry width="50" height="50" relative="1" as="geometry">
            <mxPoint x="577.0000000000002" y="250" as="sourcePoint" />
            <mxPoint x="577" y="190" as="targetPoint" />
          </mxGeometry>
        </mxCell>
        <mxCell id="jTgPPwV_8Qs9MSZLGLhv-17" value="getBoard()" style="html=1;verticalAlign=bottom;endArrow=block;rounded=0;" parent="KKXnHeYwspyIdZ1s28OH-1" edge="1">
          <mxGeometry width="80" relative="1" as="geometry">
            <mxPoint x="422" y="378" as="sourcePoint" />
            <mxPoint x="562" y="378" as="targetPoint" />
          </mxGeometry>
        </mxCell>
        <mxCell id="jTgPPwV_8Qs9MSZLGLhv-18" value="square" style="html=1;verticalAlign=bottom;endArrow=open;dashed=1;endSize=8;rounded=0;" parent="KKXnHeYwspyIdZ1s28OH-1" edge="1">
          <mxGeometry relative="1" as="geometry">
            <mxPoint x="562" y="412" as="sourcePoint" />
            <mxPoint x="422" y="412" as="targetPoint" />
          </mxGeometry>
        </mxCell>
        <mxCell id="jTgPPwV_8Qs9MSZLGLhv-21" value="" style="endArrow=none;dashed=1;html=1;rounded=0;" parent="KKXnHeYwspyIdZ1s28OH-1" target="jTgPPwV_8Qs9MSZLGLhv-14" edge="1">
          <mxGeometry width="50" height="50" relative="1" as="geometry">
            <mxPoint x="577" y="870" as="sourcePoint" />
            <mxPoint x="612" y="460" as="targetPoint" />
          </mxGeometry>
        </mxCell>
        <mxCell id="jTgPPwV_8Qs9MSZLGLhv-22" value="&lt;b&gt;&lt;u&gt;:monopoly.Player&lt;/u&gt;&lt;/b&gt;" style="html=1;align=center;" parent="KKXnHeYwspyIdZ1s28OH-1" vertex="1">
          <mxGeometry x="662" y="140" width="110" height="50" as="geometry" />
        </mxCell>
        <mxCell id="jTgPPwV_8Qs9MSZLGLhv-24" value="" style="endArrow=none;dashed=1;html=1;rounded=0;exitX=0.5;exitY=0;exitDx=0;exitDy=0;" parent="KKXnHeYwspyIdZ1s28OH-1" source="jTgPPwV_8Qs9MSZLGLhv-27" edge="1">
          <mxGeometry width="50" height="50" relative="1" as="geometry">
            <mxPoint x="717" y="400" as="sourcePoint" />
            <mxPoint x="717" y="190" as="targetPoint" />
          </mxGeometry>
        </mxCell>
        <mxCell id="jTgPPwV_8Qs9MSZLGLhv-27" value="" style="rounded=0;whiteSpace=wrap;html=1;align=left;" parent="KKXnHeYwspyIdZ1s28OH-1" vertex="1">
          <mxGeometry x="707" y="490" width="20" height="80" as="geometry" />
        </mxCell>
        <mxCell id="jTgPPwV_8Qs9MSZLGLhv-28" value="getPosition()" style="html=1;verticalAlign=bottom;endArrow=block;rounded=0;entryX=0;entryY=0.25;entryDx=0;entryDy=0;" parent="KKXnHeYwspyIdZ1s28OH-1" target="jTgPPwV_8Qs9MSZLGLhv-27" edge="1">
          <mxGeometry width="80" relative="1" as="geometry">
            <mxPoint x="432" y="510" as="sourcePoint" />
            <mxPoint x="707" y="535.24" as="targetPoint" />
          </mxGeometry>
        </mxCell>
        <mxCell id="jTgPPwV_8Qs9MSZLGLhv-29" value="" style="endArrow=none;dashed=1;html=1;rounded=0;" parent="KKXnHeYwspyIdZ1s28OH-1" target="jTgPPwV_8Qs9MSZLGLhv-30" edge="1">
          <mxGeometry width="50" height="50" relative="1" as="geometry">
            <mxPoint x="407" y="870" as="sourcePoint" />
            <mxPoint x="407" y="500" as="targetPoint" />
          </mxGeometry>
        </mxCell>
        <mxCell id="jTgPPwV_8Qs9MSZLGLhv-30" value="" style="rounded=0;whiteSpace=wrap;html=1;align=left;" parent="KKXnHeYwspyIdZ1s28OH-1" vertex="1">
          <mxGeometry x="397" y="310" width="20" height="450" as="geometry" />
        </mxCell>
        <mxCell id="jTgPPwV_8Qs9MSZLGLhv-31" value="&lt;b&gt;&lt;u&gt;:GameState&lt;/u&gt;&lt;/b&gt;" style="html=1;align=center;" parent="KKXnHeYwspyIdZ1s28OH-1" vertex="1">
          <mxGeometry x="352" y="140" width="110" height="50" as="geometry" />
        </mxCell>
        <mxCell id="jTgPPwV_8Qs9MSZLGLhv-32" value="" style="endArrow=none;dashed=1;html=1;rounded=0;" parent="KKXnHeYwspyIdZ1s28OH-1" source="jTgPPwV_8Qs9MSZLGLhv-30" target="jTgPPwV_8Qs9MSZLGLhv-31" edge="1">
          <mxGeometry width="50" height="50" relative="1" as="geometry">
            <mxPoint x="407.0000000000002" y="250" as="sourcePoint" />
            <mxPoint x="407" y="190" as="targetPoint" />
          </mxGeometry>
        </mxCell>
        <mxCell id="jTgPPwV_8Qs9MSZLGLhv-33" value="int" style="html=1;verticalAlign=bottom;endArrow=open;dashed=1;endSize=8;rounded=0;" parent="KKXnHeYwspyIdZ1s28OH-1" edge="1">
          <mxGeometry relative="1" as="geometry">
            <mxPoint x="702" y="540" as="sourcePoint" />
            <mxPoint x="422" y="540" as="targetPoint" />
          </mxGeometry>
        </mxCell>
        <mxCell id="jTgPPwV_8Qs9MSZLGLhv-34" value="" style="html=1;verticalAlign=bottom;endArrow=block;rounded=0;" parent="KKXnHeYwspyIdZ1s28OH-1" edge="1">
          <mxGeometry width="80" relative="1" as="geometry">
            <mxPoint x="202" y="350" as="sourcePoint" />
            <mxPoint x="395" y="350" as="targetPoint" />
          </mxGeometry>
        </mxCell>
        <mxCell id="jTgPPwV_8Qs9MSZLGLhv-35" value="" style="endArrow=none;dashed=1;html=1;rounded=0;" parent="KKXnHeYwspyIdZ1s28OH-1" target="jTgPPwV_8Qs9MSZLGLhv-27" edge="1">
          <mxGeometry width="50" height="50" relative="1" as="geometry">
            <mxPoint x="717" y="680" as="sourcePoint" />
            <mxPoint x="716.88" y="550" as="targetPoint" />
          </mxGeometry>
        </mxCell>
        <mxCell id="jTgPPwV_8Qs9MSZLGLhv-36" value="monopoly.Player" style="html=1;verticalAlign=bottom;endArrow=open;dashed=1;endSize=8;rounded=0;" parent="KKXnHeYwspyIdZ1s28OH-1" edge="1">
          <mxGeometry relative="1" as="geometry">
            <mxPoint x="390" y="580" as="sourcePoint" />
            <mxPoint x="202" y="580" as="targetPoint" />
          </mxGeometry>
        </mxCell>
      </root>
    </mxGraphModel>
  </diagram>
  <diagram id="a4N7FD9EYvDYjhfroIhU" name="SequenceUML_4">
    <mxGraphModel dx="2142" dy="1037" grid="1" gridSize="10" guides="1" tooltips="1" connect="1" arrows="1" fold="1" page="1" pageScale="1" pageWidth="850" pageHeight="1100" math="0" shadow="0">
      <root>
        <mxCell id="x5cyTKKl2xjhJoclOuf3-0" />
        <mxCell id="x5cyTKKl2xjhJoclOuf3-1" parent="x5cyTKKl2xjhJoclOuf3-0" />
        <mxCell id="yplSrfjX4VrIWxTSH_WL-1" value="&lt;b&gt;Milestone 1&lt;br&gt;monopoly.Monopoly Project&lt;br&gt;Sequence UML Diagram&lt;br&gt;monopoly.Player&#39;s Turn&lt;br&gt;&lt;/b&gt;" style="text;html=1;align=center;verticalAlign=middle;resizable=0;points=[];autosize=1;strokeColor=none;fillColor=none;" parent="x5cyTKKl2xjhJoclOuf3-1" vertex="1">
          <mxGeometry x="350" y="40" width="150" height="60" as="geometry" />
        </mxCell>
        <mxCell id="kixbgszYK6jF541pJuRj-0" value="&lt;b&gt;SYSC 3110 - Milestone 1&lt;/b&gt;&lt;br&gt;&lt;b&gt;Group 17&lt;/b&gt;&lt;br&gt;&lt;b&gt;Members:&lt;/b&gt;&lt;br&gt;&lt;span style=&quot;background-color: rgb(255 , 255 , 0)&quot;&gt;Trong Nguyen 100848232 &lt;/span&gt;&lt;br&gt;Francisco De Grano 101147447 &lt;br&gt;Ibrahim Almalki 101142978 &lt;br&gt;Elisha Catherasoo 101148507&lt;br&gt;&lt;b&gt;Date: &lt;/b&gt;Oct. 25, 2021" style="text;html=1;strokeColor=none;fillColor=none;align=left;verticalAlign=middle;whiteSpace=wrap;rounded=0;" parent="x5cyTKKl2xjhJoclOuf3-1" vertex="1">
          <mxGeometry x="20" y="950" width="200" height="130" as="geometry" />
        </mxCell>
        <mxCell id="8F4htSN1A23czftLyzW9-13" value="&lt;b&gt;&lt;u&gt;:monopoly.Monopoly&lt;/u&gt;&lt;/b&gt;" style="html=1;align=center;" parent="x5cyTKKl2xjhJoclOuf3-1" vertex="1">
          <mxGeometry x="80" y="140" width="110" height="50" as="geometry" />
        </mxCell>
        <mxCell id="8F4htSN1A23czftLyzW9-18" value="" style="endArrow=none;dashed=1;html=1;rounded=0;" parent="x5cyTKKl2xjhJoclOuf3-1" source="8F4htSN1A23czftLyzW9-20" target="8F4htSN1A23czftLyzW9-13" edge="1">
          <mxGeometry width="50" height="50" relative="1" as="geometry">
            <mxPoint x="135" y="230" as="sourcePoint" />
            <mxPoint x="135" y="190" as="targetPoint" />
          </mxGeometry>
        </mxCell>
        <mxCell id="8F4htSN1A23czftLyzW9-19" value="" style="endArrow=none;dashed=1;html=1;rounded=0;" parent="x5cyTKKl2xjhJoclOuf3-1" target="8F4htSN1A23czftLyzW9-20" edge="1">
          <mxGeometry width="50" height="50" relative="1" as="geometry">
            <mxPoint x="135" y="880" as="sourcePoint" />
            <mxPoint x="134.9" y="760" as="targetPoint" />
          </mxGeometry>
        </mxCell>
        <mxCell id="8F4htSN1A23czftLyzW9-20" value="" style="rounded=0;whiteSpace=wrap;html=1;align=left;" parent="x5cyTKKl2xjhJoclOuf3-1" vertex="1">
          <mxGeometry x="125" y="230" width="20" height="600" as="geometry" />
        </mxCell>
        <mxCell id="8F4htSN1A23czftLyzW9-21" value="turn()" style="html=1;verticalAlign=bottom;startArrow=oval;startFill=1;endArrow=block;startSize=8;rounded=0;" parent="x5cyTKKl2xjhJoclOuf3-1" edge="1">
          <mxGeometry width="60" relative="1" as="geometry">
            <mxPoint x="20" y="240" as="sourcePoint" />
            <mxPoint x="125" y="240" as="targetPoint" />
          </mxGeometry>
        </mxCell>
        <mxCell id="8F4htSN1A23czftLyzW9-22" value="&lt;b&gt;&lt;u&gt;:monopoly.Dice&lt;/u&gt;&lt;/b&gt;" style="html=1;align=center;" parent="x5cyTKKl2xjhJoclOuf3-1" vertex="1">
          <mxGeometry x="240" y="140" width="110" height="50" as="geometry" />
        </mxCell>
        <mxCell id="8F4htSN1A23czftLyzW9-23" value="" style="endArrow=none;dashed=1;html=1;rounded=0;" parent="x5cyTKKl2xjhJoclOuf3-1" source="8F4htSN1A23czftLyzW9-25" target="8F4htSN1A23czftLyzW9-22" edge="1">
          <mxGeometry width="50" height="50" relative="1" as="geometry">
            <mxPoint x="295" y="230" as="sourcePoint" />
            <mxPoint x="295" y="190" as="targetPoint" />
          </mxGeometry>
        </mxCell>
        <mxCell id="8F4htSN1A23czftLyzW9-25" value="" style="rounded=0;whiteSpace=wrap;html=1;align=left;" parent="x5cyTKKl2xjhJoclOuf3-1" vertex="1">
          <mxGeometry x="285" y="250" width="20" height="60" as="geometry" />
        </mxCell>
        <mxCell id="8F4htSN1A23czftLyzW9-26" value="rollDice()" style="html=1;verticalAlign=bottom;endArrow=block;rounded=0;entryX=-0.019;entryY=0.227;entryDx=0;entryDy=0;entryPerimeter=0;" parent="x5cyTKKl2xjhJoclOuf3-1" edge="1" target="8F4htSN1A23czftLyzW9-25">
          <mxGeometry width="80" relative="1" as="geometry">
            <mxPoint x="150" y="264" as="sourcePoint" />
            <mxPoint x="280" y="265" as="targetPoint" />
          </mxGeometry>
        </mxCell>
        <mxCell id="8F4htSN1A23czftLyzW9-28" value="roll" style="html=1;verticalAlign=bottom;endArrow=open;dashed=1;endSize=8;rounded=0;exitX=0;exitY=0.792;exitDx=0;exitDy=0;exitPerimeter=0;" parent="x5cyTKKl2xjhJoclOuf3-1" source="8F4htSN1A23czftLyzW9-25" edge="1">
          <mxGeometry relative="1" as="geometry">
            <mxPoint x="285" y="300" as="sourcePoint" />
            <mxPoint x="150" y="298" as="targetPoint" />
          </mxGeometry>
        </mxCell>
        <mxCell id="8F4htSN1A23czftLyzW9-29" value="&lt;b&gt;&lt;u&gt;:monopoly.Dice&lt;/u&gt;&lt;/b&gt;" style="html=1;align=center;" parent="x5cyTKKl2xjhJoclOuf3-1" vertex="1">
          <mxGeometry x="240" y="140" width="110" height="50" as="geometry" />
        </mxCell>
        <mxCell id="8F4htSN1A23czftLyzW9-30" value="" style="endArrow=none;dashed=1;html=1;rounded=0;" parent="x5cyTKKl2xjhJoclOuf3-1" target="8F4htSN1A23czftLyzW9-29" edge="1">
          <mxGeometry width="50" height="50" relative="1" as="geometry">
            <mxPoint x="295" y="250" as="sourcePoint" />
            <mxPoint x="295" y="190" as="targetPoint" />
          </mxGeometry>
        </mxCell>
        <mxCell id="8F4htSN1A23czftLyzW9-36" value="" style="rounded=0;whiteSpace=wrap;html=1;align=left;" parent="x5cyTKKl2xjhJoclOuf3-1" vertex="1">
          <mxGeometry x="615" y="350" width="20" height="30" as="geometry" />
        </mxCell>
        <mxCell id="8F4htSN1A23czftLyzW9-37" value="&lt;b&gt;&lt;u&gt;:monopoly.GameBoard&lt;/u&gt;&lt;/b&gt;" style="html=1;align=center;" parent="x5cyTKKl2xjhJoclOuf3-1" vertex="1">
          <mxGeometry x="570" y="140" width="110" height="50" as="geometry" />
        </mxCell>
        <mxCell id="8F4htSN1A23czftLyzW9-38" value="" style="endArrow=none;dashed=1;html=1;rounded=0;" parent="x5cyTKKl2xjhJoclOuf3-1" source="8F4htSN1A23czftLyzW9-36" target="8F4htSN1A23czftLyzW9-37" edge="1">
          <mxGeometry width="50" height="50" relative="1" as="geometry">
            <mxPoint x="625.0000000000002" y="250" as="sourcePoint" />
            <mxPoint x="625" y="190" as="targetPoint" />
          </mxGeometry>
        </mxCell>
        <mxCell id="8F4htSN1A23czftLyzW9-41" value="getBoard()" style="html=1;verticalAlign=bottom;endArrow=block;rounded=0;entryX=0;entryY=0.25;entryDx=0;entryDy=0;exitX=1.078;exitY=0.107;exitDx=0;exitDy=0;exitPerimeter=0;" parent="x5cyTKKl2xjhJoclOuf3-1" target="8F4htSN1A23czftLyzW9-36" edge="1" source="8F4htSN1A23czftLyzW9-75">
          <mxGeometry width="80" relative="1" as="geometry">
            <mxPoint x="470" y="358" as="sourcePoint" />
            <mxPoint x="560" y="350" as="targetPoint" />
          </mxGeometry>
        </mxCell>
        <mxCell id="8F4htSN1A23czftLyzW9-43" value="square" style="html=1;verticalAlign=bottom;endArrow=open;dashed=1;endSize=8;rounded=0;exitX=-0.018;exitY=0.849;exitDx=0;exitDy=0;exitPerimeter=0;entryX=1.092;entryY=0.144;entryDx=0;entryDy=0;entryPerimeter=0;" parent="x5cyTKKl2xjhJoclOuf3-1" source="8F4htSN1A23czftLyzW9-36" edge="1" target="8F4htSN1A23czftLyzW9-75">
          <mxGeometry relative="1" as="geometry">
            <mxPoint x="565" y="380" as="sourcePoint" />
            <mxPoint x="470" y="375" as="targetPoint" />
          </mxGeometry>
        </mxCell>
        <mxCell id="8F4htSN1A23czftLyzW9-49" value="move(roll.value)" style="html=1;verticalAlign=bottom;endArrow=block;rounded=0;entryX=0;entryY=0.25;entryDx=0;entryDy=0;exitX=0.943;exitY=0.24;exitDx=0;exitDy=0;exitPerimeter=0;" parent="x5cyTKKl2xjhJoclOuf3-1" target="8F4htSN1A23czftLyzW9-64" edge="1" source="8F4htSN1A23czftLyzW9-75">
          <mxGeometry x="-0.2707" y="2" width="80" relative="1" as="geometry">
            <mxPoint x="470" y="420" as="sourcePoint" />
            <mxPoint x="434.94000000000005" y="429.79999999999995" as="targetPoint" />
            <mxPoint as="offset" />
          </mxGeometry>
        </mxCell>
        <mxCell id="8F4htSN1A23czftLyzW9-51" value="" style="html=1;verticalAlign=bottom;endArrow=open;dashed=1;endSize=8;rounded=0;exitX=0.25;exitY=0.833;exitDx=0;exitDy=0;exitPerimeter=0;entryX=1.103;entryY=0.31;entryDx=0;entryDy=0;entryPerimeter=0;" parent="x5cyTKKl2xjhJoclOuf3-1" source="8F4htSN1A23czftLyzW9-64" edge="1" target="8F4htSN1A23czftLyzW9-75">
          <mxGeometry relative="1" as="geometry">
            <mxPoint x="570" y="490" as="sourcePoint" />
            <mxPoint x="470" y="450" as="targetPoint" />
          </mxGeometry>
        </mxCell>
        <mxCell id="8F4htSN1A23czftLyzW9-53" value="" style="endArrow=none;dashed=1;html=1;rounded=0;" parent="x5cyTKKl2xjhJoclOuf3-1" target="8F4htSN1A23czftLyzW9-36" edge="1">
          <mxGeometry width="50" height="50" relative="1" as="geometry">
            <mxPoint x="625" y="880" as="sourcePoint" />
            <mxPoint x="660" y="460" as="targetPoint" />
          </mxGeometry>
        </mxCell>
        <mxCell id="8F4htSN1A23czftLyzW9-61" value="&lt;b&gt;&lt;u&gt;:monopoly.Player&lt;/u&gt;&lt;/b&gt;" style="html=1;align=center;" parent="x5cyTKKl2xjhJoclOuf3-1" vertex="1">
          <mxGeometry x="710" y="140" width="110" height="50" as="geometry" />
        </mxCell>
        <mxCell id="8F4htSN1A23czftLyzW9-64" value="" style="rounded=0;whiteSpace=wrap;html=1;align=left;" parent="x5cyTKKl2xjhJoclOuf3-1" vertex="1">
          <mxGeometry x="755" y="400" width="20" height="60" as="geometry" />
        </mxCell>
        <mxCell id="8F4htSN1A23czftLyzW9-65" value="" style="endArrow=none;dashed=1;html=1;rounded=0;" parent="x5cyTKKl2xjhJoclOuf3-1" source="8F4htSN1A23czftLyzW9-64" edge="1">
          <mxGeometry width="50" height="50" relative="1" as="geometry">
            <mxPoint x="765.0000000000002" y="250" as="sourcePoint" />
            <mxPoint x="765.0000000000002" y="190" as="targetPoint" />
          </mxGeometry>
        </mxCell>
        <mxCell id="8F4htSN1A23czftLyzW9-66" value="" style="endArrow=none;dashed=1;html=1;rounded=0;" parent="x5cyTKKl2xjhJoclOuf3-1" source="8F4htSN1A23czftLyzW9-72" target="8F4htSN1A23czftLyzW9-64" edge="1">
          <mxGeometry width="50" height="50" relative="1" as="geometry">
            <mxPoint x="765" y="640" as="sourcePoint" />
            <mxPoint x="800" y="460" as="targetPoint" />
          </mxGeometry>
        </mxCell>
        <mxCell id="8F4htSN1A23czftLyzW9-67" value="handleSquare(monopoly.Player, square[int], roll.value)" style="html=1;verticalAlign=bottom;endArrow=block;rounded=0;exitX=1.002;exitY=0.095;exitDx=0;exitDy=0;exitPerimeter=0;" parent="x5cyTKKl2xjhJoclOuf3-1" edge="1">
          <mxGeometry x="-0.1872" y="79" width="80" relative="1" as="geometry">
            <mxPoint x="145.71000000000018" y="630.01" as="sourcePoint" />
            <mxPoint x="144.99885906040268" y="650" as="targetPoint" />
            <Array as="points">
              <mxPoint x="190.67" y="630" />
              <mxPoint x="190.67" y="650" />
            </Array>
            <mxPoint as="offset" />
          </mxGeometry>
        </mxCell>
        <mxCell id="8F4htSN1A23czftLyzW9-72" value="" style="rounded=0;whiteSpace=wrap;html=1;align=left;" parent="x5cyTKKl2xjhJoclOuf3-1" vertex="1">
          <mxGeometry x="755" y="490" width="20" height="60" as="geometry" />
        </mxCell>
        <mxCell id="8F4htSN1A23czftLyzW9-73" value="getPosition()" style="html=1;verticalAlign=bottom;endArrow=block;rounded=0;entryX=0;entryY=0.25;entryDx=0;entryDy=0;exitX=1.025;exitY=0.435;exitDx=0;exitDy=0;exitPerimeter=0;" parent="x5cyTKKl2xjhJoclOuf3-1" target="8F4htSN1A23czftLyzW9-72" edge="1" source="8F4htSN1A23czftLyzW9-75">
          <mxGeometry width="80" relative="1" as="geometry">
            <mxPoint x="480" y="505" as="sourcePoint" />
            <mxPoint x="755" y="535.24" as="targetPoint" />
          </mxGeometry>
        </mxCell>
        <mxCell id="8F4htSN1A23czftLyzW9-74" value="" style="endArrow=none;dashed=1;html=1;rounded=0;" parent="x5cyTKKl2xjhJoclOuf3-1" target="8F4htSN1A23czftLyzW9-75" edge="1">
          <mxGeometry width="50" height="50" relative="1" as="geometry">
            <mxPoint x="455" y="880" as="sourcePoint" />
            <mxPoint x="455" y="500" as="targetPoint" />
          </mxGeometry>
        </mxCell>
        <mxCell id="8F4htSN1A23czftLyzW9-75" value="" style="rounded=0;whiteSpace=wrap;html=1;align=left;" parent="x5cyTKKl2xjhJoclOuf3-1" vertex="1">
          <mxGeometry x="445" y="310" width="20" height="450" as="geometry" />
        </mxCell>
        <mxCell id="8F4htSN1A23czftLyzW9-76" value="&lt;b&gt;&lt;u&gt;:GameState&lt;/u&gt;&lt;/b&gt;" style="html=1;align=center;" parent="x5cyTKKl2xjhJoclOuf3-1" vertex="1">
          <mxGeometry x="400" y="140" width="110" height="50" as="geometry" />
        </mxCell>
        <mxCell id="8F4htSN1A23czftLyzW9-77" value="" style="endArrow=none;dashed=1;html=1;rounded=0;" parent="x5cyTKKl2xjhJoclOuf3-1" source="8F4htSN1A23czftLyzW9-75" target="8F4htSN1A23czftLyzW9-76" edge="1">
          <mxGeometry width="50" height="50" relative="1" as="geometry">
            <mxPoint x="455.0000000000002" y="250" as="sourcePoint" />
            <mxPoint x="455" y="190" as="targetPoint" />
          </mxGeometry>
        </mxCell>
        <mxCell id="8F4htSN1A23czftLyzW9-79" value="int" style="html=1;verticalAlign=bottom;endArrow=open;dashed=1;endSize=8;rounded=0;exitX=0;exitY=0.75;exitDx=0;exitDy=0;" parent="x5cyTKKl2xjhJoclOuf3-1" source="8F4htSN1A23czftLyzW9-72" edge="1" target="8F4htSN1A23czftLyzW9-75">
          <mxGeometry x="0.069" relative="1" as="geometry">
            <mxPoint x="608.1800000000003" y="580.19" as="sourcePoint" />
            <mxPoint x="470" y="540" as="targetPoint" />
            <mxPoint as="offset" />
          </mxGeometry>
        </mxCell>
        <mxCell id="8F4htSN1A23czftLyzW9-80" value="" style="html=1;verticalAlign=bottom;endArrow=block;rounded=0;" parent="x5cyTKKl2xjhJoclOuf3-1" edge="1">
          <mxGeometry width="80" relative="1" as="geometry">
            <mxPoint x="150" y="340" as="sourcePoint" />
            <mxPoint x="443" y="340" as="targetPoint" />
          </mxGeometry>
        </mxCell>
        <mxCell id="8F4htSN1A23czftLyzW9-82" value="" style="endArrow=none;dashed=1;html=1;rounded=0;" parent="x5cyTKKl2xjhJoclOuf3-1" source="8F4htSN1A23czftLyzW9-85" target="8F4htSN1A23czftLyzW9-72" edge="1">
          <mxGeometry width="50" height="50" relative="1" as="geometry">
            <mxPoint x="765" y="630" as="sourcePoint" />
            <mxPoint x="764.88" y="550" as="targetPoint" />
          </mxGeometry>
        </mxCell>
        <mxCell id="8F4htSN1A23czftLyzW9-83" value="monopoly.Player" style="html=1;verticalAlign=bottom;endArrow=open;dashed=1;endSize=8;rounded=0;" parent="x5cyTKKl2xjhJoclOuf3-1" edge="1">
          <mxGeometry x="0.1576" relative="1" as="geometry">
            <mxPoint x="438" y="584" as="sourcePoint" />
            <mxPoint x="150" y="584" as="targetPoint" />
            <mxPoint as="offset" />
          </mxGeometry>
        </mxCell>
        <mxCell id="8F4htSN1A23czftLyzW9-84" value="" style="endArrow=none;dashed=1;html=1;rounded=0;" parent="x5cyTKKl2xjhJoclOuf3-1" target="8F4htSN1A23czftLyzW9-25" edge="1">
          <mxGeometry width="50" height="50" relative="1" as="geometry">
            <mxPoint x="295" y="880" as="sourcePoint" />
            <mxPoint x="294.58" y="370" as="targetPoint" />
          </mxGeometry>
        </mxCell>
        <mxCell id="8F4htSN1A23czftLyzW9-85" value="" style="rounded=0;whiteSpace=wrap;html=1;align=left;" parent="x5cyTKKl2xjhJoclOuf3-1" vertex="1">
          <mxGeometry x="755" y="680" width="20" height="60" as="geometry" />
        </mxCell>
        <mxCell id="8F4htSN1A23czftLyzW9-86" value="inputInt(gameState)" style="html=1;verticalAlign=bottom;endArrow=block;rounded=0;" parent="x5cyTKKl2xjhJoclOuf3-1" edge="1">
          <mxGeometry width="80" relative="1" as="geometry">
            <mxPoint x="470" y="690" as="sourcePoint" />
            <mxPoint x="750" y="690" as="targetPoint" />
          </mxGeometry>
        </mxCell>
        <mxCell id="8F4htSN1A23czftLyzW9-87" value="" style="endArrow=none;dashed=1;html=1;rounded=0;" parent="x5cyTKKl2xjhJoclOuf3-1" target="8F4htSN1A23czftLyzW9-85" edge="1">
          <mxGeometry width="50" height="50" relative="1" as="geometry">
            <mxPoint x="765" y="880" as="sourcePoint" />
            <mxPoint x="764.5799999999999" y="750" as="targetPoint" />
          </mxGeometry>
        </mxCell>
        <mxCell id="8F4htSN1A23czftLyzW9-88" value="int" style="html=1;verticalAlign=bottom;endArrow=open;dashed=1;endSize=8;rounded=0;exitX=0;exitY=0.75;exitDx=0;exitDy=0;" parent="x5cyTKKl2xjhJoclOuf3-1" edge="1">
          <mxGeometry relative="1" as="geometry">
            <mxPoint x="755" y="730" as="sourcePoint" />
            <mxPoint x="470" y="730" as="targetPoint" />
          </mxGeometry>
        </mxCell>
      </root>
    </mxGraphModel>
  </diagram>
</mxfile>
